{
.appVersion = "3234";
.formatVersion = 3;
axes = (
{
name = Weight;
tag = wght;
}
);
classes = (
{
automatic = 1;
code = "A Aacute Abreve Acircumflex Adieresis Agrave Amacron Aogonek Aring Atilde AE B C Cacute Ccaron Ccedilla Cdotaccent D Dcaron Dcroat Eth E Eacute Ecaron Ecircumflex Edieresis Edotaccent Egrave Emacron Eogonek F G Gbreve Gcommaaccent Gdotaccent H Hbar I IJ Iacute Icircumflex Idieresis Idotaccent Igrave Imacron Iogonek J K Kcommaaccent L Lacute Lcaron Lcommaaccent Ldot Lslash M N Nacute Ncaron Ncommaaccent Ntilde Eng O Oacute Ocircumflex Odieresis Ograve Ohungarumlaut Omacron Oslash Otilde OE P Thorn Q R Racute Rcaron Rcommaaccent S Sacute Scaron Scedilla Scommaaccent Germandbls T Tcaron Tcommaaccent U Uacute Ubreve Ucircumflex Udieresis Ugrave Uhungarumlaut Umacron Uogonek Uring V W Wacute Wcircumflex Wdieresis Wgrave X Y Yacute Ycircumflex Ydieresis Ygrave Z Zacute Zcaron Zdotaccent";
name = Uppercase;
}
);
customParameters = (
{
name = panose;
value = (
0,
0,
0,
0,
0,
0,
0,
0,
0,
0
);
},
{
name = fsType;
value = (
);
},
{
name = "Write lastChange";
value = 0;
},
{
name = "Use Typo Metrics";
value = 1;
},
{
name = "Use Line Breaks";
value = 1;
},
{
name = "Enforce Compatibility Check";
value = 0;
},
{
name = "Variable Font Origin";
value = m01;
}
);
date = "2021-07-16 04:59:07 +0000";
familyName = Mekorot;
featurePrefixes = (
{
automatic = 1;
code = "languagesystem DFLT dflt;

languagesystem latn dflt;
languagesystem latn AZE;
languagesystem latn CRT;
languagesystem latn KAZ;
languagesystem latn TAT;
languagesystem latn TRK;
languagesystem latn ROM;
languagesystem latn MOL;
languagesystem latn CAT;

languagesystem hebr dflt;
languagesystem hebr IWR;
";
name = Languagesystems;
}
);
features = (
{
automatic = 1;
code = "feature locl;
feature sups;
feature frac;
feature ordn;
feature case;
";
tag = aalt;
},
{
code = "lookup ccmp_Other_1 {

glyphs = (
{
glyphname = A;
kernLeft = A;
kernRight = A;
layers = (
{
anchors = (
{
name = bottom;
pos = (371,0);
},
{
name = right;
pos = (700,0);
},
{
name = top;
pos = (387,650);
}
);
layerId = m01;
shapes = (
{
closed = 1;
nodes = (
(537,206,l),
(537,288,l),
(204,288,l),
(204,206,l)
);
},
{
closed = 1;
nodes = (
(464,657,l),
(309,657,l),
(87,71,l),
(10,51,l),
(10,0,l),
(266,0,l),
(266,51,l),
(184,72,l),
(371,602,l),
(350,602,l),
(556,71,l),
(473,51,l),
(473,0,l),
(783,0,l),
(783,51,l),
(698,73,l)
);
}
);
width = 786;
},
{
anchors = (
{
name = bottom;
pos = (388,0);
},
{
name = right;
pos = (744,0);
},
{
name = top;
pos = (418,650);
}
);
layerId = m002;
shapes = (
{
closed = 1;
nodes = (
(547,185,l),
(547,290,l),
(205,290,l),
(205,185,l)
);
},
{
closed = 1;
nodes = (
(538,653,l),
(305,653,l),
(85,75,l),
(7,58,l),
(7,0,l),
(288,0,l),
(288,58,l),
(211,77,l),
(386,575,l),
(368,575,l),
(553,75,l),
(475,58,l),
(475,0,l),
(847,0,l),
(847,58,l),
(762,81,l)
);
}
);
width = 851;
},
{
anchors = (
{
name = bottom;
pos = (388,0);
},
{
name = right;
pos = (744,0);
},
{
name = top;
pos = (418,650);
}
);
associatedMasterId = m002;
layerId = "2BE8014E-E4F5-4D0C-BEF8-E0F0D2F2C90B";
name = "Feb 2, 24 at 20:29";
shapes = (
{
closed = 1;
nodes = (
(547,185,l),
(547,290,l),
(205,290,l),
(205,185,l)
);
},
{
closed = 1;
nodes = (
(538,653,l),
(305,653,l),
(89,86,ls),
(86,77,o),
(79,74,o),
(67,71,c),
(15,60,ls),
(10,59,o),
(7,53,o),
(7,48,cs),
(7,14,ls),
(7,6,o),
(12,0,o),
(18,0,cs),
(278,0,ls),
(285,0,o),
(288,3,o),
(288,11,cs),
(288,48,ls),
(288,54,o),
(284,59,o),
(275,61,cs),
(225,74,ls),
(219,75,o),
(213,83,o),
(215,89,cs),
(386,575,l),
(368,575,l),
(549,86,ls),
(551,81,o),
(547,73,o),
(541,72,cs),
(486,60,ls),
(478,58,o),
(475,54,o),
(475,48,cs),
(475,10,ls),
(475,4,o),
(479,0,o),
(485,0,cs),
(847,0,l),
(847,12,l),
(847,58,l),
(836,61,l),
(775,78,l),
(762,81,l)
);
}
);
width = 851;
}
);
unicode = 65;
},
{
glyphname = AE;
kernLeft = AE;
kernRight = E;
layers = (
{
anchors = (
{
name = bottom;
pos = (583,0);
},
{
name = top;
pos = (599,650);
}
);
layerId = m01;
shapes = (
{
closed = 1;
nodes = (
(565,215,l),
(565,297,l),
(255,297,l),
(255,215,l)
);
},
{
closed = 1;
nodes = (
(79,71,l),
(2,51,l),
(2,0,l),
(265,0,l),
(265,51,l),
(182,72,l),
(559,602,l),
(559,650,l),
(492,650,l)
);
},
{
closed = 1;
nodes = (
(479,565,l),
(505,650,l),
(342,650,l),
(342,598,l)
);
},
{
closed = 1;
nodes = (
(824,455,l),
(817,377,l),
(593,377,l),
(593,300,l),
(817,300,l),
(824,221,l),
(890,221,l),
(890,338,l),
(890,455,l)
);
},
{
closed = 1;
nodes = (
(1037,684,l),
(984,684,l),
(943,650,l),
(593,650,l),
(593,569,l),
(967,569,l),
(923,615,l),
(967,470,l),
(1037,470,l)
);
},
{
closed = 1;
nodes = (
(954,81,l),
(593,81,l),
(593,0,l),
(938,0,l),
(963,-36,l),
(1025,-36,l),
(1062,208,l),
(993,208,l),
(916,35,l)
);
},
{
closed = 1;
nodes = (
(662,0,l),
(662,650,l),
(533,650,l),
(533,73,l),
(445,51,l),
(445,0,l)
);
}
);
width = 1102;
},
{
anchors = (
{
name = bottom;
pos = (587,0);
},
{
name = top;
pos = (641,650);
}
);
layerId = m002;
shapes = (
{
closed = 1;
nodes = (
(561,195,l),
(561,299,l),
(266,299,l),
(266,195,l)
);
},
{
closed = 1;
nodes = (
(78,75,l),
(1,58,l),
(1,0,l),
(289,0,l),
(289,58,l),
(212,77,l),
(558,575,l),
(558,650,l),
(480,650,l)
);
},
{
closed = 1;
nodes = (
(466,555,l),
(497,650,l),
(329,650,l),
(329,592,l)
);
},
{
closed = 1;
nodes = (
(862,455,l),
(854,384,l),
(639,384,l),
(639,294,l),
(854,294,l),
(862,221,l),
(938,221,l),
(938,338,l),
(938,455,l)
);
},
{
closed = 1;
nodes = (
(1104,690,l),
(1044,690,l),
(992,650,l),
(639,650,l),
(639,548,l),
(1020,548,l),
(962,612,l),
(1020,451,l),
(1104,451,l)
);
},
{
closed = 1;
nodes = (
(1003,102,l),
(639,102,l),
(639,0,l),
(980,0,l),
(1017,-42,l),
(1087,-42,l),
(1130,229,l),
(1044,229,l),
(951,39,l)
);
},
{
closed = 1;
nodes = (
(734,0,l),
(734,650,l),
(539,650,l),
(539,80,l),
(457,58,l),
(457,0,l)
);
}
);
width = 1166;
}
);
unicode = 198;
},
{
glyphname = B;
kernLeft = H;
layers = (
{
anchors = (
{
name = bottom;
pos = (374,0);
},
{
name = top;
pos = (363,650);
}
);
layerId = m01;
shapes = (
{
closed = 1;
nodes = (
(388,569,ls),
(468,569,o),
(495,539,o),
(495,479,cs),
(495,410,o),
(461,383,o),
(397,383,cs),
(209,383,l),
(207,305,l),
(396,305,ls),
(487,305,o),
(520,265,o),
(520,197,cs),
(520,108,o),
(481,81,o),
(393,81,cs),
(209,81,l),
(209,0,l),
(409,0,ls),
(586,0,o),
(652,72,o),
(652,193,cs),
(652,287,o),
(590,349,o),
(475,356,c),
(475,347,l),
(571,355,o),
(622,409,o),
(622,497,cs),
(622,589,o),
(569,650,o),
(417,650,cs),
(209,650,l),
(209,569,l)
);
},
{
closed = 1;
nodes = (
(265,0,l),
(265,650,l),
(52,650,l),
(52,598,l),
(136,577,l),
(136,73,l),
(52,51,l),
(52,0,l)
);
}
);
width = 704;
},
{
anchors = (
{
name = bottom;
pos = (401,0);
},
{
name = top;
pos = (397,650);
}
);
layerId = m002;
shapes = (
{
closed = 1;
nodes = (
(412,548,ls),
(475,548,o),
(496,523,o),
(496,470,cs),
(496,409,o),
(469,386,o),
(419,386,cs),
(233,386,l),
(232,296,l),
(419,296,ls),
(494,296,o),
(520,261,o),
(520,202,cs),
(520,124,o),
(489,102,o),
(417,102,cs),
(233,102,l),
(233,0,l),
(467,0,ls),
(652,0,o),
(721,69,o),
(721,185,cs),
(721,284,o),
(655,350,o),
(535,356,c),
(535,347,l),
(636,355,o),
(689,409,o),
(689,497,cs),
(689,589,o),
(633,650,o),
(474,650,cs),
(233,650,l),
(233,548,l)
);
},
{
closed = 1;
nodes = (
(323,0,l),
(323,650,l),
(47,650,l),
(47,592,l),
(127,570,l),
(127,80,l),
(47,58,l),
(47,0,l)
);
}
);
width = 766;
}
);
unicode = 66;
},
{
glyphname = C;
kernLeft = O;
kernRight = C;
layers = (
{
anchors = (
{
name = bottom;
pos = (399,0);
},
{
name = right;
pos = (636,0);
},
{
name = top;
pos = (392,650);
}
);
layerId = m01;
shapes = (
{
closed = 1;
nodes = (
(280,74,o),
(181,160,o),
(186,340,cs),
(190,498,o),
(259,573,o),
(427,573,cs),
(486,573,o),
(527,564,o),
(581,535,c),
(542,587,l),
(585,434,l),
(660,434,l),
(660,684,l),
(602,684,l),
(559,630,l),
(596,632,l),
(543,649,o),
(490,660,o),
(425,660,cs),
(185,660,o),
(55,535,o),
(53,320,cs),
(51,101,o),
(182,-10,o),
(428,-10,cs),
(515,-10,o),
(596,5,o),
(649,29,c),
(669,213,l),
(604,213,l),
(533,46,l),
(607,105,l),
(556,85,o),
(495,74,o),
(441,74,cs)
);
}
);
width = 721;
},
{
anchors = (
{
name = bottom;
pos = (422,0);
},
{
name = right;
pos = (655,0);
},
{
name = top;
pos = (398,650);
}
);
layerId = m002;
shapes = (
{
closed = 1;
nodes = (
(321,94,o),
(242,166,o),
(244,338,cs),
(246,490,o),
(304,550,o),
(445,550,cs),
(508,550,o),
(556,538,o),
(610,506,c),
(539,588,l),
(595,419,l),
(680,419,l),
(680,690,l),
(614,690,l),
(561,629,l),
(610,634,l),
(551,652,o),
(493,662,o),
(431,662,cs),
(172,662,o),
(48,524,o),
(47,317,cs),
(46,97,o),
(176,-12,o),
(437,-12,cs),
(525,-12,o),
(602,1,o),
(668,26,c),
(690,232,l),
(618,232,l),
(531,55,l),
(623,124,l),
(576,105,o),
(520,94,o),
(471,94,cs)
);
}
);
width = 738;
}
);
unicode = 67;
},
{
glyphname = D;
kernLeft = H;
kernRight = D;
layers = (
{
anchors = (
{
name = bottom;
pos = (397,0);
},
{
name = top;
pos = (397,650);
}
);
layerId = m01;
shapes = (
{
closed = 1;
nodes = (
(600,157,o),
(526,84,o),
(382,84,cs),
(199,84,l),
(194,0,l),
(386,0,ls),
(596,0,o),
(734,118,o),
(734,338,cs),
(734,541,o),
(617,650,o),
(390,650,cs),
(194,650,l),
(199,565,l),
(359,565,ls),
(528,565,o),
(600,491,o),
(600,332,cs)
);
},
{
closed = 1;
nodes = (
(266,0,l),
(266,650,l),
(49,650,l),
(49,598,l),
(137,577,l),
(137,73,l),
(49,51,l),
(49,0,l)
);
}
);
width = 787;
},
{
anchors = (
{
name = bottom;
pos = (406,0);
},
{
name = top;
pos = (406,650);
}
);
layerId = m002;
shapes = (
{
closed = 1;
nodes = (
(573,176,o),
(525,113,o),
(420,113,cs),
(235,113,l),
(219,0,l),
(425,0,ls),
(636,0,o),
(773,118,o),
(773,338,cs),
(773,541,o),
(656,650,o),
(429,650,cs),
(219,650,l),
(235,537,l),
(398,537,ls),
(527,537,o),
(573,475,o),
(573,332,cs)
);
},
{
closed = 1;
nodes = (
(323,0,l),
(323,650,l),
(46,650,l),
(46,592,l),
(128,570,l),
(128,80,l),
(46,58,l),
(46,0,l)
);
}
);
width = 821;
}
);
unicode = 68;
},
{
glyphname = Dcroat;
kernLeft = H;
kernRight = D;
layers = (
{
layerId = m01;
shapes = (
{
closed = 1;
nodes = (
(407,293,l),
(407,361,l),
(51,361,l),
(51,293,l)
);
},
{
closed = 1;
nodes = (
(602,157,o),
(528,84,o),
(384,84,cs),
(201,84,l),
(196,0,l),
(387,0,ls),
(598,0,o),
(736,118,o),
(736,338,cs),
(736,541,o),
(619,650,o),
(391,650,cs),
(196,650,l),
(201,565,l),
(361,565,ls),
(530,565,o),
(602,491,o),
(602,332,cs)
);
},
{
closed = 1;
nodes = (
(268,0,l),
(268,650,l),
(51,650,l),
(51,598,l),
(138,577,l),
(138,73,l),
(51,51,l),
(51,0,l)
);
}
);
width = 789;
},
{
layerId = m002;
shapes = (
{
closed = 1;
nodes = (
(444,285,l),
(444,372,l),
(48,372,l),
(48,285,l)
);
},
{
closed = 1;
nodes = (
(575,176,o),
(527,113,o),
(422,113,cs),
(237,113,l),
(221,0,l),
(426,0,ls),
(637,0,o),
(775,118,o),
(775,338,cs),
(775,541,o),
(658,650,o),
(431,650,cs),
(221,650,l),
(237,537,l),
(400,537,ls),
(528,537,o),
(575,475,o),
(575,332,cs)
);
},
{
closed = 1;
nodes = (
(325,0,l),
(325,650,l),
(48,650,l),
(48,592,l),
(129,570,l),
(129,80,l),
(48,58,l),
(48,0,l)
);
}
);
width = 822;
}
);
unicode = 272;
},
{
glyphname = E;
kernLeft = H;
kernRight = E;
layers = (
{
anchors = (
{
name = bottom;
pos = (350,0);
},
{
name = right;
pos = (583,0);
},
{
name = top;
pos = (357,650);
}
);
layerId = m01;
shapes = (
{
closed = 1;
nodes = (
(428,455,l),
(421,377,l),
(197,377,l),
(197,300,l),
(421,300,l),
(428,221,l),
(494,221,l),
(494,338,l),
(494,455,l)
);
},
{
closed = 1;
nodes = (
(641,684,l),
(588,684,l),
(547,650,l),
(197,650,l),
(197,569,l),
(571,569,l),
(527,615,l),
(571,470,l),
(641,470,l)
);
},
{
closed = 1;
nodes = (
(558,81,l),
(197,81,l),
(197,0,l),
(542,0,l),
(567,-36,l),
(629,-36,l),
(666,208,l),
(597,208,l),
(520,35,l)
);
},
{
closed = 1;
nodes = (
(266,0,l),
(266,650,l),
(49,650,l),
(49,598,l),
(137,577,l),
(137,73,l),
(49,51,l),
(49,0,l)
);
}
);
width = 706;
},
{
anchors = (
{
name = bottom;
pos = (379,0);
},
{
name = right;
pos = (633,0);
},
{
name = top;
pos = (382,650);
}
);
layerId = m002;
shapes = (
{
closed = 1;
nodes = (
(450,455,l),
(443,384,l),
(227,384,l),
(227,294,l),
(443,294,l),
(450,221,l),
(526,221,l),
(526,338,l),
(526,455,l)
);
},
{
closed = 1;
nodes = (
(693,690,l),
(632,690,l),
(581,650,l),
(227,650,l),
(227,548,l),
(609,548,l),
(551,612,l),
(609,451,l),
(693,451,l)
);
},
{
closed = 1;
nodes = (
(591,102,l),
(227,102,l),
(227,0,l),
(568,0,l),
(606,-42,l),
(676,-42,l),
(718,229,l),
(633,229,l),
(539,39,l)
);
},
{
closed = 1;
nodes = (
(323,0,l),
(323,650,l),
(46,650,l),
(46,592,l),
(128,570,l),
(128,80,l),
(46,58,l),
(46,0,l)
);
}
);
width = 754;
}
);
unicode = 69;
},
{
glyphname = F;
kernLeft = H;
layers = (
{
anchors = (
{
name = bottom;
pos = (201,0);
},
{
name = top;
pos = (340,650);
}
);
layerId = m01;
shapes = (
{
closed = 1;
nodes = (
(425,424,l),
(417,341,l),
(197,341,l),
(197,264,l),
(417,264,l),
(425,179,l),
(490,179,l),
(490,302,l),
(490,424,l)
);
},
{
closed = 1;
nodes = (
(531,650,l),
(197,650,l),
(197,569,l),
(554,569,l),
(511,615,l),
(555,458,l),
(625,458,l),
(625,684,l),
(571,684,l)
);
},
{
closed = 1;
nodes = (
(49,650,l),
(49,598,l),
(137,577,l),
(137,73,l),
(49,51,l),
(49,0,l),
(354,0,l),
(354,51,l),
(266,73,l),
(266,650,l)
);
}
);
width = 659;
},
{
anchors = (
{
name = bottom;
pos = (225,0);
},
{
name = top;
pos = (357,650);
}
);
layerId = m002;
shapes = (
{
closed = 1;
nodes = (
(449,423,l),
(441,345,l),
(227,345,l),
(227,254,l),
(441,254,l),
(449,174,l),
(525,174,l),
(525,299,l),
(525,423,l)
);
},
{
closed = 1;
nodes = (
(558,650,l),
(227,650,l),
(227,548,l),
(586,548,l),
(528,612,l),
(587,438,l),
(670,438,l),
(670,690,l),
(610,690,l)
);
},
{
closed = 1;
nodes = (
(46,650,l),
(46,592,l),
(128,570,l),
(128,80,l),
(46,58,l),
(46,0,l),
(405,0,l),
(405,58,l),
(323,80,l),
(323,650,l)
);
}
);
width = 700;
}
);
unicode = 70;
},
{
glyphname = G;
kernLeft = O;
kernRight = G;
layers = (
{
anchors = (
{
name = bottom;
pos = (429,0);
},
{
name = top;
pos = (398,650);
}
);
layerId = m01;
shapes = (
{
closed = 1;
nodes = (
(674,239,l),
(742,261,l),
(742,311,l),
(445,311,l),
(445,261,l),
(544,239,l),
(544,18,l),
(601,114,l),
(555,85,o),
(495,75,o),
(441,75,cs),
(279,75,o),
(181,161,o),
(186,340,cs),
(190,498,o),
(261,573,o),
(433,573,cs),
(492,573,o),
(534,564,o),
(588,535,c),
(549,587,l),
(591,442,l),
(666,442,l),
(666,684,l),
(608,684,l),
(566,630,l),
(602,632,l),
(549,649,o),
(497,660,o),
(432,660,cs),
(188,660,o),
(55,535,o),
(53,320,cs),
(51,101,o),
(182,-10,o),
(428,-10,cs),
(531,-10,o),
(654,15,o),
(735,55,c),
(735,103,l),
(674,103,l)
);
}
);
width = 786;
},
{
anchors = (
{
name = bottom;
pos = (438,0);
},
{
name = top;
pos = (406,650);
}
);
layerId = m002;
shapes = (
{
closed = 1;
nodes = (
(704,232,l),
(765,259,l),
(765,311,l),
(430,311,l),
(430,259,l),
(509,235,l),
(509,12,l),
(607,129,l),
(561,106,o),
(519,98,o),
(471,98,cs),
(321,98,o),
(242,168,o),
(244,338,cs),
(246,490,o),
(307,550,o),
(455,550,cs),
(519,550,o),
(567,538,o),
(620,506,c),
(550,588,l),
(606,422,l),
(690,422,l),
(690,690,l),
(624,690,l),
(572,629,l),
(620,634,l),
(562,652,o),
(504,662,o),
(442,662,cs),
(176,662,o),
(48,524,o),
(47,317,cs),
(46,97,o),
(176,-12,o),
(437,-12,cs),
(547,-12,o),
(665,14,o),
(758,57,c),
(758,114,l),
(704,114,l)
);
}
);
width = 804;
}
);
unicode = 71;
},
{
glyphname = H;
kernLeft = H;
kernRight = H;
layers = (
{
anchors = (
{
name = bottom;
pos = (426,0);
},
{
name = top;
pos = (426,650);
}
);
layerId = m01;
shapes = (
{
closed = 1;
nodes = (
(266,577,l),
(354,598,l),
(354,650,l),
(49,650,l),
(49,598,l),
(137,577,l),
(137,73,l),
(49,51,l),
(49,0,l),
(354,0,l),
(354,51,l),
(266,73,l)
);
},
{
closed = 1;
nodes = (
(715,577,l),
(802,598,l),
(802,650,l),
(498,650,l),
(498,598,l),
(585,577,l),
(585,73,l),
(498,51,l),
(498,0,l),
(802,0,l),
(802,51,l),
(715,73,l)
);
},
{
closed = 1;
nodes = (
(657,289,l),
(657,373,l),
(195,373,l),
(195,289,l)
);
}
);
width = 851;
},
{
anchors = (
{
name = bottom;
pos = (451,0);
},
{
name = top;
pos = (451,650);
}
);
layerId = m002;
shapes = (
{
closed = 1;
nodes = (
(323,570,l),
(405,592,l),
(405,650,l),
(46,650,l),
(46,592,l),
(128,570,l),
(128,80,l),
(46,58,l),
(46,0,l),
(405,0,l),
(405,58,l),
(323,80,l)
);
},
{
closed = 1;
nodes = (
(775,570,l),
(856,592,l),
(856,650,l),
(497,650,l),
(497,592,l),
(579,570,l),
(579,80,l),
(497,58,l),
(497,0,l),
(856,0,l),
(856,58,l),
(775,80,l)
);
},
{
closed = 1;
nodes = (
(683,275,l),
(683,388,l),
(220,388,l),
(220,275,l)
);
}
);
width = 902;
}
);
unicode = 72;
},
{
glyphname = Hbar;
kernLeft = H;
kernRight = H;
layers = (
{
layerId = m01;
shapes = (
{
closed = 1;
nodes = (
(268,577,l),
(355,598,l),
(355,650,l),
(51,650,l),
(51,598,l),
(138,577,l),
(138,73,l),
(51,51,l),
(51,0,l),
(355,0,l),
(355,51,l),
(268,73,l)
);
},
{
closed = 1;
nodes = (
(716,577,l),
(804,598,l),
(804,650,l),
(499,650,l),
(499,598,l),
(587,577,l),
(587,73,l),
(499,51,l),
(499,0,l),
(804,0,l),
(804,51,l),
(716,73,l)
);
},
{
closed = 1;
nodes = (
(804,455,l),
(804,523,l),
(51,523,l),
(51,455,l)
);
},
{
closed = 1;
nodes = (
(658,289,l),
(658,373,l),
(196,373,l),
(196,289,l)
);
}
);
width = 854;
},
{
layerId = m002;
shapes = (
{
closed = 1;
nodes = (
(325,570,l),
(406,592,l),
(406,650,l),
(47,650,l),
(47,592,l),
(129,570,l),
(129,80,l),
(47,58,l),
(47,0,l),
(406,0,l),
(406,58,l),
(325,80,l)
);
},
{
closed = 1;
nodes = (
(776,570,l),
(858,592,l),
(858,650,l),
(499,650,l),
(499,592,l),
(581,570,l),
(581,80,l),
(499,58,l),
(499,0,l),
(858,0,l),
(858,58,l),
(776,80,l)
);
},
{
closed = 1;
nodes = (
(858,449,l),
(858,537,l),
(47,537,l),
(47,449,l)
);
},
{
closed = 1;
nodes = (
(684,275,l),
(684,388,l),
(222,388,l),
(222,275,l)
);
}
);
width = 905;
}
);
unicode = 294;
},
{
glyphname = I;
kernLeft = H;
kernRight = H;
layers = (
{
anchors = (
{
name = bottom;
pos = (201,0);
},
{
name = right;
pos = (271,0);
},
{
name = top;
pos = (201,650);
}
);
layerId = m01;
shapes = (
{
closed = 1;
nodes = (
(266,73,l),
(266,577,l),
(354,598,l),
(354,650,l),
(49,650,l),
(49,598,l),
(137,577,l),
(137,73,l),
(49,51,l),
(49,0,l),
(354,0,l),
(354,51,l)
);
}
);
width = 403;
},
{
anchors = (
{
name = bottom;
pos = (225,0);
},
{
name = right;
pos = (307,0);
},
{
name = top;
pos = (225,650);
}
);
layerId = m002;
shapes = (
{
closed = 1;
nodes = (
(323,80,l),
(323,570,l),
(405,592,l),
(405,650,l),
(46,650,l),
(46,592,l),
(128,570,l),
(128,80,l),
(46,58,l),
(46,0,l),
(405,0,l),
(405,58,l)
);
}
);
width = 450;
}
);
unicode = 73;
},
{
glyphname = J;
kernLeft = J;
kernRight = J;
layers = (
{
anchors = (
{
name = bottom;
pos = (237,0);
},
{
name = top;
pos = (356,650);
}
);
layerId = m01;
shapes = (
{
closed = 1;
nodes = (
(421,577,l),
(508,598,l),
(508,650,l),
(204,650,l),
(204,598,l),
(291,577,l),
(291,178,ls),
(291,104,o),
(258,77,o),
(187,77,cs),
(116,77,o),
(89,138,o),
(69,138,cs),
(36,138,o),
(14,115,o),
(14,79,cs),
(14,29,o),
(53,-8,o),
(178,-8,cs),
(351,-8,o),
(421,68,o),
(421,189,cs)
);
}
);
width = 544;
},
{
anchors = (
{
name = bottom;
pos = (283,0);
},
{
name = top;
pos = (394,650);
}
);
layerId = m002;
shapes = (
{
closed = 1;
nodes = (
(492,570,l),
(574,592,l),
(574,650,l),
(215,650,l),
(215,592,l),
(297,570,l),
(297,195,ls),
(297,125,o),
(270,100,o),
(200,100,cs),
(138,100,o),
(95,166,o),
(73,166,cs),
(36,166,o),
(9,140,o),
(9,96,cs),
(9,33,o),
(58,-10,o),
(200,-10,cs),
(403,-10,o),
(492,81,o),
(492,215,cs)
);
}
);
width = 601;
}
);
unicode = 74;
},
{
glyphname = K;
kernLeft = H;
kernRight = K;
layers = (
{
anchors = (
{
name = bottom;
pos = (432,0);
},
{
name = top;
pos = (405,650);
}
);
layerId = m01;
shapes = (
{
closed = 1;
nodes = (
(427,392,l),
(405,326,l),
(662,577,l),
(739,598,l),
(739,650,l),
(482,650,l),
(482,598,l),
(557,581,l),
(351,378,l),
(225,378,l),
(225,293,l),
(344,293,l),
(555,50,l),
(555,35,l),
(555,0,l),
(780,0,l),
(780,51,l),
(708,69,l)
);
},
{
closed = 1;
nodes = (
(354,598,l),
(354,650,l),
(49,650,l),
(49,598,l),
(137,577,l),
(137,73,l),
(49,51,l),
(49,0,l),
(354,0,l),
(354,51,l),
(266,73,l),
(266,577,l)
);
}
);
width = 793;
},
{
anchors = (
{
name = bottom;
pos = (455,0);
},
{
name = top;
pos = (441,650);
}
);
layerId = m002;
shapes = (
{
closed = 1;
nodes = (
(515,433,l),
(466,324,l),
(716,569,l),
(793,592,l),
(793,650,l),
(502,650,l),
(502,592,l),
(579,575,l),
(393,391,l),
(259,391,l),
(259,278,l),
(385,278,l),
(542,52,l),
(542,45,l),
(542,0,l),
(834,0,l),
(834,58,l),
(763,81,l)
);
},
{
closed = 1;
nodes = (
(405,592,l),
(405,650,l),
(46,650,l),
(46,592,l),
(128,570,l),
(128,80,l),
(46,58,l),
(46,0,l),
(405,0,l),
(405,58,l),
(323,80,l),
(323,570,l)
);
}
);
width = 844;
}
);
unicode = 75;
},
{
glyphname = L;
kernLeft = H;
kernRight = L;
layers = (
{
anchors = (
{
name = bottom;
pos = (328,0);
},
{
name = mid;
pos = (529,362);
},
{
name = right;
pos = (383,650);
},
{
name = top;
pos = (201,650);
}
);
layerId = m01;
shapes = (
{
closed = 1;
nodes = (
(633,236,l),
(564,236,l),
(480,40,l),
(523,84,l),
(198,84,l),
(197,0,l),
(506,0,l),
(531,-36,l),
(592,-36,l)
);
},
{
closed = 1;
nodes = (
(354,598,l),
(354,650,l),
(49,650,l),
(49,598,l),
(137,577,l),
(137,73,l),
(49,51,l),
(49,0,l),
(266,0,l),
(266,577,l)
);
}
);
width = 659;
},
{
anchors = (
{
name = bottom;
pos = (355,0);
},
{
name = mid;
pos = (581,379);
},
{
name = right;
pos = (421,650);
},
{
name = top;
pos = (225,650);
}
);
layerId = m002;
shapes = (
{
closed = 1;
nodes = (
(686,259,l),
(600,259,l),
(495,56,l),
(556,113,l),
(231,113,l),
(227,0,l),
(529,0,l),
(567,-42,l),
(636,-42,l)
);
},
{
closed = 1;
nodes = (
(405,592,l),
(405,650,l),
(46,650,l),
(46,592,l),
(128,570,l),
(128,80,l),
(46,58,l),
(46,0,l),
(323,0,l),
(323,570,l)
);
}
);
width = 705;
}
);
unicode = 76;
},
{
color = 4;
glyphname = Ldot;
kernLeft = kern_H2;
kernRight = kern_L1;
layers = (
{
layerId = m01;
shapes = (
{
ref = L;
},
{
closed = 1;
nodes = (
(580,304,o),
(605,325,o),
(605,363,cs),
(605,402,o),
(580,421,o),
(529,421,cs),
(478,421,o),
(453,402,o),
(453,363,cs),
(453,325,o),
(478,304,o),
(529,304,cs)
);
}
);
width = 661;
},
{
layerId = m002;
shapes = (
{
ref = L;
},
{
closed = 1;
nodes = (
(643,313,o),
(671,337,o),
(671,381,cs),
(671,424,o),
(643,445,o),
(581,445,cs),
(519,445,o),
(491,424,o),
(491,381,cs),
(491,337,o),
(519,313,o),
(581,313,cs)
);
}
);
width = 710;
}
);
unicode = 319;
},
{
glyphname = Lslash;
kernRight = L;
layers = (
{
layerId = m01;
shapes = (
{
closed = 1;
nodes = (
(240,286,l),
(433,388,l),
(433,461,l),
(240,359,l),
(188,343,l),
(61,276,l),
(61,204,l),
(188,270,l)
);
},
{
closed = 1;
nodes = (
(646,236,l),
(577,236,l),
(492,40,l),
(535,84,l),
(210,84,l),
(209,0,l),
(518,0,l),
(543,-36,l),
(605,-36,l)
);
},
{
closed = 1;
nodes = (
(366,598,l),
(366,650,l),
(61,650,l),
(61,598,l),
(149,577,l),
(149,73,l),
(61,51,l),
(61,0,l),
(278,0,l),
(278,577,l)
);
}
);
width = 671;
},
{
layerId = m002;
shapes = (
{
closed = 1;
nodes = (
(276,278,l),
(475,382,l),
(475,473,l),
(276,369,l),
(206,352,l),
(57,275,l),
(57,184,l),
(206,262,l)
);
},
{
closed = 1;
nodes = (
(697,259,l),
(611,259,l),
(507,56,l),
(567,113,l),
(243,113,l),
(239,0,l),
(541,0,l),
(578,-42,l),
(648,-42,l)
);
},
{
closed = 1;
nodes = (
(416,592,l),
(416,650,l),
(57,650,l),
(57,592,l),
(139,570,l),
(139,80,l),
(57,58,l),
(57,0,l),
(334,0,l),
(334,570,l)
);
}
);
width = 717;
}
);
unicode = 321;
},
{
glyphname = M;
layers = (
{
anchors = (
{
name = bottom;
pos = (503,0);
},
{
name = top;
pos = (523,650);
}
);
layerId = m01;
shapes = (
{
closed = 1;
nodes = (
(886,572,l),
(973,598,l),
(973,650,l),
(699,650,l),
(516,97,l),
(525,97,l),
(343,650,l),
(63,650,l),
(63,598,l),
(155,569,l),
(120,73,l),
(43,51,l),
(43,0,l),
(287,0,l),
(287,51,l),
(208,72,l),
(240,567,l),
(235,566,l),
(425,0,l),
(566,0,l),
(760,572,l),
(754,572,l),
(788,72,l),
(708,51,l),
(708,0,l),
(1003,0,l),
(1003,51,l),
(918,73,l)
);
}
);
width = 1042;
},
{
anchors = (
{
name = bottom;
pos = (517,0);
},
{
name = top;
pos = (549,650);
}
);
layerId = m002;
shapes = (
{
closed = 1;
nodes = (
(971,564,l),
(1054,592,l),
(1054,650,l),
(691,650,l),
(550,161,l),
(557,161,l),
(419,650,l),
(53,650,l),
(53,592,l),
(145,559,l),
(117,80,l),
(39,58,l),
(39,0,l),
(295,0,l),
(295,58,l),
(230,79,l),
(254,541,l),
(250,541,l),
(410,0,l),
(615,0,l),
(778,549,l),
(771,549,l),
(798,79,l),
(731,58,l),
(731,0,l),
(1080,0,l),
(1080,58,l),
(997,82,l)
);
}
);
width = 1115;
}
);
unicode = 77;
},
{
glyphname = N;
kernLeft = N;
kernRight = N;
layers = (
{
anchors = (
{
name = bottom;
pos = (426,0);
},
{
name = top;
pos = (424,650);
}
);
layerId = m01;
shapes = (
{
closed = 1;
nodes = (
(52,51,l),
(52,0,l),
(316,0,l),
(316,51,l),
(225,72,l),
(225,596,l),
(197,593,l),
(532,0,l),
(693,0,l),
(693,577,l),
(778,598,l),
(778,650,l),
(514,650,l),
(514,598,l),
(605,577,l),
(605,44,l),
(635,71,l),
(308,650,l),
(50,650,l),
(50,598,l),
(136,576,l),
(136,72,l)
);
}
);
width = 819;
},
{
anchors = (
{
name = bottom;
pos = (449,0);
},
{
name = top;
pos = (443,650);
}
);
layerId = m002;
shapes = (
{
closed = 1;
nodes = (
(49,58,l),
(49,0,l),
(324,0,l),
(324,58,l),
(241,79,l),
(241,596,l),
(193,585,l),
(512,0,l),
(739,0,l),
(739,571,l),
(820,592,l),
(820,650,l),
(544,650,l),
(544,592,l),
(627,571,l),
(627,81,l),
(654,137,l),
(371,650,l),
(43,650,l),
(43,592,l),
(129,565,l),
(129,79,l)
);
}
);
width = 857;
}
);
unicode = 78;
},
{
glyphname = Eng;
kernLeft = N;
kernRight = N;
layers = (
{
layerId = m01;
shapes = (
{
closed = 1;
nodes = (
(310,650,l),
(50,650,l),
(50,598,l),
(136,576,l),
(136,72,l),
(52,51,l),
(52,0,l),
(316,0,l),
(316,51,l),
(225,72,l),
(225,596,l),
(197,593,l),
(622,-38,l),
(625,177,l)
);
},
{
closed = 1;
nodes = (
(693,577,l),
(778,598,l),
(778,650,l),
(514,650,l),
(514,598,l),
(605,577,l),
(605,-36,ls),
(605,-106,o),
(578,-128,o),
(517,-128,cs),
(478,-128,o),
(438,-88,o),
(425,-88,cs),
(399,-88,o),
(380,-113,o),
(380,-141,cs),
(380,-182,o),
(412,-214,o),
(507,-214,cs),
(631,-214,o),
(693,-160,o),
(693,-36,cs)
);
}
);
width = 819;
},
{
layerId = m002;
shapes = (
{
closed = 1;
nodes = (
(372,650,l),
(43,650,l),
(43,592,l),
(129,565,l),
(129,79,l),
(49,58,l),
(49,0,l),
(324,0,l),
(324,58,l),
(241,79,l),
(241,596,l),
(193,585,l),
(652,-55,l),
(653,257,l)
);
},
{
closed = 1;
nodes = (
(739,571,l),
(820,592,l),
(820,650,l),
(544,650,l),
(544,592,l),
(627,571,l),
(627,-16,ls),
(627,-83,o),
(605,-104,o),
(546,-104,cs),
(502,-104,o),
(458,-56,o),
(441,-56,cs),
(411,-56,o),
(385,-85,o),
(385,-122,cs),
(385,-178,o),
(418,-214,o),
(527,-214,cs),
(674,-214,o),
(739,-152,o),
(739,-19,cs)
);
}
);
width = 857;
}
);
unicode = 330;
},
{
glyphname = O;
kernLeft = O;
kernRight = O;
layers = (
{
anchors = (
{
name = bottom;
pos = (394,0);
},
{
name = horn;
pos = (545,650);
},
{
name = right;
pos = (479,0);
},
{
name = top;
pos = (394,650);
}
);
layerId = m01;
shapes = (
{
closed = 1;
nodes = (
(184,660,o),
(52,525,o),
(52,324,cs),
(52,124,o),
(180,-10,o),
(391,-10,cs),
(604,-10,o),
(736,124,o),
(736,326,cs),
(736,526,o),
(607,660,o),
(396,660,cs)
);
},
{
closed = 1;
nodes = (
(255,79,o),
(185,174,o),
(185,343,cs),
(185,489,o),
(255,571,o),
(391,571,cs),
(533,571,o),
(603,476,o),
(603,307,cs),
(603,161,o),
(533,79,o),
(397,79,cs)
);
}
);
width = 788;
},
{
anchors = (
{
name = bottom;
pos = (404,0);
},
{
name = horn;
pos = (565,650);
},
{
name = right;
pos = (496,0);
},
{
name = top;
pos = (404,650);
}
);
layerId = m002;
shapes = (
{
closed = 1;
nodes = (
(186,662,o),
(47,535,o),
(47,324,cs),
(47,115,o),
(173,-12,o),
(395,-12,cs),
(623,-12,o),
(762,115,o),
(762,326,cs),
(762,535,o),
(636,662,o),
(414,662,cs)
);
},
{
closed = 1;
nodes = (
(293,106,o),
(244,184,o),
(244,350,cs),
(244,484,o),
(299,544,o),
(404,544,cs),
(517,544,o),
(565,466,o),
(565,300,cs),
(565,166,o),
(510,106,o),
(406,106,cs)
);
}
);
width = 809;
}
);
unicode = 79;
},
{
glyphname = Oslash;
kernLeft = O;
kernRight = O;
layers = (
{
anchors = (
{
name = bottom;
pos = (403,0);
},
{
name = top;
pos = (403,650);
}
);
layerId = m01;
shapes = (
{
closed = 1;
nodes = (
(168,120,l),
(58,0,l),
(152,0,l),
(219,73,l),
(248,103,l),
(605,499,l),
(638,530,l),
(747,650,l),
(653,650,l),
(586,576,l),
(558,547,l),
(200,150,l)
);
},
{
closed = 1;
nodes = (
(193,660,o),
(61,525,o),
(61,324,cs),
(61,124,o),
(189,-10,o),
(400,-10,cs),
(613,-10,o),
(744,124,o),
(744,326,cs),
(744,526,o),
(616,660,o),
(405,660,cs)
);
},
{
closed = 1;
nodes = (
(264,79,o),
(194,174,o),
(194,343,cs),
(194,489,o),
(264,571,o),
(400,571,cs),
(542,571,o),
(612,476,o),
(612,307,cs),
(612,161,o),
(542,79,o),
(406,79,cs)
);
}
);
width = 806;
},
{
anchors = (
{
name = bottom;
pos = (412,0);
},
{
name = top;
pos = (412,650);
}
);
layerId = m002;
shapes = (
{
closed = 1;
nodes = (
(169,130,l),
(46,0,l),
(163,0,l),
(233,74,l),
(279,113,l),
(607,479,l),
(656,520,l),
(779,650,l),
(662,650,l),
(592,576,l),
(546,536,l),
(218,171,l)
);
},
{
closed = 1;
nodes = (
(194,662,o),
(55,535,o),
(55,324,cs),
(55,115,o),
(181,-12,o),
(403,-12,cs),
(631,-12,o),
(770,115,o),
(770,326,cs),
(770,535,o),
(644,662,o),
(422,662,cs)
);
},
{
closed = 1;
nodes = (
(301,106,o),
(252,184,o),
(252,350,cs),
(252,484,o),
(307,544,o),
(412,544,cs),
(525,544,o),
(573,466,o),
(573,300,cs),
(573,166,o),
(518,106,o),
(414,106,cs)
);
}
);
width = 825;
}
);
unicode = 216;
},
{
glyphname = OE;
kernLeft = O;
kernRight = E;
layers = (
{
layerId = m01;
shapes = (
{
closed = 1;
nodes = (
(818,455,l),
(810,377,l),
(586,377,l),
(586,300,l),
(810,300,l),
(818,221,l),
(883,221,l),
(883,338,l),
(883,455,l)
);
},
{
closed = 1;
nodes = (
(526,0,l),
(655,0,l),
(655,650,l),
(526,650,l)
);
},
{
closed = 1;
nodes = (
(931,0,l),
(956,-36,l),
(1018,-36,l),
(1055,208,l),
(986,208,l),
(910,35,l),
(947,81,l),
(431,81,ls),
(260,81,o),
(187,156,o),
(187,317,cs),
(187,495,o),
(261,569,o),
(407,569,cs),
(960,569,l),
(917,615,l),
(960,470,l),
(1031,470,l),
(1031,684,l),
(977,684,l),
(936,650,l),
(402,650,ls),
(191,650,o),
(53,532,o),
(53,312,cs),
(53,109,o),
(170,0,o),
(398,0,cs)
);
}
);
width = 1095;
},
{
layerId = m002;
shapes = (
{
closed = 1;
nodes = (
(836,455,l),
(828,384,l),
(612,384,l),
(612,294,l),
(828,294,l),
(836,221,l),
(912,221,l),
(912,338,l),
(912,455,l)
);
},
{
closed = 1;
nodes = (
(513,0,l),
(708,0,l),
(708,650,l),
(513,650,l)
);
},
{
closed = 1;
nodes = (
(953,0,l),
(991,-42,l),
(1061,-42,l),
(1104,229,l),
(1018,229,l),
(924,39,l),
(976,102,l),
(429,102,ls),
(296,102,o),
(247,167,o),
(247,317,cs),
(247,481,o),
(297,548,o),
(407,548,cs),
(994,548,l),
(936,612,l),
(994,451,l),
(1078,451,l),
(1078,690,l),
(1017,690,l),
(966,650,l),
(396,650,ls),
(185,650,o),
(48,532,o),
(48,312,cs),
(48,109,o),
(164,0,o),
(392,0,cs)
);
}
);
width = 1140;
}
);
unicode = 338;
},
{
glyphname = P;
kernLeft = H;
layers = (
{
anchors = (
{
name = bottom;
pos = (201,0);
},
{
name = top;
pos = (358,650);
}
);
layerId = m01;
shapes = (
{
closed = 1;
nodes = (
(509,368,o),
(465,334,o),
(386,334,cs),
(194,334,l),
(176,251,l),
(401,251,ls),
(573,251,o),
(639,334,o),
(639,452,cs),
(639,573,o),
(572,650,o),
(385,650,cs),
(179,650,l),
(194,565,l),
(356,565,ls),
(476,565,o),
(509,528,o),
(509,451,cs)
);
},
{
closed = 1;
nodes = (
(49,650,l),
(49,598,l),
(137,577,l),
(137,73,l),
(49,51,l),
(49,0,l),
(354,0,l),
(354,51,l),
(266,73,l),
(266,650,l)
);
}
);
width = 674;
},
{
anchors = (
{
name = bottom;
pos = (225,0);
},
{
name = top;
pos = (381,650);
}
);
layerId = m002;
shapes = (
{
closed = 1;
nodes = (
(513,371,o),
(482,342,o),
(417,342,cs),
(258,342,l),
(200,234,l),
(454,234,ls),
(634,234,o),
(704,319,o),
(704,441,cs),
(704,571,o),
(628,650,o),
(437,650,cs),
(209,650,l),
(258,537,l),
(410,537,ls),
(490,537,o),
(513,505,o),
(513,440,cs)
);
},
{
closed = 1;
nodes = (
(46,650,l),
(46,592,l),
(128,570,l),
(128,80,l),
(46,58,l),
(46,0,l),
(405,0,l),
(405,58,l),
(323,80,l),
(323,650,l)
);
}
);
width = 734;
}
);
unicode = 80;
},
{
glyphname = Thorn;
kernLeft = H;
layers = (
{
layerId = m01;
shapes = (
{
closed = 1;
nodes = (
(509,244,o),
(465,210,o),
(386,210,cs),
(216,210,l),
(198,127,l),
(401,127,ls),
(573,127,o),
(639,210,o),
(639,328,cs),
(639,449,o),
(572,525,o),
(385,525,cs),
(201,525,l),
(216,441,l),
(356,441,ls),
(476,441,o),
(509,403,o),
(509,326,cs)
);
},
{
closed = 1;
nodes = (
(266,73,l),
(266,577,l),
(354,598,l),
(354,650,l),
(49,650,l),
(49,598,l),
(137,577,l),
(137,73,l),
(49,51,l),
(49,0,l),
(354,0,l),
(354,51,l)
);
}
);
width = 685;
},
{
layerId = m002;
shapes = (
{
closed = 1;
nodes = (
(513,257,o),
(482,228,o),
(417,228,cs),
(267,228,l),
(209,120,l),
(454,120,ls),
(634,120,o),
(704,205,o),
(704,327,cs),
(704,457,o),
(628,536,o),
(437,536,cs),
(219,536,l),
(267,423,l),
(410,423,ls),
(490,423,o),
(513,391,o),
(513,326,cs)
);
},
{
closed = 1;
nodes = (
(323,80,l),
(323,570,l),
(405,592,l),
(405,650,l),
(46,650,l),
(46,592,l),
(128,570,l),
(128,80,l),
(46,58,l),
(46,0,l),
(405,0,l),
(405,58,l)
);
}
);
width = 744;
}
);
unicode = 222;
},
{
glyphname = Q;
kernLeft = O;
kernRight = O;
layers = (
{
anchors = (
{
name = bottom;
pos = (397,-204);
},
{
name = top;
pos = (394,650);
}
);
layerId = m01;
shapes = (
{
closed = 1;
nodes = (
(415,-188,o),
(463,-214,o),
(556,-214,cs),
(608,-214,o),
(634,-210,o),
(668,-203,c),
(668,-138,l),
(580,-145,o),
(554,-137,o),
(471,-74,cs),
(300,59,l),
(277,38,l),
(525,-53,o),
(736,92,o),
(736,326,cs),
(736,526,o),
(607,660,o),
(396,660,cs),
(184,660,o),
(52,525,o),
(52,324,cs),
(52,213,o),
(92,129,o),
(161,61,cs),
(343,-116,ls)
);
},
{
closed = 1;
nodes = (
(255,81,o),
(185,175,o),
(185,343,cs),
(185,489,o),
(255,571,o),
(391,571,cs),
(533,571,o),
(603,476,o),
(603,307,cs),
(603,162,o),
(533,81,o),
(397,81,cs)
);
}
);
width = 788;
},
{
anchors = (
{
name = bottom;
pos = (413,-201);
},
{
name = top;
pos = (404,650);
}
);
layerId = m002;
shapes = (
{
closed = 1;
nodes = (
(386,-187,o),
(431,-214,o),
(552,-214,cs),
(619,-214,o),
(652,-208,o),
(691,-201,c),
(691,-118,l),
(594,-125,o),
(567,-117,o),
(487,-60,cs),
(318,61,l),
(327,25,l),
(574,-35,o),
(762,106,o),
(762,326,cs),
(762,535,o),
(636,662,o),
(414,662,cs),
(186,662,o),
(47,535,o),
(47,324,cs),
(47,210,o),
(84,129,o),
(148,62,cs),
(300,-96,ls)
);
},
{
closed = 1;
nodes = (
(293,110,o),
(244,187,o),
(244,350,cs),
(244,484,o),
(299,544,o),
(404,544,cs),
(517,544,o),
(565,466,o),
(565,300,cs),
(565,170,o),
(510,110,o),
(406,110,cs)
);
}
);
width = 809;
}
);
unicode = 81;
},
{
glyphname = R;
kernLeft = H;
kernRight = R;
layers = (
{
anchors = (
{
name = bottom;
pos = (401,0);
},
{
name = top;
pos = (366,650);
}
);
layerId = m01;
shapes = (
{
closed = 1;
nodes = (
(202,361,l),
(202,283,l),
(380,283,ls),
(455,283,o),
(471,264,o),
(484,194,cs),
(503,95,ls),
(519,7,o),
(545,-7,o),
(705,0,c),
(705,60,l),
(654,60,o),
(642,68,o),
(632,124,cs),
(612,222,ls),
(600,286,o),
(573,318,o),
(484,325,c),
(484,321,l),
(595,337,o),
(645,397,o),
(645,487,cs),
(645,586,o),
(588,650,o),
(420,650,cs),
(202,650,l),
(202,565,l),
(373,565,ls),
(486,565,o),
(516,533,o),
(516,463,cs),
(516,390,o),
(475,361,o),
(401,361,cs)
);
},
{
closed = 1;
nodes = (
(49,650,l),
(49,598,l),
(137,577,l),
(137,73,l),
(49,51,l),
(49,0,l),
(351,0,l),
(351,51,l),
(266,73,l),
(266,650,l)
);
}
);
width = 737;
},
{
anchors = (
{
name = bottom;
pos = (435,0);
},
{
name = top;
pos = (404,650);
}
);
layerId = m002;
shapes = (
{
closed = 1;
nodes = (
(220,360,l),
(220,271,l),
(398,271,ls),
(469,271,o),
(484,256,o),
(494,192,cs),
(510,92,ls),
(524,4,o),
(562,-15,o),
(773,0,c),
(773,75,l),
(722,75,o),
(711,82,o),
(703,136,cs),
(692,201,ls),
(681,276,o),
(654,309,o),
(528,317,c),
(528,315,l),
(663,327,o),
(725,394,o),
(725,487,cs),
(725,586,o),
(668,650,o),
(501,650,cs),
(220,650,l),
(220,537,l),
(441,537,ls),
(515,537,o),
(536,509,o),
(536,449,cs),
(536,386,o),
(507,360,o),
(447,360,cs)
);
},
{
closed = 1;
nodes = (
(46,650,l),
(46,592,l),
(128,570,l),
(128,80,l),
(46,58,l),
(46,0,l),
(396,0,l),
(396,58,l),
(323,80,l),
(323,650,l)
);
}
);
width = 803;
}
);
unicode = 82;
},
{
glyphname = S;
kernLeft = S;
kernRight = S;
layers = (
{
anchors = (
{
name = bottom;
pos = (315,0);
},
{
name = top;
pos = (304,650);
}
);
layerId = m01;
shapes = (
{
closed = 1;
nodes = (
(450,649,o),
(397,660,o),
(329,660,cs),
(160,660,o),
(65,598,o),
(65,475,cs),
(65,337,o),
(162,306,o),
(256,287,cs),
(351,268,o),
(446,260,o),
(446,173,cs),
(446,98,o),
(395,70,o),
(272,70,cs),
(204,70,o),
(161,79,o),
(106,104,c),
(216,18,l),
(129,204,l),
(57,204,l),
(82,13,l),
(144,-7,o),
(201,-10,o),
(277,-10,cs),
(462,-10,o),
(568,50,o),
(568,193,cs),
(568,348,o),
(453,373,o),
(358,390,cs),
(263,407,o),
(186,418,o),
(186,495,cs),
(186,560,o),
(239,582,o),
(327,582,cs),
(380,582,o),
(422,572,o),
(461,547,c),
(427,584,l),
(468,454,l),
(543,454,l),
(543,684,l),
(485,684,l),
(442,628,l),
(510,621,l)
);
}
);
width = 625;
},
{
anchors = (
{
name = bottom;
pos = (337,0);
},
{
name = top;
pos = (322,650);
}
);
layerId = m002;
shapes = (
{
closed = 1;
nodes = (
(483,652,o),
(427,662,o),
(355,662,cs),
(166,662,o),
(55,594,o),
(55,457,cs),
(55,310,o),
(151,278,o),
(248,263,cs),
(345,248,o),
(444,250,o),
(444,172,cs),
(444,114,o),
(405,89,o),
(277,89,cs),
(207,89,o),
(162,96,o),
(104,122,c),
(242,16,l),
(133,203,l),
(58,203,l),
(78,11,l),
(147,-10,o),
(209,-12,o),
(293,-12,cs),
(509,-12,o),
(620,58,o),
(620,208,cs),
(620,366,o),
(504,395,o),
(407,410,cs),
(309,425,o),
(229,430,o),
(229,496,cs),
(229,548,o),
(274,562,o),
(357,562,cs),
(421,562,o),
(468,552,o),
(503,529,c),
(460,579,l),
(510,459,l),
(593,459,l),
(593,690,l),
(526,690,l),
(476,624,l),
(548,624,l)
);
}
);
width = 670;
}
);
unicode = 83;
},
{
glyphname = T;
kernLeft = T;
kernRight = T;
layers = (
{
anchors = (
{
name = bottom;
pos = (365,0);
},
{
name = top;
pos = (365,650);
}
);
layerId = m01;
shapes = (
{
closed = 1;
nodes = (
(300,73,l),
(205,51,l),
(205,0,l),
(524,0,l),
(524,51,l),
(430,73,l),
(430,621,l),
(300,621,l)
);
},
{
closed = 1;
nodes = (
(567,593,l),
(629,428,l),
(703,428,l),
(668,692,l),
(613,692,l),
(573,637,l),
(634,650,l),
(95,650,l),
(157,637,l),
(116,692,l),
(61,692,l),
(27,428,l),
(100,428,l),
(162,593,l),
(130,565,l),
(600,565,l)
);
}
);
width = 730;
},
{
anchors = (
{
name = bottom;
pos = (384,0);
},
{
name = top;
pos = (384,650);
}
);
layerId = m002;
shapes = (
{
closed = 1;
nodes = (
(287,80,l),
(202,58,l),
(202,0,l),
(567,0,l),
(567,58,l),
(482,80,l),
(482,623,l),
(287,623,l)
);
},
{
closed = 1;
nodes = (
(587,587,l),
(661,409,l),
(746,409,l),
(712,694,l),
(649,694,l),
(600,631,l),
(669,650,l),
(99,650,l),
(169,631,l),
(120,694,l),
(57,694,l),
(23,409,l),
(108,409,l),
(182,587,l),
(134,537,l),
(635,537,l)
);
}
);
width = 769;
}
);
unicode = 84;
},
{
glyphname = U;
kernLeft = U;
kernRight = U;
layers = (
{
anchors = (
{
name = bottom;
pos = (407,0);
},
{
name = horn;
pos = (706,650);
},
{
name = right;
pos = (495,0);
},
{
name = top;
pos = (420,650);
}
);
layerId = m01;
shapes = (
{
closed = 1;
nodes = (
(594,132,o),
(537,88,o),
(424,88,cs),
(306,88,o),
(247,135,o),
(247,244,cs),
(247,577,l),
(335,598,l),
(335,650,l),
(30,650,l),
(30,598,l),
(118,577,l),
(118,240,ls),
(118,67,o),
(215,-10,o),
(410,-10,cs),
(585,-10,o),
(683,74,o),
(683,242,cs),
(683,577,l),
(770,598,l),
(770,650,l),
(506,650,l),
(506,598,l),
(594,577,l),
(594,241,ls)
);
}
);
width = 800;
},
{
anchors = (
{
name = bottom;
pos = (433,0);
},
{
name = horn;
pos = (715,650);
},
{
name = right;
pos = (527,0);
},
{
name = top;
pos = (447,650);
}
);
layerId = m002;
shapes = (
{
closed = 1;
nodes = (
(606,168,o),
(559,126,o),
(456,126,cs),
(353,126,o),
(302,165,o),
(302,253,cs),
(302,571,l),
(384,592,l),
(384,650,l),
(25,650,l),
(25,592,l),
(107,571,l),
(107,242,ls),
(107,63,o),
(211,-12,o),
(423,-12,cs),
(616,-12,o),
(718,72,o),
(718,256,cs),
(718,571,l),
(800,592,l),
(800,650,l),
(524,650,l),
(524,592,l),
(606,571,l),
(606,263,ls)
);
}
);
width = 824;
}
);
unicode = 85;
},
{
glyphname = V;
layers = (
{
anchors = (
{
name = bottom;
pos = (396,0);
},
{
name = top;
pos = (410,650);
}
);
layerId = m01;
shapes = (
{
closed = 1;
nodes = (
(320,-7,l),
(475,-7,l),
(686,579,l),
(764,598,l),
(764,650,l),
(509,650,l),
(509,598,l),
(592,578,l),
(413,48,l),
(434,48,l),
(229,579,l),
(312,598,l),
(312,650,l),
(1,650,l),
(1,598,l),
(87,577,l)
);
}
);
width = 774;
},
{
anchors = (
{
name = bottom;
pos = (428,0);
},
{
name = top;
pos = (452,650);
}
);
layerId = m002;
shapes = (
{
closed = 1;
nodes = (
(310,-3,l),
(543,-3,l),
(749,575,l),
(826,592,l),
(826,650,l),
(551,650,l),
(551,592,l),
(628,573,l),
(462,75,l),
(480,75,l),
(295,575,l),
(373,592,l),
(373,650,l),
(2,650,l),
(2,592,l),
(87,569,l)
);
}
);
width = 835;
}
);
unicode = 86;
},
{
glyphname = W;
kernLeft = W;
kernRight = W;
layers = (
{
anchors = (
{
name = bottom;
pos = (546,0);
},
{
name = top;
pos = (552,650);
}
);
layerId = m01;
shapes = (
{
closed = 1;
nodes = (
(532,540,l),
(694,0,l),
(853,0,l),
(977,579,l),
(1054,598,l),
(1054,650,l),
(806,650,l),
(806,598,l),
(886,578,l),
(784,34,l),
(819,38,l),
(632,650,l),
(489,650,l),
(312,49,l),
(337,51,l),
(235,579,l),
(316,598,l),
(316,650,l),
(9,650,l),
(9,598,l),
(94,577,l),
(214,0,l),
(381,0,l),
(548,540,l)
);
}
);
width = 1066;
},
{
anchors = (
{
name = bottom;
pos = (585,0);
},
{
name = top;
pos = (617,650);
}
);
layerId = m002;
shapes = (
{
closed = 1;
nodes = (
(567,504,l),
(713,0,l),
(937,0,l),
(1058,576,l),
(1135,592,l),
(1135,650,l),
(870,650,l),
(870,592,l),
(938,574,l),
(851,44,l),
(899,56,l),
(717,650,l),
(524,650,l),
(355,57,l),
(396,63,l),
(301,576,l),
(370,592,l),
(370,650,l),
(8,650,l),
(8,592,l),
(93,570,l),
(215,0,l),
(450,0,l),
(604,504,l)
);
}
);
width = 1147;
}
);
unicode = 87;
},
{
glyphname = X;
layers = (
{
anchors = (
{
name = bottom;
pos = (394,0);
},
{
name = top;
pos = (405,650);
}
);
layerId = m01;
shapes = (
{
closed = 1;
nodes = (
(454,313,l),
(677,577,l),
(752,598,l),
(752,650,l),
(499,650,l),
(499,598,l),
(573,578,l),
(408,374,l),
(345,359,l),
(99,73,l),
(25,51,l),
(25,0,l),
(282,0,l),
(282,51,l),
(206,72,l),
(397,301,l)
);
},
{
closed = 1;
nodes = (
(453,51,l),
(453,0,l),
(787,0,l),
(787,51,l),
(711,73,l),
(460,371,l),
(447,387,l),
(289,577,l),
(370,598,l),
(370,650,l),
(36,650,l),
(36,598,l),
(112,576,l),
(334,313,l),
(349,295,l),
(534,73,l)
);
}
);
width = 801;
},
{
anchors = (
{
name = bottom;
pos = (428,0);
},
{
name = top;
pos = (433,650);
}
);
layerId = m002;
shapes = (
{
closed = 1;
nodes = (
(532,287,l),
(743,570,l),
(812,592,l),
(812,650,l),
(544,650,l),
(544,592,l),
(608,573,l),
(469,373,l),
(320,372,l),
(93,80,l),
(24,58,l),
(24,0,l),
(308,0,l),
(308,58,l),
(237,77,l),
(395,290,l)
);
},
{
closed = 1;
nodes = (
(446,58,l),
(446,0,l),
(850,0,l),
(850,58,l),
(774,82,l),
(535,367,l),
(513,394,l),
(366,570,l),
(437,592,l),
(437,650,l),
(32,650,l),
(32,592,l),
(109,568,l),
(316,321,l),
(337,295,l),
(516,80,l)
);
}
);
width = 858;
}
);
unicode = 88;
},
{
glyphname = Y;
kernLeft = Y;
kernRight = Y;
layers = (
{
anchors = (
{
name = bottom;
pos = (381,0);
},
{
name = top;
pos = (390,650);
}
);
layerId = m01;
shapes = (
{
closed = 1;
nodes = (
(317,269,l),
(317,73,l),
(229,51,l),
(229,0,l),
(534,0,l),
(534,51,l),
(446,73,l),
(446,273,l),
(661,578,l),
(728,598,l),
(728,650,l),
(480,650,l),
(480,598,l),
(564,578,l),
(394,331,l),
(424,332,l),
(241,578,l),
(322,598,l),
(322,650,l),
(4,650,l),
(4,598,l),
(79,578,l)
);
}
);
width = 743;
},
{
anchors = (
{
name = bottom;
pos = (407,0);
},
{
name = top;
pos = (438,650);
}
);
layerId = m002;
shapes = (
{
closed = 1;
nodes = (
(309,273,l),
(309,80,l),
(227,58,l),
(227,0,l),
(586,0,l),
(586,58,l),
(505,80,l),
(505,275,l),
(715,573,l),
(779,592,l),
(779,650,l),
(520,650,l),
(520,592,l),
(590,573,l),
(426,334,l),
(488,336,l),
(312,573,l),
(381,592,l),
(381,650,l),
(3,650,l),
(3,592,l),
(75,573,l)
);
}
);
width = 794;
}
);
unicode = 89;
},
{
glyphname = Z;
kernLeft = Z;
kernRight = Z;
layers = (
{
anchors = (
{
name = bottom;
pos = (317,0);
},
{
name = top;
pos = (341,650);
}
);
layerId = m01;
shapes = (
{
closed = 1;
nodes = (
(154,650,l),
(114,684,l),
(61,684,l),
(61,448,l),
(128,448,l),
(160,565,l),
(503,565,l),
(449,588,l),
(58,75,l),
(58,0,l),
(499,0,l),
(523,-36,l),
(584,-36,l),
(622,214,l),
(557,214,l),
(495,84,l),
(150,84,l),
(198,61,l),
(589,575,l),
(589,650,l)
);
}
);
width = 661;
},
{
anchors = (
{
name = bottom;
pos = (335,0);
},
{
name = top;
pos = (374,650);
}
);
layerId = m002;
shapes = (
{
closed = 1;
nodes = (
(168,650,l),
(117,688,l),
(59,688,l),
(59,419,l),
(130,419,l),
(174,537,l),
(550,537,l),
(439,588,l),
(60,104,l),
(60,0,l),
(532,0,l),
(567,-43,l),
(634,-43,l),
(679,248,l),
(608,248,l),
(526,113,l),
(163,113,l),
(256,61,l),
(637,546,l),
(637,650,l)
);
}
);
width = 712;
}
);
unicode = 90;
},
{
glyphname = a;
kernLeft = a;
kernRight = a;
layers = (
{
anchors = (
{
name = bottom;
pos = (279,0);
},
{
name = right;
pos = (559,0);
},
{
name = top;
pos = (269,472);
}
);
layerId = m01;
shapes = (
{
closed = 1;
nodes = (
(103,264,o),
(50,213,o),
(50,119,cs),
(50,35,o),
(103,-10,o),
(199,-10,cs),
(288,-10,o),
(341,38,o),
(356,128,c),
(352,126,l),
(356,32,o),
(390,-8,o),
(453,-8,cs),
(489,-8,o),
(528,6,o),
(559,32,c),
(559,78,l),
(542,75,o),
(528,73,o),
(515,73,cs),
(483,73,o),
(466,85,o),
(466,120,cs),
(466,334,ls),
(466,426,o),
(420,482,o),
(290,482,cs),
(146,482,o),
(50,410,o),
(50,365,cs),
(50,344,o),
(70,327,o),
(110,327,cs),
(140,327,o),
(158,331,o),
(168,356,cs),
(179,381,o),
(186,404,o),
(195,442,c),
(162,407,l),
(186,412,o),
(214,416,o),
(252,416,cs),
(326,416,o),
(350,386,o),
(350,319,cs),
(350,150,ls),
(350,107,o),
(307,76,o),
(249,76,cs),
(196,76,o),
(172,97,o),
(172,140,cs),
(172,192,o),
(198,216,o),
(386,239,c),
(403,302,l)
);
}
);
width = 565;
},
{
anchors = (
{
name = bottom;
pos = (302,0);
},
{
name = right;
pos = (597,0);
},
{
name = top;
pos = (292,476);
}
);
layerId = m002;
shapes = (
{
closed = 1;
nodes = (
(89,263,o),
(40,214,o),
(40,121,cs),
(40,32,o),
(95,-12,o),
(195,-12,cs),
(286,-12,o),
(333,28,o),
(357,135,c),
(351,130,l),
(357,29,o),
(396,-11,o),
(470,-11,cs),
(516,-11,o),
(560,4,o),
(597,27,c),
(597,84,l),
(581,81,o),
(569,80,o),
(559,80,cs),
(532,80,o),
(519,89,o),
(519,119,cs),
(519,325,ls),
(519,428,o),
(467,489,o),
(321,489,cs),
(153,489,o),
(46,412,o),
(46,362,cs),
(46,338,o),
(66,321,o),
(111,321,cs),
(154,321,o),
(175,327,o),
(186,355,cs),
(196,383,o),
(204,410,o),
(213,447,c),
(184,409,l),
(202,413,o),
(223,415,o),
(259,415,cs),
(323,415,o),
(346,387,o),
(346,326,cs),
(346,153,ls),
(346,121,o),
(316,99,o),
(270,99,cs),
(224,99,o),
(210,114,o),
(210,154,cs),
(210,200,o),
(230,218,o),
(370,232,c),
(378,299,l)
);
}
);
width = 604;
}
);
unicode = 97;
},
{
glyphname = ae;
kernLeft = a;
kernRight = e;
layers = (
{
anchors = (
{
name = bottom;
pos = (421,0);
},
{
name = top;
pos = (421,472);
}
);
layerId = m01;
shapes = (
{
closed = 1;
nodes = (
(326,416,o),
(350,386,o),
(350,319,cs),
(350,164,ls),
(350,107,o),
(307,76,o),
(249,76,cs),
(196,76,o),
(172,97,o),
(172,140,cs),
(172,192,o),
(198,216,o),
(386,239,c),
(403,302,l),
(103,264,o),
(50,213,o),
(50,119,cs),
(50,35,o),
(103,-10,o),
(199,-10,cs),
(291,-10,o),
(362,38,o),
(370,148,c),
(353,143,l),
(383,43,o),
(470,-10,o),
(596,-10,cs),
(652,-10,o),
(725,15,o),
(795,61,c),
(795,113,l),
(751,98,o),
(700,82,o),
(639,82,cs),
(517,82,o),
(465,131,o),
(465,260,cs),
(465,368,o),
(507,410,o),
(583,410,cs),
(648,410,o),
(685,377,o),
(686,272,c),
(724,287,l),
(441,287,l),
(443,223,l),
(801,223,l),
(798,395,o),
(740,482,o),
(588,482,cs),
(499,482,o),
(435,441,o),
(396,374,c),
(463,374,l),
(448,438,o),
(398,482,o),
(290,482,cs),
(146,482,o),
(50,410,o),
(50,365,cs),
(50,344,o),
(70,327,o),
(110,327,cs),
(140,327,o),
(158,331,o),
(168,356,cs),
(179,381,o),
(186,404,o),
(195,442,c),
(162,407,l),
(186,412,o),
(214,416,o),
(252,416,cs)
);
}
);
width = 846;
},
{
anchors = (
{
name = bottom;
pos = (439,0);
},
{
name = top;
pos = (439,476);
}
);
layerId = m002;
shapes = (
{
closed = 1;
nodes = (
(323,415,o),
(346,387,o),
(346,326,cs),
(346,159,ls),
(346,121,o),
(316,99,o),
(270,99,cs),
(224,99,o),
(210,114,o),
(210,154,cs),
(210,200,o),
(230,218,o),
(370,232,c),
(378,299,l),
(89,263,o),
(40,214,o),
(40,121,cs),
(40,32,o),
(95,-12,o),
(195,-12,cs),
(290,-12,o),
(354,27,o),
(369,156,c),
(349,154,l),
(368,44,o),
(463,-12,o),
(613,-12,cs),
(670,-12,o),
(739,12,o),
(830,70,c),
(830,129,l),
(782,117,o),
(732,108,o),
(669,108,cs),
(554,108,o),
(513,147,o),
(513,272,cs),
(513,368,o),
(540,399,o),
(599,399,cs),
(654,399,o),
(681,375,o),
(679,265,c),
(743,292,l),
(473,292,l),
(474,222,l),
(842,222,l),
(836,410,o),
(768,489,o),
(608,489,cs),
(516,489,o),
(457,444,o),
(421,383,c),
(521,383,l),
(500,437,o),
(440,489,o),
(321,489,cs),
(153,489,o),
(46,412,o),
(46,362,cs),
(46,338,o),
(66,321,o),
(111,321,cs),
(154,321,o),
(175,327,o),
(186,355,cs),
(196,383,o),
(204,410,o),
(213,447,c),
(184,409,l),
(202,413,o),
(223,415,o),
(259,415,cs)
);
}
);
width = 880;
}
);
unicode = 230;
},
{
glyphname = b;
kernRight = b;
layers = (
{
anchors = (
{
name = bottom;
pos = (306,0);
},
{
name = top;
pos = (326,650);
}
);
layerId = m01;
shapes = (
{
closed = 1;
nodes = (
(206,23,o),
(263,-11,o),
(348,-11,cs),
(484,-11,o),
(576,85,o),
(576,255,cs),
(576,396,o),
(499,482,o),
(362,482,cs),
(326,482,o),
(279,468,o),
(163,405,c),
(163,360,l),
(209,380,o),
(261,392,o),
(310,392,cs),
(407,392,o),
(455,344,o),
(455,243,cs),
(455,123,o),
(403,66,o),
(319,66,cs),
(241,66,o),
(202,102,o),
(202,187,cs),
(202,580,l),
(212,683,l),
(185,683,l),
(-12,648,l),
(-12,607,l),
(24,592,o),
(73,572,o),
(85,567,c),
(85,136,l),
(55,0,l),
(140,0,l),
(206,112,l),
(180,112,l)
);
}
);
width = 622;
},
{
anchors = (
{
name = bottom;
pos = (315,0);
},
{
name = top;
pos = (337,650);
}
);
layerId = m002;
shapes = (
{
closed = 1;
nodes = (
(255,16,o),
(313,-13,o),
(390,-13,cs),
(520,-13,o),
(611,76,o),
(611,257,cs),
(611,400,o),
(539,489,o),
(403,489,cs),
(367,489,o),
(336,479,o),
(217,401,c),
(217,362,l),
(251,373,o),
(291,378,o),
(323,378,cs),
(403,378,o),
(438,340,o),
(438,243,cs),
(438,131,o),
(400,91,o),
(338,91,cs),
(278,91,o),
(252,118,o),
(252,198,cs),
(252,562,l),
(263,685,l),
(220,685,l),
(-12,644,l),
(-12,592,l),
(24,572,o),
(66,549,o),
(78,542,c),
(78,133,l),
(50,0,l),
(186,0,l),
(255,122,l),
(237,122,l)
);
}
);
width = 652;
}
);
unicode = 98;
},
{
glyphname = c;
kernLeft = o;
kernRight = c;
layers = (
{
anchors = (
{
name = bottom;
pos = (272,0);
},
{
name = right;
pos = (474,0);
},
{
name = top;
pos = (281,472);
}
);
layerId = m01;
shapes = (
{
closed = 1;
nodes = (
(148,482,o),
(44,389,o),
(44,229,cs),
(44,74,o),
(137,-10,o),
(280,-10,cs),
(334,-10,o),
(401,14,o),
(472,61,c),
(472,115,l),
(418,94,o),
(368,84,o),
(318,84,cs),
(209,84,o),
(156,138,o),
(156,260,cs),
(156,366,o),
(206,414,o),
(288,414,cs),
(319,414,o),
(404,328,o),
(419,328,cs),
(455,328,o),
(484,359,o),
(484,397,cs),
(484,438,o),
(447,482,o),
(324,482,cs)
);
}
);
width = 517;
},
{
anchors = (
{
name = bottom;
pos = (292,0);
},
{
name = right;
pos = (513,0);
},
{
name = top;
pos = (291,476);
}
);
layerId = m002;
shapes = (
{
closed = 1;
nodes = (
(139,489,o),
(39,383,o),
(39,231,cs),
(39,72,o),
(133,-12,o),
(294,-12,cs),
(347,-12,o),
(409,9,o),
(506,70,c),
(506,135,l),
(454,121,o),
(405,112,o),
(347,112,cs),
(239,112,o),
(199,153,o),
(199,276,cs),
(199,380,o),
(235,414,o),
(299,414,cs),
(329,414,o),
(421,309,o),
(443,309,cs),
(477,309,o),
(518,341,o),
(518,388,cs),
(518,443,o),
(471,489,o),
(330,489,cs)
);
}
);
width = 600;
}
);
unicode = 99;
},
{
color = 4;
glyphname = ccedilla;
kernLeft = kernLC_o2;
kernRight = kernLC_c1;
layers = (
{
layerId = m01;
shapes = (
{
ref = c;
},
{
pos = (272,0);
ref = cedillacomb;
}
);
width = 517;
},
{
layerId = m002;
shapes = (
{
ref = c;
},
{
pos = (292,0);
ref = cedillacomb;
}
);
width = 600;
},
{
associatedMasterId = m01;
layerId = "C4A4E73E-2EAF-4BF8-A17A-363554F041EA";
name = "Dec 21, 21, 22:18";
shapes = (
{
closed = 1;
nodes = (
(340,-10,o),
(403,37,o),
(434,95,c),
(434,105,l),
(431,105,l),
(381,78,o),
(339,65,o),
(302,65,cs),
(171,65,o),
(129,155,o),
(129,251,cs),
(129,355,o),
(174,416,o),
(247,416,cs),
(291,416,o),
(320,398,o),
(340,371,cs),
(374,325,l),
(381,325,l),
(419,357,ls),
(429,365,o),
(432,371,o),
(432,381,cs),
(432,389,o),
(427,398,o),
(416,411,cs),
(390,440,o),
(334,460,o),
(280,460,cs),
(150,460,o),
(50,354,o),
(50,205,cs),
(50,75,o),
(130,-10,o),
(259,-10,cs)
);
},
{
closed = 1;
nodes = (
(216,-210,o),
(198,-206,o),
(180,-198,c),
(177,-198,l),
(177,-210,l),
(195,-231,o),
(223,-240,o),
(260,-240,c),
(323,-240,o),
(357,-203,o),
(357,-155,cs),
(357,-98,o),
(325,-75,o),
(234,-49,c),
(247,-69,l),
(288,20,l),
(253,20,l),
(196,-103,l),
(275,-128,o),
(297,-142,o),
(297,-171,cs),
(297,-192,o),
(283,-210,o),
(243,-210,cs)
);
}
);
width = 479;
},
{
associatedMasterId = m002;
layerId = "1A27C41C-6FAC-4A10-8B52-5538170654D1";
name = "Dec 21, 21, 22:18";
shapes = (
{
closed = 1;
nodes = (
(350,-10,o),
(425,47,o),
(458,124,c),
(458,145,l),
(455,145,l),
(413,124,o),
(370,119,o),
(331,119,cs),
(243,119,o),
(202,176,o),
(202,257,cs),
(202,356,o),
(225,426,o),
(279,426,cs),
(317,426,o),
(325,402,o),
(351,367,cs),
(384,322,l),
(391,322,l),
(444,367,ls),
(454,376,o),
(456,381,o),
(456,391,cs),
(456,399,o),
(452,408,o),
(441,421,cs),
(414,451,o),
(362,470,o),
(295,470,cs),
(131,470,o),
(30,362,o),
(30,209,cs),
(30,77,o),
(122,-10,o),
(251,-10,cs)
);
},
{
closed = 1;
nodes = (
(231,-208,o),
(209,-205,o),
(194,-197,c),
(190,-197,l),
(190,-220,l),
(211,-233,o),
(236,-240,o),
(270,-240,cs),
(335,-240,o),
(380,-200,o),
(380,-143,cs),
(380,-85,o),
(348,-51,o),
(248,-27,c),
(265,-61,l),
(305,27,l),
(265,27,l),
(206,-103,l),
(285,-122,o),
(303,-142,o),
(303,-170,cs),
(303,-196,o),
(281,-208,o),
(247,-208,cs)
);
}
);
visible = 1;
width = 488;
}
);
unicode = 231;
},
{
glyphname = d;
kernLeft = d;
kernRight = d;
layers = (
{
anchors = (
{
name = bottom;
pos = (325,0);
},
{
name = center;
pos = (448,541);
},
{
name = right;
pos = (536,668);
},
{
name = top;
pos = (300,668);
}
);
layerId = m01;
shapes = (
{
closed = 1;
nodes = (
(419,91,l),
(456,-10,l),
(476,-10,l),
(619,48,l),
(619,72,l),
(599,82,o),
(547,111,o),
(536,117,c),
(536,580,l),
(545,683,l),
(519,683,l),
(322,648,l),
(322,607,l),
(348,597,o),
(408,575,o),
(419,571,c),
(419,416,l),
(489,433,l),
(428,470,o),
(382,482,o),
(314,482,cs),
(160,482,o),
(45,381,o),
(45,218,cs),
(45,77,o),
(116,-10,o),
(255,-10,cs),
(292,-10,o),
(324,0,o),
(458,97,c),
(458,117,l),
(409,93,o),
(360,81,o),
(311,81,cs),
(215,81,o),
(167,128,o),
(167,237,cs),
(167,349,o),
(217,409,o),
(311,409,cs),
(391,409,o),
(419,372,o),
(419,306,cs)
);
}
);
width = 638;
},
{
anchors = (
{
name = bottom;
pos = (343,0);
},
{
name = center;
pos = (468,549);
},
{
name = right;
pos = (573,658);
},
{
name = top;
pos = (314,658);
}
);
layerId = m002;
shapes = (
{
closed = 1;
nodes = (
(399,91,l),
(442,-12,l),
(467,-12,l),
(652,47,l),
(652,80,l),
(633,93,o),
(584,126,o),
(573,133,c),
(573,562,l),
(584,685,l),
(540,685,l),
(309,644,l),
(309,592,l),
(335,582,o),
(388,561,o),
(399,557,c),
(399,432,l),
(506,440,l),
(440,477,o),
(394,489,o),
(322,489,cs),
(162,489,o),
(40,387,o),
(40,220,cs),
(40,76,o),
(109,-12,o),
(246,-12,cs),
(282,-12,o),
(306,-5,o),
(434,89,c),
(434,116,l),
(398,104,o),
(359,98,o),
(328,98,cs),
(247,98,o),
(212,136,o),
(212,239,cs),
(212,350,o),
(252,392,o),
(323,392,cs),
(379,392,o),
(399,365,o),
(399,303,cs)
);
}
);
width = 667;
}
);
unicode = 100;
},
{
glyphname = dcroat;
kernLeft = d;
kernRight = d;
layers = (
{
layerId = m01;
shapes = (
{
closed = 1;
nodes = (
(419,91,l),
(456,-10,l),
(476,-10,l),
(619,48,l),
(619,72,l),
(599,82,o),
(547,111,o),
(536,117,c),
(536,580,l),
(545,683,l),
(519,683,l),
(347,654,l),
(347,613,l),
(366,607,o),
(411,596,o),
(419,592,c),
(419,416,l),
(489,433,l),
(428,470,o),
(382,482,o),
(314,482,cs),
(160,482,o),
(45,381,o),
(45,218,cs),
(45,77,o),
(116,-10,o),
(255,-10,cs),
(292,-10,o),
(324,0,o),
(458,97,c),
(458,117,l),
(409,93,o),
(360,81,o),
(311,81,cs),
(215,81,o),
(167,128,o),
(167,237,cs),
(167,349,o),
(217,409,o),
(311,409,cs),
(391,409,o),
(419,372,o),
(419,306,cs)
);
},
{
closed = 1;
nodes = (
(617,513,l),
(617,569,l),
(277,569,l),
(277,513,l)
);
}
);
width = 638;
},
{
layerId = m002;
shapes = (
{
closed = 1;
nodes = (
(399,91,l),
(442,-12,l),
(467,-12,l),
(652,47,l),
(652,80,l),
(633,93,o),
(584,126,o),
(573,133,c),
(573,562,l),
(584,685,l),
(540,685,l),
(357,665,l),
(357,613,l),
(369,605,o),
(392,594,o),
(399,588,c),
(399,432,l),
(506,440,l),
(440,477,o),
(394,489,o),
(322,489,cs),
(162,489,o),
(40,387,o),
(40,220,cs),
(40,76,o),
(109,-12,o),
(246,-12,cs),
(282,-12,o),
(306,-5,o),
(434,89,c),
(434,116,l),
(398,104,o),
(359,98,o),
(328,98,cs),
(247,98,o),
(212,136,o),
(212,239,cs),
(212,350,o),
(252,392,o),
(323,392,cs),
(379,392,o),
(399,365,o),
(399,303,cs)
);
},
{
closed = 1;
nodes = (
(645,520,l),
(645,578,l),
(283,578,l),
(283,520,l)
);
}
);
width = 667;
}
);
unicode = 273;
},
{
glyphname = eth;
layers = (
{
layerId = m01;
shapes = (
{
closed = 1;
nodes = (
(449,-10,o),
(548,74,o),
(548,257,cs),
(548,475,o),
(469,595,o),
(148,683,c),
(125,621,l),
(336,555,o),
(430,471,o),
(432,320,c),
(439,318,l),
(422,403,o),
(367,461,o),
(271,461,cs),
(137,461,o),
(45,373,o),
(45,227,cs),
(45,82,o),
(136,-10,o),
(291,-10,cs)
);
},
{
closed = 1;
nodes = (
(202,68,o),
(162,123,o),
(162,237,cs),
(162,341,o),
(209,387,o),
(301,387,cs),
(390,387,o),
(430,332,o),
(430,217,cs),
(430,114,o),
(383,68,o),
(291,68,cs)
);
},
{
closed = 1;
nodes = (
(451,639,l),
(421,683,l),
(162,516,l),
(191,473,l)
);
}
);
width = 602;
},
{
layerId = m002;
shapes = (
{
closed = 1;
nodes = (
(469,-12,o),
(575,64,o),
(575,268,cs),
(575,457,o),
(519,599,o),
(145,685,c),
(114,605,l),
(346,534,o),
(409,470,o),
(410,317,c),
(417,316,l),
(409,392,o),
(358,453,o),
(266,453,cs),
(125,453,o),
(39,375,o),
(39,224,cs),
(39,76,o),
(135,-12,o),
(300,-12,cs)
);
},
{
closed = 1;
nodes = (
(237,88,o),
(210,131,o),
(210,235,cs),
(210,329,o),
(241,365,o),
(311,365,cs),
(377,365,o),
(404,322,o),
(404,218,cs),
(404,124,o),
(374,88,o),
(304,88,cs)
);
},
{
closed = 1;
nodes = (
(466,636,l),
(436,685,l),
(149,516,l),
(178,468,l)
);
}
);
width = 624;
}
);
unicode = 240;
},
{
glyphname = e;
kernLeft = o;
kernRight = e;
layers = (
{
anchors = (
{
name = bottom;
pos = (289,0);
},
{
name = right;
pos = (487,0);
},
{
name = top;
pos = (275,472);
}
);
layerId = m01;
shapes = (
{
closed = 1;
nodes = (
(135,482,o),
(45,384,o),
(45,229,cs),
(45,74,o),
(137,-10,o),
(288,-10,cs),
(344,-10,o),
(417,15,o),
(487,61,c),
(487,113,l),
(443,98,o),
(392,82,o),
(331,82,cs),
(209,82,o),
(157,131,o),
(157,260,cs),
(157,368,o),
(199,410,o),
(275,410,cs),
(340,410,o),
(377,377,o),
(378,272,c),
(407,287,l),
(133,287,l),
(135,223,l),
(493,223,l),
(490,395,o),
(432,482,o),
(279,482,cs)
);
}
);
width = 538;
},
{
anchors = (
{
name = bottom;
pos = (297,0);
},
{
name = right;
pos = (516,0);
},
{
name = top;
pos = (291,476);
}
);
layerId = m002;
shapes = (
{
closed = 1;
nodes = (
(131,489,o),
(40,389,o),
(40,231,cs),
(40,72,o),
(135,-12,o),
(300,-12,cs),
(356,-12,o),
(426,12,o),
(516,70,c),
(516,129,l),
(469,117,o),
(419,108,o),
(355,108,cs),
(241,108,o),
(199,147,o),
(199,272,cs),
(199,368,o),
(227,399,o),
(285,399,cs),
(340,399,o),
(367,375,o),
(365,265,c),
(400,292,l),
(159,292,l),
(160,222,l),
(529,222,l),
(522,410,o),
(455,489,o),
(294,489,cs)
);
}
);
width = 567;
}
);
unicode = 101;
},
{
glyphname = eogonek;
kernLeft = o;
kernRight = e;
layers = (
{
layerId = m01;
shapes = (
{
closed = 1;
nodes = (
(487,113,l),
(443,98,o),
(392,82,o),
(331,82,cs),
(209,82,o),
(157,131,o),
(157,260,cs),
(157,368,o),
(199,410,o),
(275,410,cs),
(340,410,o),
(377,377,o),
(378,272,c),
(407,287,l),
(133,287,l),
(135,223,l),
(493,223,l),
(490,395,o),
(432,482,o),
(279,482,cs),
(135,482,o),
(45,384,o),
(45,229,cs),
(45,74,o),
(137,-10,o),
(288,-10,cs),
(328,-10,o),
(377,3,o),
(429,28,c),
(423,35,l),
(388,-5,ls),
(333,-69,o),
(318,-102,o),
(318,-137,cs),
(318,-185,o),
(345,-214,o),
(406,-214,cs),
(440,-214,o),
(455,-206,o),
(491,-179,c),
(491,-143,l),
(467,-155,o),
(455,-157,o),
(437,-157,cs),
(412,-157,o),
(393,-146,o),
(393,-116,cs),
(393,-93,o),
(403,-62,o),
(435,-16,cs),
(487,61,l)
);
}
);
width = 539;
},
{
layerId = m002;
shapes = (
{
closed = 1;
nodes = (
(516,129,l),
(469,117,o),
(419,108,o),
(355,108,cs),
(241,108,o),
(199,147,o),
(199,272,cs),
(199,368,o),
(227,399,o),
(285,399,cs),
(340,399,o),
(367,375,o),
(365,265,c),
(400,292,l),
(159,292,l),
(160,222,l),
(529,222,l),
(522,410,o),
(455,489,o),
(294,489,cs),
(131,489,o),
(40,389,o),
(40,231,cs),
(40,72,o),
(135,-12,o),
(300,-12,cs),
(342,-12,o),
(391,1,o),
(452,32,c),
(446,39,l),
(414,4,ls),
(353,-62,o),
(336,-96,o),
(336,-135,cs),
(336,-185,o),
(362,-214,o),
(426,-214,cs),
(460,-214,o),
(479,-206,o),
(519,-178,c),
(519,-134,l),
(494,-145,o),
(482,-147,o),
(464,-147,cs),
(439,-147,o),
(423,-137,o),
(423,-108,cs),
(423,-89,o),
(430,-61,o),
(458,-19,cs),
(516,70,l)
);
}
);
width = 568;
}
);
unicode = 281;
},
{
glyphname = f;
kernLeft = f;
kernRight = f;
layers = (
{
anchors = (
{
name = bottom;
pos = (179,0);
},
{
name = top;
pos = (322,673);
}
);
layerId = m01;
shapes = (
{
closed = 1;
nodes = (
(410,392,l),
(410,472,l),
(162,472,l),
(128,484,l),
(28,447,l),
(28,415,l),
(120,381,l),
(162,392,l)
);
},
{
closed = 1;
nodes = (
(237,526,ls),
(237,584,o),
(267,613,o),
(340,613,cs),
(417,613,o),
(438,543,o),
(455,543,cs),
(494,543,o),
(520,568,o),
(520,604,cs),
(520,650,o),
(485,683,o),
(353,683,cs),
(204,683,o),
(120,620,o),
(120,493,cs),
(120,64,l),
(48,46,l),
(48,0,l),
(319,0,l),
(319,46,l),
(237,64,l)
);
}
);
width = 431;
},
{
anchors = (
{
name = bottom;
pos = (204,0);
},
{
name = top;
pos = (351,673);
}
);
layerId = m002;
shapes = (
{
closed = 1;
nodes = (
(453,376,l),
(453,476,l),
(205,476,l),
(126,490,l),
(19,444,l),
(19,407,l),
(118,364,l),
(203,376,l)
);
},
{
closed = 1;
nodes = (
(291,518,ls),
(291,572,o),
(313,596,o),
(378,596,cs),
(462,596,o),
(481,522,o),
(500,522,cs),
(550,522,o),
(580,555,o),
(580,594,cs),
(580,647,o),
(549,685,o),
(385,685,cs),
(201,685,o),
(118,622,o),
(118,473,cs),
(118,67,l),
(54,51,l),
(54,0,l),
(364,0,l),
(364,51,l),
(291,67,l)
);
}
);
width = 472;
}
);
unicode = 102;
},
{
glyphname = g;
kernLeft = g;
kernRight = g;
layers = (
{
anchors = (
{
name = bottom;
pos = (274,-206);
},
{
name = top;
pos = (264,472);
}
);
layerId = m01;
shapes = (
{
closed = 1;
nodes = (
(447,-214,o),
(542,-153,o),
(542,-53,cs),
(542,43,o),
(482,77,o),
(321,78,cs),
(161,79,o),
(150,89,o),
(150,119,cs),
(150,142,o),
(164,151,o),
(200,153,c),
(198,166,l),
(94,158,o),
(55,124,o),
(55,78,cs),
(55,18,o),
(98,-19,o),
(261,-19,cs),
(423,-19,o),
(439,-39,o),
(439,-79,cs),
(439,-126,o),
(391,-148,o),
(268,-148,cs),
(168,-148,o),
(133,-129,o),
(133,-82,cs),
(133,-43,o),
(160,-18,o),
(249,-16,c),
(249,-9,l),
(208,-9,l),
(69,-9,o),
(19,-52,o),
(19,-104,cs),
(19,-172,o),
(80,-214,o),
(261,-214,cs)
);
},
{
closed = 1;
nodes = (
(385,147,o),
(463,207,o),
(463,315,cs),
(463,420,o),
(385,482,o),
(257,482,cs),
(128,482,o),
(49,423,o),
(49,315,cs),
(49,207,o),
(125,147,o),
(257,147,cs)
);
},
{
closed = 1;
nodes = (
(189,215,o),
(159,245,o),
(159,317,cs),
(159,389,o),
(201,417,o),
(256,417,cs),
(326,417,o),
(356,387,o),
(356,316,cs),
(356,243,o),
(315,215,o),
(261,215,cs)
);
},
{
closed = 1;
nodes = (
(480,403,o),
(516,396,o),
(534,396,cs),
(542,396,o),
(547,414,o),
(547,448,cs),
(547,472,o),
(544,480,o),
(532,480,cs),
(501,480,o),
(398,472,o),
(316,472,c),
(340,425,l)
);
}
);
width = 564;
},
{
anchors = (
{
name = bottom;
pos = (291,-210);
},
{
name = top;
pos = (279,476);
}
);
layerId = m002;
shapes = (
{
closed = 1;
nodes = (
(480,-214,o),
(580,-152,o),
(580,-46,cs),
(580,53,o),
(521,88,o),
(345,89,cs),
(169,89,o),
(163,97,o),
(163,124,cs),
(163,143,o),
(174,151,o),
(211,152,c),
(211,168,l),
(94,161,o),
(49,125,o),
(49,66,cs),
(49,1,o),
(94,-43,o),
(266,-43,cs),
(438,-43,o),
(449,-55,o),
(449,-87,cs),
(449,-122,o),
(410,-141,o),
(295,-141,cs),
(193,-141,o),
(165,-126,o),
(165,-88,cs),
(165,-55,o),
(192,-40,o),
(272,-39,c),
(272,-33,l),
(223,-33,l),
(72,-33,o),
(23,-64,o),
(23,-118,cs),
(23,-178,o),
(76,-214,o),
(277,-214,cs)
);
},
{
closed = 1;
nodes = (
(412,147,o),
(500,202,o),
(500,318,cs),
(500,425,o),
(412,489,o),
(273,489,cs),
(134,489,o),
(45,433,o),
(45,318,cs),
(45,203,o),
(125,147,o),
(273,147,cs)
);
},
{
closed = 1;
nodes = (
(225,228,o),
(203,248,o),
(203,315,cs),
(203,392,o),
(230,414,o),
(273,414,cs),
(324,414,o),
(345,394,o),
(345,327,cs),
(345,250,o),
(319,228,o),
(277,228,cs)
);
},
{
closed = 1;
nodes = (
(503,400,o),
(548,392,o),
(563,392,cs),
(573,392,o),
(578,402,o),
(578,447,cs),
(578,474,o),
(575,480,o),
(557,480,cs),
(521,480,o),
(417,476,o),
(342,476,c),
(360,431,l)
);
}
);
width = 593;
}
);
unicode = 103;
},
{
glyphname = h;
kernLeft = h;
kernRight = n;
layers = (
{
anchors = (
{
name = bottom;
pos = (323,0);
},
{
name = center;
pos = (189,541);
},
{
name = top;
pos = (339,673);
}
);
layerId = m01;
shapes = (
{
closed = 1;
nodes = (
(370,0,l),
(622,0,l),
(622,46,l),
(549,64,l),
(549,333,ls),
(549,431,o),
(501,482,o),
(395,482,cs),
(339,482,o),
(326,477,o),
(205,385,c),
(213,360,l),
(249,372,o),
(294,380,o),
(334,380,cs),
(406,380,o),
(433,356,o),
(433,299,cs),
(433,63,l),
(370,46,l)
);
},
{
closed = 1;
nodes = (
(281,46,l),
(218,63,l),
(218,580,l),
(228,683,l),
(201,683,l),
(5,648,l),
(5,607,l),
(41,592,o),
(90,572,o),
(102,567,c),
(102,64,l),
(29,46,l),
(29,0,l),
(281,0,l)
);
}
);
width = 646;
},
{
anchors = (
{
name = bottom;
pos = (340,0);
},
{
name = center;
pos = (195,549);
},
{
name = top;
pos = (357,673);
}
);
layerId = m002;
shapes = (
{
closed = 1;
nodes = (
(381,0,l),
(661,0,l),
(661,51,l),
(597,67,l),
(597,342,ls),
(597,436,o),
(546,489,o),
(438,489,cs),
(386,489,o),
(375,484,o),
(242,380,c),
(251,342,l),
(283,350,o),
(319,355,o),
(349,355,cs),
(405,355,o),
(423,336,o),
(423,294,cs),
(423,63,l),
(381,51,l)
);
},
{
closed = 1;
nodes = (
(307,51,l),
(265,63,l),
(265,562,l),
(276,685,l),
(232,685,l),
(1,644,l),
(1,592,l),
(37,572,o),
(79,549,o),
(91,542,c),
(91,67,l),
(27,51,l),
(27,0,l),
(307,0,l)
);
}
);
width = 684;
}
);
unicode = 104;
},
{
glyphname = hbar;
kernLeft = h;
kernRight = n;
layers = (
{
layerId = m01;
shapes = (
{
closed = 1;
nodes = (
(370,0,l),
(622,0,l),
(622,46,l),
(549,64,l),
(549,333,ls),
(549,431,o),
(501,482,o),
(395,482,cs),
(339,482,o),
(326,477,o),
(205,385,c),
(213,360,l),
(249,372,o),
(294,380,o),
(334,380,cs),
(406,380,o),
(433,356,o),
(433,299,cs),
(433,63,l),
(370,46,l)
);
},
{
closed = 1;
nodes = (
(281,46,l),
(218,63,l),
(218,580,l),
(228,683,l),
(201,683,l),
(30,654,l),
(30,619,l),
(49,607,o),
(93,591,o),
(102,579,c),
(102,64,l),
(29,46,l),
(29,0,l),
(281,0,l)
);
},
{
closed = 1;
nodes = (
(360,513,l),
(360,569,l),
(21,569,l),
(21,513,l)
);
}
);
width = 646;
},
{
layerId = m002;
shapes = (
{
closed = 1;
nodes = (
(381,0,l),
(661,0,l),
(661,51,l),
(597,67,l),
(597,342,ls),
(597,436,o),
(546,489,o),
(438,489,cs),
(386,489,o),
(375,484,o),
(242,380,c),
(251,342,l),
(283,350,o),
(319,355,o),
(349,355,cs),
(405,355,o),
(423,336,o),
(423,294,cs),
(423,63,l),
(381,51,l)
);
},
{
closed = 1;
nodes = (
(307,51,l),
(265,63,l),
(265,562,l),
(276,685,l),
(232,685,l),
(49,665,l),
(49,631,l),
(61,605,o),
(83,579,o),
(91,548,c),
(91,67,l),
(27,51,l),
(27,0,l),
(307,0,l)
);
},
{
closed = 1;
nodes = (
(381,520,l),
(381,578,l),
(18,578,l),
(18,520,l)
);
}
);
width = 684;
}
);
unicode = 295;
},
{
glyphname = i;
kernLeft = i;
kernRight = i;
layers = (
{
anchors = (
{
name = bottom;
pos = (175,0);
},
{
name = right;
pos = (246,0);
},
{
name = top;
pos = (169,673);
}
);
layerId = m01;
shapes = (
{
closed = 1;
nodes = (
(220,553,o),
(251,574,o),
(251,618,cs),
(251,662,o),
(220,683,o),
(167,683,cs),
(114,683,o),
(83,662,o),
(83,618,cs),
(83,574,o),
(114,553,o),
(167,553,cs)
);
},
{
closed = 1;
nodes = (
(206,482,l),
(36,434,l),
(36,402,l),
(64,385,o),
(107,360,o),
(117,354,c),
(117,64,l),
(44,46,l),
(44,0,l),
(303,0,l),
(303,46,l),
(233,64,l),
(233,366,l),
(241,482,l)
);
}
);
width = 334;
},
{
anchors = (
{
name = bottom;
pos = (193,0);
},
{
name = right;
pos = (271,0);
},
{
name = top;
pos = (194,673);
}
);
layerId = m002;
shapes = (
{
closed = 1;
nodes = (
(262,543,o),
(298,567,o),
(298,615,cs),
(298,662,o),
(262,685,o),
(189,685,cs),
(115,685,o),
(79,662,o),
(79,615,cs),
(79,567,o),
(115,543,o),
(189,543,cs)
);
},
{
closed = 1;
nodes = (
(239,489,l),
(31,435,l),
(31,394,l),
(59,371,o),
(96,343,o),
(106,335,c),
(106,67,l),
(43,51,l),
(43,0,l),
(342,0,l),
(342,51,l),
(280,67,l),
(280,342,l),
(290,489,l)
);
}
);
width = 371;
}
);
unicode = 105;
},
{
glyphname = idotless;
kernLeft = i;
kernRight = i;
layers = (
{
anchors = (
{
name = bottom;
pos = (175,0);
},
{
name = right;
pos = (246,0);
},
{
name = top;
pos = (158,472);
}
);
layerId = m01;
shapes = (
{
closed = 1;
nodes = (
(206,482,l),
(36,434,l),
(36,402,l),
(64,385,o),
(107,360,o),
(117,354,c),
(117,64,l),
(44,46,l),
(44,0,l),
(303,0,l),
(303,46,l),
(233,64,l),
(233,366,l),
(241,482,l)
);
}
);
width = 334;
},
{
anchors = (
{
name = bottom;
pos = (193,0);
},
{
name = right;
pos = (271,0);
},
{
name = top;
pos = (179,476);
}
);
layerId = m002;
shapes = (
{
closed = 1;
nodes = (
(239,489,l),
(31,435,l),
(31,394,l),
(59,371,o),
(96,343,o),
(106,335,c),
(106,67,l),
(43,51,l),
(43,0,l),
(342,0,l),
(342,51,l),
(280,67,l),
(280,342,l),
(290,489,l)
);
}
);
width = 371;
}
);
unicode = 305;
},
{
glyphname = iogonek;
kernLeft = i;
kernRight = i;
layers = (
{
layerId = m01;
shapes = (
{
closed = 1;
nodes = (
(220,553,o),
(251,574,o),
(251,618,cs),
(251,662,o),
(220,683,o),
(167,683,cs),
(114,683,o),
(83,662,o),
(83,618,cs),
(83,574,o),
(114,553,o),
(167,553,cs)
);
},
{
closed = 1;
nodes = (
(206,482,l),
(36,434,l),
(36,402,l),
(64,385,o),
(107,360,o),
(117,354,c),
(117,64,l),
(44,46,l),
(44,0,l),
(303,0,l),
(303,46,l),
(233,64,l),
(233,366,l),
(241,482,l)
);
},
{
closed = 1;
nodes = (
(215,25,l),
(175,25,l),
(131,-32,ls),
(88,-87,o),
(80,-112,o),
(80,-142,cs),
(80,-185,o),
(103,-214,o),
(161,-214,cs),
(194,-214,o),
(213,-206,o),
(250,-179,c),
(250,-143,l),
(225,-155,o),
(214,-157,o),
(196,-157,cs),
(170,-157,o),
(156,-143,o),
(156,-117,cs),
(156,-96,o),
(160,-78,o),
(183,-35,cs)
);
}
);
width = 334;
},
{
layerId = m002;
shapes = (
{
closed = 1;
nodes = (
(262,543,o),
(298,567,o),
(298,615,cs),
(298,662,o),
(262,685,o),
(189,685,cs),
(115,685,o),
(79,662,o),
(79,615,cs),
(79,567,o),
(115,543,o),
(189,543,cs)
);
},
{
closed = 1;
nodes = (
(239,489,l),
(31,435,l),
(31,394,l),
(59,371,o),
(96,343,o),
(106,335,c),
(106,67,l),
(43,51,l),
(43,0,l),
(342,0,l),
(342,51,l),
(280,67,l),
(280,342,l),
(290,489,l)
);
},
{
closed = 1;
nodes = (
(245,36,l),
(199,36,l),
(151,-22,ls),
(100,-81,o),
(91,-106,o),
(91,-137,cs),
(91,-185,o),
(116,-214,o),
(178,-214,cs),
(212,-214,o),
(234,-206,o),
(273,-178,c),
(273,-134,l),
(249,-145,o),
(237,-147,o),
(218,-147,cs),
(193,-147,o),
(180,-135,o),
(180,-109,cs),
(180,-91,o),
(182,-75,o),
(204,-35,cs)
);
}
);
width = 371;
}
);
unicode = 303;
},
{
glyphname = j;
kernLeft = j;
kernRight = j;
layers = (
{
anchors = (
{
name = bottom;
pos = (139,-206);
},
{
name = top;
pos = (157,680);
}
);
layerId = m01;
shapes = (
{
closed = 1;
nodes = (
(209,553,o),
(240,574,o),
(240,618,cs),
(240,662,o),
(209,683,o),
(156,683,cs),
(103,683,o),
(72,662,o),
(72,618,cs),
(72,574,o),
(103,553,o),
(156,553,cs)
);
},
{
closed = 1;
nodes = (
(105,4,ls),
(105,-48,o),
(101,-55,o),
(-5,-164,c),
(35,-214,l),
(200,-103,o),
(222,-72,o),
(222,23,cs),
(222,366,l),
(229,482,l),
(195,482,l),
(25,434,l),
(25,402,l),
(53,385,o),
(95,360,o),
(105,354,c)
);
}
);
width = 303;
},
{
anchors = (
{
name = bottom;
pos = (169,-210);
},
{
name = top;
pos = (184,676);
}
);
layerId = m002;
shapes = (
{
closed = 1;
nodes = (
(253,543,o),
(289,567,o),
(289,615,cs),
(289,662,o),
(253,685,o),
(180,685,cs),
(106,685,o),
(71,662,o),
(71,615,cs),
(71,567,o),
(106,543,o),
(180,543,cs)
);
},
{
closed = 1;
nodes = (
(98,20,ls),
(98,-38,o),
(94,-47,o),
(-11,-147,c),
(35,-214,l),
(246,-107,o),
(271,-71,o),
(271,39,cs),
(271,342,l),
(281,489,l),
(230,489,l),
(22,435,l),
(22,394,l),
(50,371,o),
(87,343,o),
(98,335,c)
);
}
);
width = 346;
}
);
unicode = 106;
},
{
glyphname = jdotless;
kernLeft = j;
kernRight = j;
layers = (
{
anchors = (
{
name = bottom;
pos = (139,-206);
},
{
name = top;
pos = (142,472);
}
);
layerId = m01;
shapes = (
{
closed = 1;
nodes = (
(105,4,ls),
(105,-48,o),
(101,-55,o),
(-5,-164,c),
(35,-214,l),
(200,-103,o),
(222,-72,o),
(222,23,cs),
(222,366,l),
(229,482,l),
(195,482,l),
(25,434,l),
(25,402,l),
(53,385,o),
(95,360,o),
(105,354,c)
);
}
);
width = 303;
},
{
anchors = (
{
name = bottom;
pos = (169,-210);
},
{
name = top;
pos = (168,476);
}
);
layerId = m002;
shapes = (
{
closed = 1;
nodes = (
(98,20,ls),
(98,-38,o),
(94,-47,o),
(-11,-147,c),
(35,-214,l),
(246,-107,o),
(271,-71,o),
(271,39,cs),
(271,342,l),
(281,489,l),
(230,489,l),
(22,435,l),
(22,394,l),
(50,371,o),
(87,343,o),
(98,335,c)
);
}
);
width = 346;
}
);
unicode = 567;
},
{
glyphname = k;
kernLeft = h;
kernRight = k;
layers = (
{
anchors = (
{
name = bottom;
pos = (344,0);
},
{
name = top;
pos = (318,673);
}
);
layerId = m01;
shapes = (
{
closed = 1;
nodes = (
(528,413,l),
(595,429,l),
(595,472,l),
(353,472,l),
(353,429,l),
(422,412,l),
(302,302,l),
(185,302,l),
(185,227,l),
(291,227,l),
(433,56,l),
(434,45,l),
(434,0,l),
(626,0,l),
(626,45,l),
(567,67,l),
(361,311,l),
(333,253,l)
);
},
{
closed = 1;
nodes = (
(218,580,l),
(228,683,l),
(201,683,l),
(5,648,l),
(5,607,l),
(41,592,o),
(90,572,o),
(102,567,c),
(102,64,l),
(29,46,l),
(29,0,l),
(288,0,l),
(288,46,l),
(218,64,l)
);
}
);
width = 635;
},
{
anchors = (
{
name = bottom;
pos = (375,0);
},
{
name = top;
pos = (349,673);
}
);
layerId = m002;
shapes = (
{
closed = 1;
nodes = (
(580,415,l),
(653,429,l),
(653,476,l),
(388,476,l),
(388,429,l),
(460,415,l),
(343,308,l),
(200,308,l),
(200,215,l),
(337,215,l),
(454,51,l),
(454,46,l),
(454,0,l),
(689,0,l),
(689,46,l),
(637,70,l),
(440,342,l),
(371,239,l)
);
},
{
closed = 1;
nodes = (
(265,562,l),
(276,685,l),
(232,685,l),
(1,644,l),
(1,592,l),
(37,572,o),
(79,549,o),
(91,542,c),
(91,67,l),
(27,51,l),
(27,0,l),
(326,0,l),
(326,51,l),
(265,67,l)
);
}
);
width = 693;
}
);
unicode = 107;
},
{
glyphname = l;
kernLeft = l;
kernRight = l;
layers = (
{
anchors = (
{
name = bottom;
pos = (161,0);
},
{
name = mid;
pos = (345,235);
},
{
name = right;
pos = (219,673);
},
{
name = top;
pos = (152,673);
}
);
layerId = m01;
shapes = (
{
closed = 1;
nodes = (
(219,580,l),
(229,683,l),
(202,683,l),
(6,648,l),
(6,607,l),
(42,592,o),
(91,572,o),
(103,567,c),
(103,64,l),
(30,46,l),
(30,0,l),
(289,0,l),
(289,46,l),
(219,64,l)
);
}
);
width = 320;
},
{
anchors = (
{
name = bottom;
pos = (178,0);
},
{
name = mid;
pos = (395,235);
},
{
name = right;
pos = (265,673);
},
{
name = top;
pos = (171,673);
}
);
layerId = m002;
shapes = (
{
closed = 1;
nodes = (
(265,562,l),
(276,685,l),
(233,685,l),
(1,644,l),
(1,592,l),
(37,572,o),
(79,549,o),
(91,542,c),
(91,67,l),
(28,51,l),
(28,0,l),
(327,0,l),
(327,51,l),
(265,67,l)
);
}
);
width = 355;
}
);
unicode = 108;
},
{
color = 4;
glyphname = ldot;
kernLeft = kernLC_l2;
kernRight = kernLC_l1;
layers = (
{
layerId = m01;
shapes = (
{
ref = l;
},
{
closed = 1;
nodes = (
(396,177,o),
(421,197,o),
(421,236,cs),
(421,275,o),
(396,293,o),
(345,293,cs),
(294,293,o),
(269,275,o),
(269,236,cs),
(269,197,o),
(294,177,o),
(345,177,cs)
);
}
);
width = 367;
},
{
layerId = m002;
shapes = (
{
ref = l;
},
{
closed = 1;
nodes = (
(457,169,o),
(485,192,o),
(485,236,cs),
(485,280,o),
(457,301,o),
(395,301,cs),
(333,301,o),
(305,280,o),
(305,236,cs),
(305,192,o),
(333,169,o),
(395,169,cs)
);
}
);
width = 434;
}
);
unicode = 320;
},
{
glyphname = lslash;
layers = (
{
layerId = m01;
shapes = (
{
closed = 1;
nodes = (
(208,299,l),
(336,390,l),
(336,458,l),
(208,367,l),
(161,351,l),
(43,266,l),
(43,198,l),
(161,282,l)
);
},
{
closed = 1;
nodes = (
(244,580,l),
(254,683,l),
(227,683,l),
(31,648,l),
(31,607,l),
(66,592,o),
(116,572,o),
(128,567,c),
(128,64,l),
(55,46,l),
(55,0,l),
(313,0,l),
(313,46,l),
(244,64,l)
);
}
);
width = 369;
},
{
layerId = m002;
shapes = (
{
closed = 1;
nodes = (
(213,274,l),
(362,380,l),
(362,453,l),
(213,347,l),
(159,343,l),
(40,259,l),
(40,186,l),
(159,270,l)
);
},
{
closed = 1;
nodes = (
(284,562,l),
(295,685,l),
(252,685,l),
(20,644,l),
(20,592,l),
(56,572,o),
(98,549,o),
(110,542,c),
(110,67,l),
(47,51,l),
(47,0,l),
(346,0,l),
(346,51,l),
(284,67,l)
);
}
);
width = 395;
}
);
unicode = 322;
},
{
glyphname = m;
kernLeft = n;
kernRight = n;
layers = (
{
anchors = (
{
name = bottom;
pos = (486,0);
},
{
name = top;
pos = (486,472);
}
);
layerId = m01;
shapes = (
{
closed = 1;
nodes = (
(200,484,l),
(178,484,l),
(35,426,l),
(35,402,l),
(77,373,o),
(106,354,o),
(116,347,c),
(116,64,l),
(43,46,l),
(43,0,l),
(295,0,l),
(295,46,l),
(232,63,l),
(232,381,l)
);
},
{
closed = 1;
nodes = (
(544,444,o),
(498,482,o),
(398,482,cs),
(345,482,o),
(332,477,o),
(219,390,c),
(226,362,l),
(260,373,o),
(301,380,o),
(337,380,cs),
(404,380,o),
(427,358,o),
(427,306,cs),
(427,63,l),
(364,46,l),
(364,0,l),
(607,0,l),
(607,46,l),
(544,63,l),
(544,346,ls)
);
},
{
closed = 1;
nodes = (
(856,434,o),
(810,482,o),
(709,482,cs),
(656,482,o),
(643,477,o),
(528,389,c),
(536,362,l),
(569,372,o),
(611,380,o),
(648,380,cs),
(715,380,o),
(739,358,o),
(739,305,cs),
(739,63,l),
(676,46,l),
(676,0,l),
(929,0,l),
(929,46,l),
(856,64,l),
(856,341,ls)
);
}
);
width = 952;
},
{
anchors = (
{
name = bottom;
pos = (509,0);
},
{
name = top;
pos = (509,476);
}
);
layerId = m002;
shapes = (
{
closed = 1;
nodes = (
(234,489,l),
(200,489,l),
(31,432,l),
(31,394,l),
(73,359,o),
(96,340,o),
(106,331,c),
(106,67,l),
(43,51,l),
(43,0,l),
(322,0,l),
(322,51,l),
(280,63,l),
(280,380,l)
);
},
{
closed = 1;
nodes = (
(596,443,o),
(548,489,o),
(444,489,cs),
(395,489,o),
(385,485,o),
(257,386,c),
(265,343,l),
(295,350,o),
(327,355,o),
(355,355,cs),
(406,355,o),
(422,337,o),
(422,299,cs),
(422,63,l),
(381,51,l),
(381,0,l),
(638,0,l),
(638,51,l),
(596,63,l),
(596,351,ls)
);
},
{
closed = 1;
nodes = (
(912,439,o),
(863,489,o),
(760,489,cs),
(710,489,o),
(700,485,o),
(572,385,c),
(580,343,l),
(610,350,o),
(643,355,o),
(671,355,cs),
(722,355,o),
(739,337,o),
(739,299,cs),
(739,63,l),
(697,51,l),
(697,0,l),
(976,0,l),
(976,51,l),
(912,67,l),
(912,348,ls)
);
}
);
width = 1000;
}
);
unicode = 109;
},
{
glyphname = n;
kernLeft = n;
kernRight = n;
layers = (
{
anchors = (
{
name = bottom;
pos = (333,0);
},
{
name = top;
pos = (341,472);
}
);
layerId = m01;
shapes = (
{
closed = 1;
nodes = (
(200,484,l),
(178,484,l),
(35,426,l),
(35,402,l),
(77,373,o),
(106,354,o),
(116,347,c),
(116,64,l),
(43,46,l),
(43,0,l),
(295,0,l),
(295,46,l),
(232,63,l),
(232,381,l)
);
},
{
closed = 1;
nodes = (
(384,0,l),
(636,0,l),
(636,46,l),
(563,64,l),
(563,333,ls),
(563,431,o),
(515,482,o),
(409,482,cs),
(353,482,o),
(339,477,o),
(219,385,c),
(227,360,l),
(263,372,o),
(308,380,o),
(348,380,cs),
(420,380,o),
(447,356,o),
(447,299,cs),
(447,63,l),
(384,46,l)
);
}
);
width = 660;
},
{
anchors = (
{
name = bottom;
pos = (352,0);
},
{
name = top;
pos = (361,476);
}
);
layerId = m002;
shapes = (
{
closed = 1;
nodes = (
(234,489,l),
(200,489,l),
(31,432,l),
(31,394,l),
(73,359,o),
(96,340,o),
(106,331,c),
(106,67,l),
(43,51,l),
(43,0,l),
(322,0,l),
(322,51,l),
(280,63,l),
(280,380,l)
);
},
{
closed = 1;
nodes = (
(397,0,l),
(676,0,l),
(676,51,l),
(612,67,l),
(612,342,ls),
(612,436,o),
(561,489,o),
(453,489,cs),
(402,489,o),
(391,484,o),
(257,380,c),
(266,342,l),
(298,350,o),
(334,355,o),
(364,355,cs),
(420,355,o),
(439,336,o),
(439,294,cs),
(439,63,l),
(397,51,l)
);
}
);
width = 699;
}
);
unicode = 110;
},
{
glyphname = eng;
kernLeft = n;
kernRight = n;
layers = (
{
layerId = m01;
shapes = (
{
closed = 1;
nodes = (
(200,484,l),
(178,484,l),
(35,426,l),
(35,402,l),
(77,373,o),
(106,354,o),
(116,347,c),
(116,64,l),
(43,46,l),
(43,0,l),
(295,0,l),
(295,46,l),
(232,63,l),
(232,381,l)
);
},
{
closed = 1;
nodes = (
(447,-48,o),
(443,-55,o),
(336,-164,c),
(376,-214,l),
(542,-103,o),
(563,-72,o),
(563,23,cs),
(563,333,ls),
(563,431,o),
(515,482,o),
(409,482,cs),
(353,482,o),
(339,477,o),
(219,385,c),
(227,360,l),
(263,372,o),
(308,380,o),
(348,380,cs),
(420,380,o),
(447,356,o),
(447,299,cs),
(447,4,ls)
);
}
);
width = 636;
},
{
layerId = m002;
shapes = (
{
closed = 1;
nodes = (
(234,489,l),
(200,489,l),
(31,432,l),
(31,394,l),
(73,359,o),
(96,340,o),
(106,331,c),
(106,67,l),
(43,51,l),
(43,0,l),
(322,0,l),
(322,51,l),
(280,63,l),
(280,380,l)
);
},
{
closed = 1;
nodes = (
(439,-38,o),
(435,-47,o),
(330,-147,c),
(376,-214,l),
(587,-107,o),
(612,-71,o),
(612,39,cs),
(612,342,ls),
(612,436,o),
(561,489,o),
(453,489,cs),
(402,489,o),
(391,484,o),
(257,380,c),
(266,342,l),
(298,350,o),
(334,355,o),
(364,355,cs),
(420,355,o),
(439,336,o),
(439,294,cs),
(439,20,ls)
);
}
);
width = 679;
}
);
unicode = 331;
},
{
glyphname = o;
kernLeft = o;
kernRight = o;
layers = (
{
anchors = (
{
name = bottom;
pos = (296,0);
},
{
name = horn;
pos = (391,472);
},
{
name = right;
pos = (387,0);
},
{
name = top;
pos = (296,472);
}
);
layerId = m01;
shapes = (
{
closed = 1;
nodes = (
(202,70,o),
(162,127,o),
(162,247,cs),
(162,355,o),
(209,403,o),
(301,403,cs),
(390,403,o),
(430,345,o),
(430,226,cs),
(430,117,o),
(383,70,o),
(291,70,cs)
);
},
{
closed = 1;
nodes = (
(450,-10,o),
(548,85,o),
(548,237,cs),
(548,387,o),
(456,482,o),
(301,482,cs),
(142,482,o),
(44,387,o),
(44,236,cs),
(44,85,o),
(136,-10,o),
(291,-10,cs)
);
}
);
width = 592;
},
{
anchors = (
{
name = bottom;
pos = (307,0);
},
{
name = horn;
pos = (408,476);
},
{
name = right;
pos = (404,0);
},
{
name = top;
pos = (307,476);
}
);
layerId = m002;
shapes = (
{
closed = 1;
nodes = (
(237,92,o),
(210,138,o),
(210,247,cs),
(210,346,o),
(241,384,o),
(310,384,cs),
(377,384,o),
(404,339,o),
(404,229,cs),
(404,131,o),
(374,92,o),
(304,92,cs)
);
},
{
closed = 1;
nodes = (
(473,-12,o),
(575,82,o),
(575,240,cs),
(575,396,o),
(479,489,o),
(315,489,cs),
(141,489,o),
(39,395,o),
(39,236,cs),
(39,81,o),
(135,-12,o),
(300,-12,cs)
);
}
);
width = 600;
}
);
unicode = 111;
},
{
glyphname = oslash;
kernLeft = o;
kernRight = o;
layers = (
{
anchors = (
{
name = bottom;
pos = (305,0);
},
{
name = top;
pos = (305,472);
}
);
layerId = m01;
shapes = (
{
closed = 1;
nodes = (
(123,0,l),
(175,54,l),
(189,70,l),
(462,363,l),
(478,375,l),
(570,472,l),
(488,472,l),
(436,418,l),
(422,403,l),
(149,110,l),
(133,97,l),
(41,0,l)
);
},
{
closed = 1;
nodes = (
(211,70,o),
(172,127,o),
(172,247,cs),
(172,355,o),
(218,403,o),
(310,403,cs),
(400,403,o),
(439,345,o),
(439,226,cs),
(439,117,o),
(393,70,o),
(301,70,cs)
);
},
{
closed = 1;
nodes = (
(460,-10,o),
(557,85,o),
(557,237,cs),
(557,387,o),
(465,482,o),
(311,482,cs),
(151,482,o),
(54,387,o),
(54,236,cs),
(54,85,o),
(146,-10,o),
(300,-10,cs)
);
}
);
width = 610;
},
{
anchors = (
{
name = bottom;
pos = (315,0);
},
{
name = top;
pos = (315,476);
}
);
layerId = m002;
shapes = (
{
closed = 1;
nodes = (
(124,0,l),
(180,57,l),
(202,74,l),
(466,357,l),
(493,374,l),
(593,476,l),
(505,476,l),
(449,420,l),
(427,403,l),
(163,120,l),
(137,102,l),
(36,0,l)
);
},
{
closed = 1;
nodes = (
(245,92,o),
(218,138,o),
(218,247,cs),
(218,346,o),
(248,384,o),
(318,384,cs),
(385,384,o),
(412,339,o),
(412,229,cs),
(412,131,o),
(381,92,o),
(311,92,cs)
);
},
{
closed = 1;
nodes = (
(481,-12,o),
(583,82,o),
(583,240,cs),
(583,396,o),
(487,489,o),
(322,489,cs),
(149,489,o),
(47,395,o),
(47,236,cs),
(47,81,o),
(143,-12,o),
(307,-12,cs)
);
}
);
width = 630;
}
);
unicode = 248;
},
{
glyphname = oe;
kernLeft = o;
kernRight = e;
layers = (
{
anchors = (
{
name = bottom;
pos = (463,0);
},
{
name = top;
pos = (463,472);
}
);
layerId = m01;
shapes = (
{
closed = 1;
nodes = (
(202,70,o),
(162,127,o),
(162,247,cs),
(162,355,o),
(209,403,o),
(301,403,cs),
(390,403,o),
(430,345,o),
(430,226,cs),
(430,117,o),
(383,70,o),
(291,70,cs)
);
},
{
closed = 1;
nodes = (
(457,125,l),
(494,45,o),
(563,-10,o),
(676,-10,cs),
(732,-10,o),
(805,15,o),
(875,61,c),
(875,113,l),
(831,98,o),
(781,82,o),
(719,82,cs),
(598,82,o),
(545,131,o),
(545,260,cs),
(545,368,o),
(587,410,o),
(663,410,cs),
(728,410,o),
(765,377,o),
(766,272,c),
(804,287,l),
(521,287,l),
(523,223,l),
(882,223,l),
(879,395,o),
(820,482,o),
(668,482,cs),
(569,482,o),
(499,430,o),
(460,354,c),
(518,354,l),
(479,430,o),
(409,482,o),
(301,482,cs),
(142,482,o),
(44,387,o),
(44,236,cs),
(44,85,o),
(136,-10,o),
(291,-10,cs),
(407,-10,o),
(480,48,o),
(520,125,c)
);
}
);
width = 927;
},
{
anchors = (
{
name = bottom;
pos = (469,0);
},
{
name = top;
pos = (469,476);
}
);
layerId = m002;
shapes = (
{
closed = 1;
nodes = (
(237,92,o),
(210,138,o),
(210,247,cs),
(210,346,o),
(241,384,o),
(310,384,cs),
(377,384,o),
(404,339,o),
(404,229,cs),
(404,131,o),
(374,92,o),
(304,92,cs)
);
},
{
closed = 1;
nodes = (
(435,124,l),
(475,44,o),
(553,-12,o),
(669,-12,cs),
(726,-12,o),
(795,12,o),
(886,70,c),
(886,129,l),
(838,117,o),
(789,108,o),
(725,108,cs),
(611,108,o),
(569,147,o),
(569,272,cs),
(569,368,o),
(597,399,o),
(655,399,cs),
(710,399,o),
(737,375,o),
(735,265,c),
(799,292,l),
(529,292,l),
(530,222,l),
(898,222,l),
(892,410,o),
(824,489,o),
(664,489,cs),
(562,489,o),
(489,436,o),
(446,364,c),
(539,364,l),
(495,436,o),
(420,489,o),
(315,489,cs),
(141,489,o),
(39,395,o),
(39,236,cs),
(39,81,o),
(135,-12,o),
(300,-12,cs),
(418,-12,o),
(499,46,o),
(544,124,c)
);
}
);
width = 937;
}
);
unicode = 339;
},
{
glyphname = p;
kernRight = b;
layers = (
{
anchors = (
{
name = bottom;
pos = (163,-204);
},
{
name = top;
pos = (331,472);
}
);
layerId = m01;
shapes = (
{
closed = 1;
nodes = (
(474,125,o),
(423,66,o),
(338,66,cs),
(271,66,o),
(221,100,o),
(221,173,cs),
(221,400,l),
(189,484,l),
(167,484,l),
(24,426,l),
(24,402,l),
(58,378,o),
(93,355,o),
(104,347,c),
(104,-140,l),
(30,-157,l),
(30,-204,l),
(304,-204,l),
(304,-157,l),
(221,-140,l),
(221,126,l),
(213,126,l),
(217,53,o),
(279,-10,o),
(368,-10,cs),
(495,-10,o),
(595,88,o),
(595,255,cs),
(595,396,o),
(519,482,o),
(378,482,cs),
(338,482,o),
(292,468,o),
(189,408,c),
(189,363,l),
(233,381,o),
(282,392,o),
(329,392,cs),
(422,392,o),
(474,342,o),
(474,232,cs)
);
}
);
width = 640;
},
{
anchors = (
{
name = bottom;
pos = (184,-201);
},
{
name = top;
pos = (343,476);
}
);
layerId = m002;
shapes = (
{
closed = 1;
nodes = (
(457,132,o),
(419,91,o),
(357,91,cs),
(302,91,o),
(270,116,o),
(270,193,cs),
(270,398,l),
(224,489,l),
(191,489,l),
(22,432,l),
(22,394,l),
(56,365,o),
(85,342,o),
(97,331,c),
(97,-134,l),
(33,-151,l),
(33,-201,l),
(343,-201,l),
(343,-151,l),
(270,-135,l),
(270,128,l),
(263,128,l),
(265,49,o),
(319,-12,o),
(412,-12,cs),
(530,-12,o),
(629,82,o),
(629,257,cs),
(629,400,o),
(558,489,o),
(421,489,cs),
(382,489,o),
(352,479,o),
(238,402,c),
(238,364,l),
(272,373,o),
(311,378,o),
(342,378,cs),
(420,378,o),
(457,340,o),
(457,238,cs)
);
}
);
width = 670;
}
);
unicode = 112;
},
{
glyphname = thorn;
kernLeft = h;
kernRight = b;
layers = (
{
layerId = m01;
shapes = (
{
closed = 1;
nodes = (
(80,-140,l),
(5,-157,l),
(5,-204,l),
(279,-204,l),
(279,-157,l),
(196,-140,l),
(196,126,l),
(188,126,l),
(192,53,o),
(254,-10,o),
(343,-10,cs),
(470,-10,o),
(570,88,o),
(570,255,cs),
(570,396,o),
(494,482,o),
(353,482,cs),
(313,482,o),
(267,468,o),
(164,408,c),
(164,363,l),
(209,381,o),
(258,392,o),
(305,392,cs),
(397,392,o),
(449,342,o),
(449,232,cs),
(449,125,o),
(398,66,o),
(313,66,cs),
(246,66,o),
(196,100,o),
(196,173,cs),
(196,580,l),
(206,683,l),
(179,683,l),
(-17,648,l),
(-17,607,l),
(18,592,o),
(68,572,o),
(80,567,c)
);
}
);
width = 616;
},
{
layerId = m002;
shapes = (
{
closed = 1;
nodes = (
(73,-134,l),
(9,-151,l),
(9,-201,l),
(320,-201,l),
(320,-151,l),
(246,-135,l),
(246,128,l),
(239,128,l),
(241,49,o),
(295,-12,o),
(388,-12,cs),
(507,-12,o),
(606,82,o),
(606,257,cs),
(606,400,o),
(535,489,o),
(397,489,cs),
(359,489,o),
(328,479,o),
(214,402,c),
(214,364,l),
(248,373,o),
(287,378,o),
(318,378,cs),
(396,378,o),
(433,340,o),
(433,238,cs),
(433,132,o),
(396,91,o),
(333,91,cs),
(278,91,o),
(247,116,o),
(247,193,cs),
(247,562,l),
(258,685,l),
(214,685,l),
(-17,644,l),
(-17,592,l),
(19,572,o),
(61,549,o),
(73,542,c)
);
}
);
width = 646;
}
);
unicode = 254;
},
{
glyphname = q;
kernLeft = d;
layers = (
{
anchors = (
{
name = bottom;
pos = (477,-204);
},
{
name = top;
pos = (310,472);
}
);
layerId = m01;
shapes = (
{
closed = 1;
nodes = (
(167,349,o),
(218,409,o),
(311,409,cs),
(392,409,o),
(419,372,o),
(419,304,cs),
(419,-140,l),
(336,-157,l),
(336,-204,l),
(610,-204,l),
(610,-157,l),
(536,-140,l),
(536,369,l),
(558,471,l),
(535,483,l),
(432,416,l),
(479,412,l),
(435,466,o),
(382,482,o),
(314,482,cs),
(162,482,o),
(45,381,o),
(45,218,cs),
(45,77,o),
(116,-10,o),
(255,-10,cs),
(292,-10,o),
(324,0,o),
(458,97,c),
(458,116,l),
(406,92,o),
(357,81,o),
(311,81,cs),
(215,81,o),
(167,128,o),
(167,237,cs)
);
}
);
width = 618;
},
{
anchors = (
{
name = bottom;
pos = (486,-201);
},
{
name = top;
pos = (333,476);
}
);
layerId = m002;
shapes = (
{
closed = 1;
nodes = (
(212,350,o),
(252,392,o),
(323,392,cs),
(381,392,o),
(399,364,o),
(399,299,cs),
(399,-135,l),
(326,-151,l),
(326,-201,l),
(637,-201,l),
(637,-151,l),
(573,-134,l),
(573,374,l),
(597,475,l),
(574,491,l),
(442,430,l),
(493,425,l),
(442,474,o),
(394,489,o),
(322,489,cs),
(166,489,o),
(40,388,o),
(40,220,cs),
(40,76,o),
(109,-12,o),
(246,-12,cs),
(282,-12,o),
(306,-5,o),
(434,89,c),
(434,116,l),
(396,104,o),
(358,98,o),
(328,98,cs),
(247,98,o),
(212,137,o),
(212,240,cs)
);
}
);
width = 648;
}
);
unicode = 113;
},
{
glyphname = r;
kernLeft = n;
kernRight = r;
layers = (
{
anchors = (
{
name = bottom;
pos = (174,0);
},
{
name = top;
pos = (237,472);
}
);
layerId = m01;
shapes = (
{
closed = 1;
nodes = (
(337,481,o),
(301,465,o),
(193,362,c),
(207,343,l),
(234,359,o),
(250,361,o),
(274,361,cs),
(321,361,o),
(366,358,o),
(415,358,cs),
(427,358,o),
(442,383,o),
(442,424,cs),
(442,460,o),
(420,481,o),
(386,481,cs)
);
},
{
closed = 1;
nodes = (
(200,484,l),
(178,484,l),
(35,426,l),
(35,402,l),
(69,378,o),
(104,355,o),
(116,347,c),
(116,64,l),
(43,46,l),
(43,0,l),
(314,0,l),
(314,46,l),
(232,64,l),
(232,381,l)
);
}
);
width = 464;
},
{
anchors = (
{
name = bottom;
pos = (193,0);
},
{
name = top;
pos = (267,476);
}
);
layerId = m002;
shapes = (
{
closed = 1;
nodes = (
(375,487,o),
(345,471,o),
(227,346,c),
(242,320,l),
(267,334,o),
(277,336,o),
(305,336,cs),
(363,336,o),
(413,335,o),
(472,335,cs),
(486,335,o),
(505,369,o),
(505,416,cs),
(505,459,o),
(482,487,o),
(434,487,cs)
);
},
{
closed = 1;
nodes = (
(234,489,l),
(200,489,l),
(31,432,l),
(31,394,l),
(65,365,o),
(94,342,o),
(106,331,c),
(106,67,l),
(43,51,l),
(43,0,l),
(351,0,l),
(351,51,l),
(280,69,l),
(280,380,l)
);
}
);
width = 523;
}
);
unicode = 114;
},
{
glyphname = s;
kernLeft = s;
kernRight = s;
layers = (
{
anchors = (
{
name = bottom;
pos = (258,0);
},
{
name = top;
pos = (251,472);
}
);
layerId = m01;
shapes = (
{
closed = 1;
nodes = (
(136,482,o),
(55,434,o),
(55,341,cs),
(55,250,o),
(107,222,o),
(191,207,cs),
(275,193,o),
(354,196,o),
(354,127,cs),
(354,81,o),
(314,58,o),
(223,58,cs),
(186,58,o),
(142,61,o),
(110,71,c),
(172,20,l),
(111,149,l),
(46,149,l),
(66,13,l),
(105,-1,o),
(173,-9,o),
(228,-9,cs),
(387,-9,o),
(462,47,o),
(462,147,cs),
(462,256,o),
(383,276,o),
(299,287,cs),
(215,298,o),
(161,305,o),
(161,362,cs),
(161,399,o),
(196,419,o),
(269,419,cs),
(301,419,o),
(345,412,o),
(388,397,c),
(316,451,l),
(373,338,l),
(437,338,l),
(424,462,l),
(370,476,o),
(327,482,o),
(277,482,cs)
);
}
);
width = 507;
},
{
anchors = (
{
name = bottom;
pos = (272,0);
},
{
name = top;
pos = (264,476);
}
);
layerId = m002;
shapes = (
{
closed = 1;
nodes = (
(132,489,o),
(47,435,o),
(47,332,cs),
(47,254,o),
(83,215,o),
(185,196,cs),
(286,178,o),
(335,176,o),
(335,125,cs),
(335,87,o),
(306,68,o),
(223,68,cs),
(185,68,o),
(136,73,o),
(108,80,c),
(180,23,l),
(106,149,l),
(42,149,l),
(64,6,l),
(106,-4,o),
(177,-12,o),
(244,-12,cs),
(423,-12,o),
(499,50,o),
(499,153,cs),
(499,253,o),
(439,285,o),
(336,300,cs),
(233,315,o),
(203,325,o),
(203,365,cs),
(203,397,o),
(230,413,o),
(294,413,cs),
(320,413,o),
(363,407,o),
(403,395,c),
(333,455,l),
(399,344,l),
(467,344,l),
(454,472,l),
(403,484,o),
(356,489,o),
(295,489,cs)
);
}
);
width = 537;
}
);
unicode = 115;
},
{
glyphname = scedilla;
kernLeft = s;
kernRight = s;
layers = (
{
layerId = m01;
shapes = (
{
closed = 1;
nodes = (
(136,482,o),
(55,434,o),
(55,341,cs),
(55,250,o),
(107,222,o),
(191,207,cs),
(275,193,o),
(354,196,o),
(354,127,cs),
(354,81,o),
(314,58,o),
(223,58,cs),
(186,58,o),
(142,61,o),
(110,71,c),
(172,20,l),
(111,149,l),
(46,149,l),
(66,13,l),
(105,-1,o),
(173,-9,o),
(228,-9,cs),
(387,-9,o),
(462,47,o),
(462,147,cs),
(462,256,o),
(383,276,o),
(299,287,cs),
(215,298,o),
(161,305,o),
(161,362,cs),
(161,399,o),
(196,419,o),
(269,419,cs),
(301,419,o),
(345,412,o),
(388,397,c),
(316,451,l),
(373,338,l),
(437,338,l),
(424,462,l),
(370,476,o),
(327,482,o),
(277,482,cs)
);
},
{
closed = 1;
nodes = (
(296,-214,o),
(347,-187,o),
(347,-128,cs),
(347,-88,o),
(328,-59,o),
(226,-41,c),
(230,-80,l),
(307,13,l),
(253,13,l),
(174,-87,l),
(174,-99,l),
(262,-113,o),
(275,-123,o),
(275,-143,cs),
(275,-164,o),
(262,-174,o),
(230,-174,cs),
(202,-174,o),
(176,-144,o),
(168,-144,cs),
(156,-144,o),
(142,-155,o),
(142,-174,cs),
(142,-200,o),
(158,-214,o),
(218,-214,cs)
);
}
);
width = 507;
},
{
layerId = m002;
shapes = (
{
closed = 1;
nodes = (
(132,489,o),
(47,435,o),
(47,332,cs),
(47,254,o),
(83,215,o),
(185,196,cs),
(286,178,o),
(335,176,o),
(335,125,cs),
(335,87,o),
(306,68,o),
(223,68,cs),
(185,68,o),
(136,73,o),
(108,80,c),
(180,23,l),
(106,149,l),
(42,149,l),
(64,6,l),
(106,-4,o),
(177,-12,o),
(244,-12,cs),
(423,-12,o),
(499,50,o),
(499,153,cs),
(499,253,o),
(439,285,o),
(336,300,cs),
(233,315,o),
(203,325,o),
(203,365,cs),
(203,397,o),
(230,413,o),
(294,413,cs),
(320,413,o),
(363,407,o),
(403,395,c),
(333,455,l),
(399,344,l),
(467,344,l),
(454,472,l),
(403,484,o),
(356,489,o),
(295,489,cs)
);
},
{
closed = 1;
nodes = (
(313,-214,o),
(372,-190,o),
(372,-124,cs),
(372,-80,o),
(353,-52,o),
(240,-35,c),
(243,-84,l),
(333,18,l),
(267,18,l),
(179,-86,l),
(179,-102,l),
(269,-114,o),
(282,-122,o),
(282,-142,cs),
(282,-160,o),
(272,-168,o),
(243,-168,cs),
(214,-168,o),
(182,-144,o),
(172,-144,cs),
(161,-144,o),
(147,-153,o),
(147,-173,cs),
(147,-200,o),
(163,-214,o),
(228,-214,cs)
);
}
);
width = 537;
}
);
unicode = 351;
},
{
glyphname = germandbls;
kernLeft = f;
layers = (
{
layerId = m01;
shapes = (
{
closed = 1;
nodes = (
(120,64,l),
(48,46,l),
(48,0,l),
(305,0,l),
(305,46,l),
(237,64,l),
(237,509,ls),
(237,587,o),
(276,613,o),
(380,613,cs),
(461,613,o),
(495,583,o),
(495,535,cs),
(495,467,o),
(374,456,o),
(374,343,cs),
(374,184,o),
(582,253,o),
(582,129,cs),
(582,84,o),
(556,58,o),
(481,58,cs),
(449,58,o),
(412,61,o),
(385,71,c),
(448,20,l),
(397,149,l),
(332,149,l),
(351,13,l),
(384,-1,o),
(441,-9,o),
(485,-9,cs),
(623,-9,o),
(689,48,o),
(689,154,cs),
(689,336,o),
(474,288,o),
(474,375,cs),
(474,446,o),
(614,449,o),
(614,557,cs),
(614,637,o),
(560,683,o),
(391,683,cs),
(219,683,o),
(120,620,o),
(120,493,cs)
);
},
{
closed = 1;
nodes = (
(28,447,l),
(28,415,l),
(120,381,l),
(128,484,l)
);
}
);
width = 725;
},
{
layerId = m002;
shapes = (
{
closed = 1;
nodes = (
(118,67,l),
(54,51,l),
(54,0,l),
(340,0,l),
(340,51,l),
(291,67,l),
(291,500,ls),
(291,574,o),
(317,596,o),
(413,596,cs),
(488,596,o),
(515,574,o),
(515,530,cs),
(515,458,o),
(403,460,o),
(403,334,cs),
(403,175,o),
(597,241,o),
(597,130,cs),
(597,93,o),
(579,68,o),
(515,68,cs),
(483,68,o),
(442,73,o),
(419,80,c),
(508,23,l),
(443,149,l),
(379,149,l),
(395,6,l),
(429,-4,o),
(486,-12,o),
(532,-12,cs),
(689,-12,o),
(754,48,o),
(754,166,cs),
(754,359,o),
(540,312,o),
(540,386,cs),
(540,456,o),
(685,434,o),
(685,557,cs),
(685,636,o),
(634,685,o),
(425,685,cs),
(209,685,o),
(118,622,o),
(118,473,cs)
);
},
{
closed = 1;
nodes = (
(19,444,l),
(19,407,l),
(118,364,l),
(126,490,l)
);
}
);
width = 788;
}
);
unicode = 223;
},
{
glyphname = t;
kernLeft = t;
kernRight = t;
layers = (
{
anchors = (
{
name = bottom;
pos = (266,0);
},
{
name = right;
pos = (215,705);
}
);
layerId = m01;
shapes = (
{
closed = 1;
nodes = (
(220,458,l),
(220,573,l),
(180,573,l),
(138,514,o),
(94,484,o),
(15,459,c),
(15,425,l),
(104,389,l),
(104,106,ls),
(104,28,o),
(161,-10,o),
(239,-10,cs),
(281,-10,o),
(323,3,o),
(408,47,c),
(408,94,l),
(371,84,o),
(338,79,o),
(311,79,cs),
(247,79,o),
(220,97,o),
(220,151,cs)
);
},
{
closed = 1;
nodes = (
(398,392,l),
(398,472,l),
(177,472,l),
(174,392,l)
);
}
);
width = 429;
},
{
anchors = (
{
name = bottom;
pos = (289,0);
},
{
name = right;
pos = (267,705);
}
);
layerId = m002;
shapes = (
{
closed = 1;
nodes = (
(273,465,l),
(273,598,l),
(225,598,l),
(159,546,o),
(54,487,o),
(9,470,c),
(9,429,l),
(100,368,l),
(100,126,ls),
(100,34,o),
(158,-12,o),
(259,-12,cs),
(310,-12,o),
(353,1,o),
(465,50,c),
(465,114,l),
(424,105,o),
(391,101,o),
(362,101,cs),
(295,101,o),
(273,118,o),
(273,169,cs)
);
},
{
closed = 1;
nodes = (
(452,376,l),
(452,476,l),
(205,476,l),
(203,376,l)
);
}
);
width = 482;
}
);
unicode = 116;
},
{
glyphname = u;
kernLeft = u;
kernRight = u;
layers = (
{
anchors = (
{
name = bottom;
pos = (312,0);
},
{
name = horn;
pos = (492,472);
},
{
name = right;
pos = (531,0);
},
{
name = top;
pos = (296,472);
}
);
layerId = m01;
shapes = (
{
closed = 1;
nodes = (
(214,404,l),
(224,477,l),
(16,471,l),
(16,425,l),
(98,390,l),
(98,131,ls),
(98,39,o),
(143,-10,o),
(244,-10,cs),
(297,-10,o),
(310,-5,o),
(424,83,c),
(417,111,l),
(383,100,o),
(341,92,o),
(305,92,cs),
(239,92,o),
(214,114,o),
(214,167,cs)
);
},
{
closed = 1;
nodes = (
(466,-10,l),
(609,48,l),
(609,72,l),
(590,82,o),
(537,111,o),
(526,117,c),
(526,403,l),
(533,476,l),
(345,472,l),
(345,427,l),
(409,395,l),
(409,77,l),
(446,-10,l)
);
}
);
width = 630;
},
{
anchors = (
{
name = bottom;
pos = (337,0);
},
{
name = horn;
pos = (538,476);
},
{
name = right;
pos = (550,0);
},
{
name = top;
pos = (327,476);
}
);
layerId = m002;
shapes = (
{
closed = 1;
nodes = (
(264,406,l),
(274,481,l),
(15,471,l),
(15,424,l),
(90,381,l),
(90,128,ls),
(90,38,o),
(139,-12,o),
(242,-12,cs),
(291,-12,o),
(302,-8,o),
(429,91,c),
(421,134,l),
(389,126,o),
(357,121,o),
(332,121,cs),
(282,121,o),
(264,137,o),
(264,177,cs)
);
},
{
closed = 1;
nodes = (
(474,-12,l),
(659,47,l),
(659,80,l),
(640,93,o),
(591,126,o),
(579,133,c),
(579,402,l),
(583,478,l),
(377,476,l),
(377,430,l),
(406,396,l),
(406,84,l),
(449,-12,l)
);
}
);
width = 677;
}
);
unicode = 117;
},
{
glyphname = uogonek;
kernLeft = u;
kernRight = u;
layers = (
{
layerId = m01;
shapes = (
{
closed = 1;
nodes = (
(214,404,l),
(224,477,l),
(16,471,l),
(16,425,l),
(98,390,l),
(98,131,ls),
(98,39,o),
(143,-10,o),
(244,-10,cs),
(297,-10,o),
(310,-5,o),
(424,83,c),
(417,111,l),
(383,100,o),
(341,92,o),
(305,92,cs),
(239,92,o),
(214,114,o),
(214,167,cs)
);
},
{
closed = 1;
nodes = (
(466,-10,l),
(609,48,l),
(609,72,l),
(590,82,o),
(537,111,o),
(526,117,c),
(526,403,l),
(533,476,l),
(345,472,l),
(345,427,l),
(409,395,l),
(409,77,l),
(446,-10,l)
);
},
{
closed = 1;
nodes = (
(509,25,l),
(469,25,l),
(420,-33,ls),
(372,-88,o),
(365,-112,o),
(365,-142,cs),
(365,-185,o),
(388,-214,o),
(446,-214,cs),
(479,-214,o),
(499,-206,o),
(535,-179,c),
(535,-143,l),
(511,-155,o),
(499,-157,o),
(481,-157,cs),
(456,-157,o),
(441,-143,o),
(441,-118,cs),
(441,-96,o),
(445,-76,o),
(471,-35,cs)
);
}
);
width = 630;
},
{
layerId = m002;
shapes = (
{
closed = 1;
nodes = (
(264,406,l),
(274,481,l),
(15,471,l),
(15,424,l),
(90,381,l),
(90,128,ls),
(90,38,o),
(139,-12,o),
(242,-12,cs),
(291,-12,o),
(302,-8,o),
(429,91,c),
(421,134,l),
(389,126,o),
(357,121,o),
(332,121,cs),
(282,121,o),
(264,137,o),
(264,177,cs)
);
},
{
closed = 1;
nodes = (
(474,-12,l),
(659,47,l),
(659,80,l),
(640,93,o),
(591,126,o),
(579,133,c),
(579,402,l),
(583,478,l),
(377,476,l),
(377,430,l),
(406,396,l),
(406,84,l),
(449,-12,l)
);
},
{
closed = 1;
nodes = (
(541,36,l),
(495,36,l),
(438,-22,ls),
(380,-80,o),
(371,-106,o),
(371,-137,cs),
(371,-185,o),
(396,-214,o),
(458,-214,cs),
(492,-214,o),
(513,-206,o),
(553,-178,c),
(553,-134,l),
(528,-145,o),
(516,-147,o),
(498,-147,cs),
(475,-147,o),
(459,-136,o),
(459,-112,cs),
(459,-90,o),
(464,-74,o),
(491,-35,cs)
);
}
);
width = 677;
}
);
unicode = 371;
},
{
glyphname = v;
layers = (
{
anchors = (
{
name = bottom;
pos = (320,0);
},
{
name = top;
pos = (329,472);
}
);
layerId = m01;
shapes = (
{
closed = 1;
nodes = (
(607,428,l),
(607,472,l),
(404,472,l),
(404,428,l),
(469,410,l),
(335,59,l),
(357,59,l),
(205,409,l),
(273,428,l),
(273,472,l),
(8,472,l),
(8,428,l),
(76,404,l),
(261,-7,l),
(379,-7,l),
(553,412,l)
);
}
);
width = 630;
},
{
anchors = (
{
name = bottom;
pos = (331,0);
},
{
name = top;
pos = (348,476);
}
);
layerId = m002;
shapes = (
{
closed = 1;
nodes = (
(635,425,l),
(635,476,l),
(423,476,l),
(423,425,l),
(474,410,l),
(350,60,l),
(388,60,l),
(249,411,l),
(305,425,l),
(305,476,l),
(6,476,l),
(6,426,l),
(65,404,l),
(237,-3,l),
(424,-3,l),
(588,411,l)
);
}
);
width = 654;
}
);
unicode = 118;
},
{
glyphname = w;
kernLeft = w;
kernRight = w;
layers = (
{
anchors = (
{
name = bottom;
pos = (429,0);
},
{
name = top;
pos = (437,472);
}
);
layerId = m01;
shapes = (
{
closed = 1;
nodes = (
(606,63,l),
(637,63,l),
(502,480,l),
(393,480,l),
(252,56,l),
(286,54,l),
(198,409,l),
(263,428,l),
(263,472,l),
(12,472,l),
(12,428,l),
(80,404,l),
(185,-7,l),
(302,-7,l),
(446,407,l),
(409,404,l),
(542,-7,l),
(659,-7,l),
(765,412,l),
(817,428,l),
(817,472,l),
(622,472,l),
(622,428,l),
(686,410,l)
);
}
);
width = 840;
},
{
anchors = (
{
name = bottom;
pos = (449,0);
},
{
name = top;
pos = (465,476);
}
);
layerId = m002;
shapes = (
{
closed = 1;
nodes = (
(657,70,l),
(700,68,l),
(565,480,l),
(406,480,l),
(276,80,l),
(316,74,l),
(240,411,l),
(289,425,l),
(289,476,l),
(9,476,l),
(9,426,l),
(67,404,l),
(168,-3,l),
(349,-3,l),
(474,368,l),
(434,366,l),
(554,-3,l),
(735,-3,l),
(834,411,l),
(876,425,l),
(876,476,l),
(676,476,l),
(676,425,l),
(721,410,l)
);
}
);
width = 895;
}
);
unicode = 119;
},
{
glyphname = x;
layers = (
{
anchors = (
{
name = bottom;
pos = (303,0);
},
{
name = top;
pos = (306,472);
}
);
layerId = m01;
shapes = (
{
closed = 1;
nodes = (
(349,270,l),
(338,283,l),
(229,413,l),
(276,429,l),
(276,472,l),
(27,472,l),
(27,429,l),
(85,407,l),
(247,221,l),
(261,205,l),
(383,59,l),
(336,44,l),
(336,0,l),
(585,0,l),
(585,44,l),
(527,65,l)
);
},
{
closed = 1;
nodes = (
(351,230,l),
(513,413,l),
(564,429,l),
(564,472,l),
(368,472,l),
(368,429,l),
(426,415,l),
(300,268,l),
(238,244,l),
(73,60,l),
(22,44,l),
(22,0,l),
(220,0,l),
(220,44,l),
(162,59,l),
(291,206,l)
);
}
);
width = 599;
},
{
anchors = (
{
name = bottom;
pos = (326,0);
},
{
name = top;
pos = (335,476);
}
);
layerId = m002;
shapes = (
{
closed = 1;
nodes = (
(407,277,l),
(393,293,l),
(289,419,l),
(310,428,l),
(310,476,l),
(27,476,l),
(27,428,l),
(79,411,l),
(240,221,l),
(252,206,l),
(376,58,l),
(355,48,l),
(355,0,l),
(638,0,l),
(638,48,l),
(586,65,l)
);
},
{
closed = 1;
nodes = (
(419,225,l),
(567,413,l),
(617,428,l),
(617,476,l),
(400,476,l),
(400,428,l),
(453,416,l),
(341,267,l),
(225,254,l),
(68,64,l),
(17,48,l),
(17,0,l),
(239,0,l),
(239,48,l),
(186,61,l),
(309,213,l)
);
}
);
width = 646;
}
);
unicode = 120;
},
{
glyphname = y;
kernLeft = y;
kernRight = y;
layers = (
{
anchors = (
{
name = bottom;
pos = (437,-54);
},
{
name = top;
pos = (319,472);
}
);
layerId = m01;
shapes = (
{
closed = 1;
nodes = (
(209,409,l),
(277,428,l),
(277,472,l),
(11,472,l),
(11,428,l),
(80,404,l),
(295,-17,l),
(376,68,l)
);
},
{
closed = 1;
nodes = (
(235,-214,o),
(284,-172,o),
(326,-75,cs),
(537,412,l),
(592,428,l),
(592,472,l),
(388,472,l),
(388,428,l),
(452,410,l),
(314,56,l),
(300,34,l),
(283,-2,ls),
(251,-70,o),
(225,-98,o),
(178,-98,cs),
(147,-98,o),
(98,-87,o),
(84,-87,cs),
(74,-87,o),
(55,-111,o),
(55,-140,cs),
(55,-187,o),
(86,-214,o),
(148,-214,cs)
);
}
);
width = 610;
},
{
anchors = (
{
name = bottom;
pos = (488,-45);
},
{
name = top;
pos = (343,476);
}
);
layerId = m002;
shapes = (
{
closed = 1;
nodes = (
(251,411,l),
(306,425,l),
(306,476,l),
(5,476,l),
(5,426,l),
(66,404,l),
(305,-34,l),
(418,80,l)
);
},
{
closed = 1;
nodes = (
(265,-214,o),
(331,-166,o),
(379,-56,cs),
(581,411,l),
(631,425,l),
(631,476,l),
(417,476,l),
(417,425,l),
(468,410,l),
(330,58,l),
(304,21,l),
(288,-9,ls),
(267,-50,o),
(246,-73,o),
(192,-73,cs),
(149,-73,o),
(104,-63,o),
(86,-63,cs),
(75,-63,o),
(53,-95,o),
(53,-131,cs),
(53,-184,o),
(88,-214,o),
(165,-214,cs)
);
}
);
width = 644;
}
);
unicode = 121;
},
{
glyphname = z;
kernLeft = z;
kernRight = z;
layers = (
{
anchors = (
{
name = bottom;
pos = (258,0);
},
{
name = top;
pos = (265,472);
}
);
layerId = m01;
shapes = (
{
closed = 1;
nodes = (
(447,0,l),
(487,176,l),
(436,176,l),
(340,22,l),
(399,72,l),
(131,72,l),
(161,26,l),
(466,428,l),
(466,472,l),
(125,472,l),
(104,482,l),
(59,482,l),
(43,315,l),
(95,315,l),
(167,458,l),
(80,400,l),
(385,400,l),
(347,445,l),
(47,44,l),
(47,0,l)
);
}
);
width = 517;
},
{
anchors = (
{
name = bottom;
pos = (273,0);
},
{
name = top;
pos = (287,476);
}
);
layerId = m002;
shapes = (
{
closed = 1;
nodes = (
(487,0,l),
(532,198,l),
(474,198,l),
(363,31,l),
(438,94,l),
(139,94,l),
(202,36,l),
(505,405,l),
(505,476,l),
(131,476,l),
(102,489,l),
(58,489,l),
(36,301,l),
(98,301,l),
(177,462,l),
(77,383,l),
(412,383,l),
(344,439,l),
(50,73,l),
(50,0,l)
);
}
);
width = 557;
}
);
unicode = 122;
},
{
glyphname = f_f;
kernLeft = f;
kernRight = f;
layers = (
{
layerId = m01;
shapes = (
{
closed = 1;
nodes = (
(310,46,l),
(237,64,l),
(237,510,ls),
(237,569,o),
(271,596,o),
(335,596,cs),
(393,596,o),
(441,570,o),
(463,534,c),
(533,605,l),
(497,646,o),
(445,666,o),
(353,666,cs),
(204,666,o),
(120,603,o),
(120,481,cs),
(120,64,l),
(48,46,l),
(48,0,l),
(310,0,l)
);
},
{
closed = 1;
nodes = (
(730,472,l),
(183,472,l),
(128,484,l),
(28,447,l),
(28,415,l),
(120,381,l),
(162,392,l),
(730,392,l)
);
},
{
closed = 1;
nodes = (
(553,526,ls),
(553,585,o),
(587,613,o),
(656,613,cs),
(723,613,o),
(754,543,o),
(771,543,cs),
(809,543,o),
(836,569,o),
(836,604,cs),
(836,653,o),
(796,683,o),
(668,683,cs),
(519,683,o),
(436,620,o),
(436,493,cs),
(436,64,l),
(363,46,l),
(363,0,l),
(635,0,l),
(635,46,l),
(553,64,l)
);
}
);
width = 750;
},
{
layerId = m002;
shapes = (
{
closed = 1;
nodes = (
(355,51,l),
(291,67,l),
(291,500,ls),
(291,555,o),
(315,576,o),
(376,576,cs),
(443,576,o),
(481,547,o),
(505,512,c),
(591,587,l),
(539,648,o),
(481,664,o),
(385,664,cs),
(201,664,o),
(118,602,o),
(118,468,cs),
(118,67,l),
(54,51,l),
(54,0,l),
(355,0,l)
);
},
{
closed = 1;
nodes = (
(817,476,l),
(214,476,l),
(126,490,l),
(19,444,l),
(19,407,l),
(118,364,l),
(203,376,l),
(817,376,l)
);
},
{
closed = 1;
nodes = (
(643,518,ls),
(643,573,o),
(666,596,o),
(729,596,cs),
(809,596,o),
(832,522,o),
(851,522,cs),
(899,522,o),
(932,558,o),
(932,596,cs),
(932,655,o),
(887,685,o),
(737,685,cs),
(552,685,o),
(469,622,o),
(469,473,cs),
(469,67,l),
(406,51,l),
(406,0,l),
(715,0,l),
(715,51,l),
(643,67,l)
);
}
);
width = 835;
}
);
unicode = 64256;
},
{
glyphname = f_f_i;
kernLeft = f;
kernRight = i;
layers = (
{
layerId = m01;
shapes = (
{
closed = 1;
nodes = (
(752,425,l),
(752,64,l),
(679,46,l),
(679,0,l),
(937,0,l),
(937,46,l),
(868,64,l),
(868,366,l),
(876,480,l),
(841,480,l),
(755,472,l),
(183,472,l),
(128,484,l),
(28,447,l),
(28,415,l),
(120,381,l),
(162,392,l),
(783,392,l)
);
},
{
closed = 1;
nodes = (
(310,46,l),
(237,64,l),
(237,510,ls),
(237,569,o),
(271,596,o),
(335,596,cs),
(393,596,o),
(441,570,o),
(463,534,c),
(533,605,l),
(497,646,o),
(445,666,o),
(353,666,cs),
(204,666,o),
(120,603,o),
(120,481,cs),
(120,64,l),
(48,46,l),
(48,0,l),
(310,0,l)
);
},
{
closed = 1;
nodes = (
(553,526,ls),
(553,585,o),
(589,613,o),
(659,613,cs),
(728,613,o),
(761,541,o),
(780,541,cs),
(822,541,o),
(851,567,o),
(851,603,cs),
(851,653,o),
(802,683,o),
(672,683,cs),
(520,683,o),
(436,620,o),
(436,493,cs),
(436,64,l),
(363,46,l),
(363,0,l),
(625,0,l),
(625,46,l),
(553,64,l)
);
}
);
width = 969;
},
{
layerId = m002;
shapes = (
{
closed = 1;
nodes = (
(820,411,l),
(820,67,l),
(757,51,l),
(757,0,l),
(1056,0,l),
(1056,51,l),
(994,67,l),
(994,342,l),
(1004,480,l),
(953,480,l),
(838,476,l),
(214,476,l),
(126,490,l),
(19,444,l),
(19,407,l),
(118,364,l),
(203,376,l),
(855,376,l)
);
},
{
closed = 1;
nodes = (
(355,51,l),
(291,67,l),
(291,500,ls),
(291,555,o),
(315,576,o),
(376,576,cs),
(443,576,o),
(481,547,o),
(505,512,c),
(591,587,l),
(539,648,o),
(481,664,o),
(385,664,cs),
(201,664,o),
(118,602,o),
(118,468,cs),
(118,67,l),
(54,51,l),
(54,0,l),
(355,0,l)
);
},
{
closed = 1;
nodes = (
(643,518,ls),
(643,573,o),
(676,596,o),
(741,596,cs),
(824,596,o),
(849,520,o),
(870,520,cs),
(921,520,o),
(956,557,o),
(956,595,cs),
(956,655,o),
(905,685,o),
(748,685,cs),
(556,685,o),
(469,622,o),
(469,473,cs),
(469,67,l),
(406,51,l),
(406,0,l),
(706,0,l),
(706,51,l),
(643,67,l)
);
}
);
width = 1085;
}
);
unicode = 64259;
},
{
glyphname = f_f_l;
kernLeft = f;
kernRight = l;
layers = (
{
layerId = m01;
shapes = (
{
closed = 1;
nodes = (
(553,526,ls),
(553,585,o),
(589,613,o),
(659,613,cs),
(697,613,o),
(728,599,o),
(752,578,cs),
(752,64,l),
(679,46,l),
(679,0,l),
(937,0,l),
(937,46,l),
(868,64,l),
(868,580,l),
(878,683,l),
(851,683,l),
(787,662,l),
(813,661,l),
(775,675,o),
(734,683,o),
(672,683,cs),
(520,683,o),
(436,620,o),
(436,493,cs),
(436,64,l),
(363,46,l),
(363,0,l),
(625,0,l),
(625,46,l),
(553,64,l)
);
},
{
closed = 1;
nodes = (
(310,46,l),
(237,64,l),
(237,510,ls),
(237,569,o),
(271,596,o),
(335,596,cs),
(393,596,o),
(441,570,o),
(463,534,c),
(533,605,l),
(497,646,o),
(445,666,o),
(353,666,cs),
(204,666,o),
(120,603,o),
(120,481,cs),
(120,64,l),
(48,46,l),
(48,0,l),
(310,0,l)
);
},
{
closed = 1;
nodes = (
(183,472,l),
(128,484,l),
(28,447,l),
(28,415,l),
(120,381,l),
(162,392,l),
(692,392,l),
(692,472,l)
);
}
);
width = 969;
},
{
layerId = m002;
shapes = (
{
closed = 1;
nodes = (
(643,518,ls),
(643,573,o),
(676,596,o),
(741,596,cs),
(774,596,o),
(800,586,o),
(820,571,cs),
(820,67,l),
(757,51,l),
(757,0,l),
(1056,0,l),
(1056,51,l),
(994,67,l),
(994,562,l),
(1005,685,l),
(962,685,l),
(887,663,l),
(913,662,l),
(869,678,o),
(820,685,o),
(748,685,cs),
(556,685,o),
(469,622,o),
(469,473,cs),
(469,67,l),
(406,51,l),
(406,0,l),
(706,0,l),
(706,51,l),
(643,67,l)
);
},
{
closed = 1;
nodes = (
(355,51,l),
(291,67,l),
(291,500,ls),
(291,555,o),
(315,576,o),
(376,576,cs),
(443,576,o),
(481,547,o),
(505,512,c),
(591,587,l),
(539,648,o),
(481,664,o),
(385,664,cs),
(201,664,o),
(118,602,o),
(118,468,cs),
(118,67,l),
(54,51,l),
(54,0,l),
(355,0,l)
);
},
{
closed = 1;
nodes = (
(214,476,l),
(126,490,l),
(19,444,l),
(19,407,l),
(118,364,l),
(203,376,l),
(768,376,l),
(768,476,l)
);
}
);
width = 1085;
}
);
unicode = 64260;
},
{
glyphname = fi;
kernLeft = f;
kernRight = i;
layers = (
{
layerId = m01;
shapes = (
{
closed = 1;
nodes = (
(436,398,l),
(436,64,l),
(363,46,l),
(363,0,l),
(622,0,l),
(622,46,l),
(553,64,l),
(553,366,l),
(560,480,l),
(526,480,l),
(440,472,l),
(183,472,l),
(128,484,l),
(28,447,l),
(28,415,l),
(120,381,l),
(162,392,l),
(395,392,l)
);
},
{
closed = 1;
nodes = (
(237,526,ls),
(237,585,o),
(274,613,o),
(344,613,cs),
(412,613,o),
(446,541,o),
(465,541,cs),
(507,541,o),
(536,567,o),
(536,603,cs),
(536,653,o),
(486,683,o),
(356,683,cs),
(205,683,o),
(120,620,o),
(120,493,cs),
(120,64,l),
(48,46,l),
(48,0,l),
(310,0,l),
(310,46,l),
(237,64,l)
);
}
);
width = 653;
},
{
layerId = m002;
shapes = (
{
closed = 1;
nodes = (
(469,394,l),
(469,67,l),
(406,51,l),
(406,0,l),
(705,0,l),
(705,51,l),
(643,67,l),
(643,342,l),
(653,480,l),
(601,480,l),
(487,476,l),
(214,476,l),
(126,490,l),
(19,444,l),
(19,407,l),
(118,364,l),
(203,376,l),
(466,376,l)
);
},
{
closed = 1;
nodes = (
(291,518,ls),
(291,573,o),
(324,596,o),
(389,596,cs),
(473,596,o),
(498,520,o),
(518,520,cs),
(570,520,o),
(605,557,o),
(605,595,cs),
(605,655,o),
(554,685,o),
(397,685,cs),
(204,685,o),
(118,622,o),
(118,473,cs),
(118,67,l),
(54,51,l),
(54,0,l),
(355,0,l),
(355,51,l),
(291,67,l)
);
}
);
width = 734;
}
);
unicode = 64257;
},
{
glyphname = fl;
kernLeft = f;
kernRight = l;
layers = (
{
layerId = m01;
shapes = (
{
closed = 1;
nodes = (
(237,526,ls),
(237,585,o),
(274,613,o),
(344,613,cs),
(382,613,o),
(412,599,o),
(436,578,cs),
(436,64,l),
(363,46,l),
(363,0,l),
(622,0,l),
(622,46,l),
(553,64,l),
(553,580,l),
(562,683,l),
(536,683,l),
(472,662,l),
(498,661,l),
(460,675,o),
(418,683,o),
(356,683,cs),
(205,683,o),
(120,620,o),
(120,493,cs),
(120,64,l),
(48,46,l),
(48,0,l),
(310,0,l),
(310,46,l),
(237,64,l)
);
},
{
closed = 1;
nodes = (
(183,472,l),
(128,484,l),
(28,447,l),
(28,415,l),
(120,381,l),
(162,392,l),
(377,392,l),
(377,472,l)
);
}
);
width = 653;
},
{
layerId = m002;
shapes = (
{
closed = 1;
nodes = (
(291,518,ls),
(291,573,o),
(324,596,o),
(389,596,cs),
(423,596,o),
(449,586,o),
(469,571,cs),
(469,67,l),
(406,51,l),
(406,0,l),
(705,0,l),
(705,51,l),
(643,67,l),
(643,562,l),
(654,685,l),
(611,685,l),
(535,663,l),
(561,662,l),
(517,678,o),
(469,685,o),
(397,685,cs),
(204,685,o),
(118,622,o),
(118,473,cs),
(118,67,l),
(54,51,l),
(54,0,l),
(355,0,l),
(355,51,l),
(291,67,l)
);
},
{
closed = 1;
nodes = (
(214,476,l),
(126,490,l),
(19,444,l),
(19,407,l),
(118,364,l),
(203,376,l),
(417,376,l),
(417,476,l)
);
}
);
width = 733;
}
);
unicode = 64258;
},
{
color = 9;
glyphname = ordfeminine;
layers = (
{
layerId = m01;
shapes = (
{
closed = 1;
nodes = (
(405,225,l),
(405,294,l),
(71,294,l),
(71,225,l)
);
},
{
closed = 1;
nodes = (
(283,547,l),
(106,519,o),
(71,492,o),
(71,431,cs),
(71,377,o),
(105,349,o),
(174,349,cs),
(235,349,o),
(268,374,o),
(283,441,c),
(276,440,l),
(277,374,o),
(295,351,o),
(340,351,cs),
(365,351,o),
(388,357,o),
(413,368,c),
(413,407,l),
(401,404,o),
(395,403,o),
(388,403,cs),
(369,403,o),
(363,409,o),
(363,437,cs),
(363,554,ls),
(363,628,o),
(332,660,o),
(244,660,cs),
(158,660,o),
(75,616,o),
(75,580,cs),
(75,566,o),
(87,558,o),
(112,558,cs),
(138,558,o),
(147,564,o),
(156,577,cs),
(164,589,o),
(169,606,o),
(175,632,c),
(145,602,l),
(169,609,o),
(186,611,o),
(208,611,cs),
(257,611,o),
(273,592,o),
(273,552,cs),
(273,455,ls),
(273,426,o),
(251,406,o),
(211,406,cs),
(172,406,o),
(159,417,o),
(159,442,cs),
(159,472,o),
(179,485,o),
(283,499,c)
);
}
);
width = 471;
},
{
layerId = m002;
shapes = (
{
closed = 1;
nodes = (
(438,205,l),
(438,287,l),
(66,287,l),
(66,205,l)
);
},
{
closed = 1;
nodes = (
(278,541,l),
(105,517,o),
(64,491,o),
(64,427,cs),
(64,370,o),
(99,341,o),
(170,341,cs),
(232,341,o),
(260,366,o),
(278,437,c),
(272,434,l),
(275,368,o),
(301,342,o),
(353,342,cs),
(381,342,o),
(410,349,o),
(440,364,c),
(440,404,l),
(427,402,o),
(422,401,o),
(417,401,cs),
(399,401,o),
(392,407,o),
(392,428,cs),
(392,552,ls),
(392,628,o),
(354,662,o),
(259,662,cs),
(162,662,o),
(69,619,o),
(69,578,cs),
(69,562,o),
(84,553,o),
(112,553,cs),
(145,553,o),
(155,560,o),
(164,575,cs),
(173,587,o),
(177,605,o),
(183,635,c),
(161,599,l),
(178,602,o),
(192,604,o),
(212,604,cs),
(254,604,o),
(268,587,o),
(268,551,cs),
(268,451,ls),
(268,429,o),
(255,415,o),
(224,415,cs),
(194,415,o),
(184,424,o),
(184,447,cs),
(184,474,o),
(201,485,o),
(278,493,c)
);
}
);
width = 495;
}
);
unicode = 170;
},
{
color = 9;
glyphname = ordmasculine;
layers = (
{
layerId = m01;
shapes = (
{
closed = 1;
nodes = (
(407,225,l),
(407,294,l),
(73,294,l),
(73,225,l)
);
},
{
closed = 1;
nodes = (
(183,413,o),
(157,444,o),
(157,506,cs),
(157,566,o),
(185,596,o),
(242,596,cs),
(296,596,o),
(323,565,o),
(323,503,cs),
(323,443,o),
(295,413,o),
(237,413,cs)
);
},
{
closed = 1;
nodes = (
(351,349,o),
(412,401,o),
(412,505,cs),
(412,606,o),
(350,660,o),
(243,660,cs),
(129,660,o),
(67,608,o),
(67,504,cs),
(67,403,o),
(129,349,o),
(236,349,cs)
);
}
);
width = 479;
},
{
layerId = m002;
shapes = (
{
closed = 1;
nodes = (
(437,205,l),
(437,287,l),
(65,287,l),
(65,205,l)
);
},
{
closed = 1;
nodes = (
(206,420,o),
(187,445,o),
(187,505,cs),
(187,560,o),
(207,583,o),
(253,583,cs),
(297,583,o),
(315,558,o),
(315,498,cs),
(315,443,o),
(296,420,o),
(249,420,cs)
);
},
{
closed = 1;
nodes = (
(375,341,o),
(440,395,o),
(440,503,cs),
(440,608,o),
(377,662,o),
(256,662,cs),
(128,662,o),
(63,608,o),
(63,500,cs),
(63,395,o),
(126,341,o),
(246,341,cs)
);
}
);
width = 502;
}
);
unicode = 186;
},
{
glyphname = "alef-hb";
kernLeft = "alef-hb";
kernRight = "alef-hb";
layers = (
{
anchors = (
{
name = bottom;
pos = (245,0);
},
{
name = bottomleft;
pos = (15,0);
},
{
name = center;
pos = (285,324);
},
{
name = top;
pos = (367,800);
},
{
name = topleft;
pos = (7,604);
}
);
layerId = m01;
shapes = (
{
closed = 1;
nodes = (
(70,-29,o),
(61,-8,o),
(61,11,cs),
(61,40,o),
(68,76,o),
(68,105,cs),
(68,146,o),
(60,216,o),
(60,261,cs),
(60,402,o),
(118,418,o),
(118,441,cs),
(118,449,o),
(113,456,o),
(95,458,cs),
(43,463,o),
(32,510,o),
(32,560,cs),
(32,612,o),
(35,632,o),
(64,632,cs),
(74,632,o),
(81,630,o),
(93,630,cs),
(103,630,o),
(107,635,o),
(109,644,cs),
(124,710,o),
(170,888,o),
(252,888,cs),
(299,888,o),
(336,870,o),
(336,833,cs),
(336,758,o),
(158,706,o),
(158,644,cs),
(158,635,o),
(160,629,o),
(178,629,cs),
(209,629,o),
(230,636,o),
(285,636,cs),
(467,637,o),
(500,478,o),
(500,362,cs),
(500,245,o),
(430,21,o),
(326,21,cs),
(293,21,o),
(274,35,o),
(274,64,cs),
(274,128,o),
(442,188,o),
(442,309,cs),
(442,361,o),
(432,460,o),
(256,460,cs),
(183,460,o),
(137,433,o),
(137,364,cs),
(137,299,o),
(189,192,o),
(189,86,cs),
(189,28,o),
(122,-29,o),
(89,-29,cs)
);
}
);
width = 541;
},
{
anchors = (
{
name = bottom;
pos = (285,0);
},
{
name = bottomleft;
pos = (15,0);
},
{
name = center;
pos = (345,324);
},
{
name = top;
pos = (467,800);
},
{
name = topleft;
pos = (7,604);
}
);
layerId = m002;
shapes = (
{
closed = 1;
nodes = (
(80,-29,o),
(61,-12,o),
(61,11,cs),
(61,40,o),
(67,77,o),
(67,106,cs),
(67,147,o),
(61,249,o),
(61,291,cs),
(61,401,o),
(118,418,o),
(118,435,cs),
(118,441,o),
(113,448,o),
(95,450,cs),
(44,455,o),
(32,498,o),
(32,550,cs),
(32,616,o),
(36,637,o),
(61,637,cs),
(73,637,o),
(80,635,o),
(90,635,cs),
(99,635,o),
(107,640,o),
(109,649,cs),
(122,707,o),
(178,888,o),
(284,888,cs),
(386,888,o),
(413,850,o),
(413,808,cs),
(413,720,o),
(227,698,o),
(227,653,cs),
(227,646,o),
(231,643,o),
(239,643,cs),
(260,643,o),
(284,650,o),
(343,650,cs),
(535,650,o),
(584,516,o),
(584,360,cs),
(584,153,o),
(483,5,o),
(379,5,cs),
(338,5,o),
(297,21,o),
(297,64,cs),
(297,162,o),
(486,149,o),
(486,330,cs),
(486,385,o),
(455,444,o),
(309,444,cs),
(245,444,o),
(188,431,o),
(188,367,cs),
(188,318,o),
(248,202,o),
(248,86,cs),
(248,35,o),
(156,-29,o),
(109,-29,cs)
);
}
);
width = 625;
}
);
unicode = 1488;
},
{
glyphname = "bet-hb";
kernLeft = "bet-hb";
kernRight = "bet-hb";
layers = (
{
anchors = (
{
name = bottom;
pos = (233,0);
},
{
name = center;
pos = (129,322);
}
);
layerId = m01;
shapes = (
{
closed = 1;
nodes = (
(33,-27,o),
(24,-20,o),
(24,27,cs),
(24,108,o),
(40,141,o),
(71,141,cs),
(218,141,o),
(347,147,o),
(347,196,cs),
(347,252,o),
(247,287,o),
(247,322,cs),
(247,361,o),
(292,431,o),
(292,461,cs),
(292,476,o),
(285,480,o),
(267,480,cs),
(211,480,o),
(181,473,o),
(149,473,cs),
(85,473,o),
(52,488,o),
(52,556,cs),
(52,597,o),
(58,624,o),
(58,665,cs),
(58,687,o),
(75,699,o),
(98,699,cs),
(107,699,o),
(112,694,o),
(115,683,cs),
(121,662,o),
(141,637,o),
(180,637,cs),
(225,637,o),
(341,645,o),
(376,645,cs),
(392,645,o),
(400,634,o),
(400,619,cs),
(400,571,o),
(351,483,o),
(351,457,cs),
(351,410,o),
(426,338,o),
(426,254,cs),
(426,98,o),
(241,-27,o),
(65,-27,cs)
);
}
);
width = 465;
},
{
anchors = (
{
name = bottom;
pos = (303,0);
},
{
name = center;
pos = (148,307);
}
);
layerId = m002;
shapes = (
{
closed = 1;
nodes = (
(42,-27,o),
(24,-18,o),
(24,27,cs),
(24,131,o),
(46,175,o),
(85,175,cs),
(372,175,o),
(388,189,o),
(388,206,cs),
(388,243,o),
(278,284,o),
(278,322,cs),
(278,361,o),
(315,427,o),
(315,444,cs),
(315,451,o),
(312,457,o),
(296,457,cs),
(245,457,o),
(202,450,o),
(150,450,cs),
(92,450,o),
(50,466,o),
(50,534,cs),
(50,565,o),
(59,603,o),
(59,640,cs),
(59,676,o),
(77,706,o),
(139,706,cs),
(152,706,o),
(161,698,o),
(164,684,cs),
(169,663,o),
(182,641,o),
(221,641,cs),
(346,641,o),
(406,651,o),
(461,651,cs),
(477,651,o),
(485,643,o),
(485,626,cs),
(485,591,o),
(437,493,o),
(437,457,cs),
(437,412,o),
(510,353,o),
(510,259,cs),
(510,73,o),
(260,-27,o),
(84,-27,cs)
);
}
);
width = 549;
}
);
unicode = 1489;
},
{
glyphname = "gimel-hb";
kernLeft = "gimel-hb";
kernRight = "gimel-hb";
layers = (
{
anchors = (
{
name = bottom;
pos = (208,0);
},
{
name = center;
pos = (150,315);
}
);
layerId = m01;
shapes = (
{
closed = 1;
nodes = (
(58,-15,o),
(-6,8,o),
(-6,37,cs),
(-6,56,o),
(39,56,o),
(54,111,cs),
(65,150,o),
(91,195,o),
(156,195,cs),
(225,195,o),
(271,147,o),
(286,147,cs),
(294,147,o),
(299,149,o),
(299,162,cs),
(299,213,o),
(289,329,o),
(253,397,cs),
(203,490,o),
(111,493,o),
(111,533,cs),
(111,575,o),
(149,660,o),
(191,660,cs),
(253,660,o),
(317,602,o),
(333,552,cs),
(367,445,o),
(356,206,o),
(356,32,cs),
(356,1,o),
(342,-7,o),
(323,-7,cs),
(300,-7,o),
(297,3,o),
(297,16,cs),
(297,48,o),
(300,65,o),
(300,79,cs),
(300,100,o),
(287,108,o),
(261,108,cs),
(198,108,o),
(200,-15,o),
(98,-15,cs)
);
}
);
width = 426;
},
{
anchors = (
{
name = bottom;
pos = (254,0);
},
{
name = center;
pos = (170,357);
}
);
layerId = m002;
shapes = (
{
closed = 1;
nodes = (
(42,-15,o),
(-6,32,o),
(-6,60,cs),
(-6,82,o),
(35,94,o),
(54,131,cs),
(77,177,o),
(108,237,o),
(187,237,cs),
(267,237,o),
(316,202,o),
(328,202,cs),
(339,202,o),
(343,205,o),
(343,219,cs),
(343,269,o),
(330,337,o),
(301,397,cs),
(253,496,o),
(122,489,o),
(122,545,cs),
(122,599,o),
(177,704,o),
(239,704,cs),
(345,704,o),
(444,601,o),
(444,450,cs),
(444,337,o),
(440,206,o),
(440,32,cs),
(440,0,o),
(400,-7,o),
(372,-7,cs),
(346,-7,o),
(341,4,o),
(341,19,cs),
(341,51,o),
(345,65,o),
(345,85,cs),
(345,100,o),
(341,104,o),
(323,104,cs),
(254,104,o),
(254,-15,o),
(98,-15,cs)
);
}
);
width = 510;
}
);
unicode = 1490;
},
{
glyphname = "dalet-hb";
kernLeft = "dalet-hb";
kernRight = "dalet-hb";
layers = (
{
anchors = (
{
name = bottom;
pos = (288,0);
},
{
name = center;
pos = (182,348);
}
);
layerId = m01;
shapes = (
{
closed = 1;
nodes = (
(251,-29,o),
(199,37,o),
(199,71,cs),
(199,156,o),
(371,380,o),
(371,455,cs),
(371,470,o),
(363,476,o),
(347,476,cs),
(276,476,o),
(197,464,o),
(125,464,cs),
(68,464,o),
(30,480,o),
(30,545,cs),
(30,660,o),
(40,694,o),
(79,694,cs),
(88,694,o),
(92,690,o),
(95,680,cs),
(101,660,o),
(111,633,o),
(167,633,cs),
(319,633,o),
(384,652,o),
(434,652,cs),
(469,652,o),
(479,620,o),
(479,585,cs),
(479,515,o),
(426,515,o),
(426,450,cs),
(426,354,o),
(348,-29,o),
(290,-29,cs)
);
}
);
width = 501;
},
{
anchors = (
{
name = bottom;
pos = (288,0);
},
{
name = center;
pos = (182,318);
}
);
layerId = m002;
shapes = (
{
closed = 1;
nodes = (
(278,-29,o),
(210,38,o),
(210,82,cs),
(210,174,o),
(400,394,o),
(400,431,cs),
(400,444,o),
(392,450,o),
(376,450,cs),
(305,450,o),
(215,440,o),
(143,440,cs),
(54,440,o),
(30,480,o),
(30,545,cs),
(30,670,o),
(42,694,o),
(107,694,cs),
(123,694,o),
(129,689,o),
(137,673,cs),
(146,656,o),
(158,648,o),
(205,648,cs),
(367,648,o),
(451,660,o),
(518,660,cs),
(546,660,o),
(563,633,o),
(563,583,cs),
(563,507,o),
(511,497,o),
(511,460,cs),
(511,365,o),
(447,-29,o),
(352,-29,cs)
);
}
);
width = 585;
}
);
unicode = 1491;
},
{
glyphname = "he-hb";
kernLeft = "he-hb";
kernRight = "he-hb";
layers = (
{
anchors = (
{
name = bottom;
pos = (291,0);
},
{
name = center;
pos = (309,328);
}
);
layerId = m01;
shapes = (
{
closed = 1;
nodes = (
(133,-29,o),
(57,121,o),
(57,282,cs),
(57,347,o),
(64,355,o),
(81,355,cs),
(103,355,o),
(106,348,o),
(108,336,cs),
(124,259,o),
(159,199,o),
(218,181,cs),
(312,152,o),
(321,139,o),
(321,68,cs),
(321,-6,o),
(314,-29,o),
(274,-29,cs)
);
},
{
closed = 1;
nodes = (
(444,105,o),
(422,119,o),
(422,145,cs),
(422,191,o),
(483,222,o),
(483,324,cs),
(483,435,o),
(396,468,o),
(283,468,cs),
(245,468,o),
(184,462,o),
(144,462,cs),
(47,462,o),
(46,520,o),
(46,568,cs),
(46,633,o),
(58,692,o),
(81,692,cs),
(101,692,o),
(112,687,o),
(114,676,cs),
(122,636,o),
(172,628,o),
(208,628,cs),
(242,628,o),
(281,634,o),
(316,634,cs),
(483,634,o),
(538,495,o),
(538,333,cs),
(538,265,o),
(519,105,o),
(470,105,cs)
);
}
);
width = 580;
},
{
anchors = (
{
name = bottom;
pos = (331,0);
},
{
name = center;
pos = (349,318);
}
);
layerId = m002;
shapes = (
{
closed = 1;
nodes = (
(141,-29,o),
(57,131,o),
(57,272,cs),
(57,379,o),
(66,400,o),
(93,400,cs),
(133,400,o),
(144,393,o),
(148,375,cs),
(171,273,o),
(213,231,o),
(270,217,cs),
(361,195,o),
(388,172,o),
(388,98,cs),
(388,4,o),
(366,-29,o),
(326,-29,cs)
);
},
{
closed = 1;
nodes = (
(490,84,o),
(456,119,o),
(456,155,cs),
(456,201,o),
(523,227,o),
(523,329,cs),
(523,400,o),
(471,450,o),
(368,450,cs),
(320,450,o),
(242,442,o),
(166,442,cs),
(69,442,o),
(46,520,o),
(46,568,cs),
(46,660,o),
(66,710,o),
(106,710,cs),
(134,710,o),
(147,707,o),
(158,680,cs),
(169,653,o),
(206,650,o),
(232,650,cs),
(266,650,o),
(321,660,o),
(376,660,cs),
(543,660,o),
(622,532,o),
(622,361,cs),
(622,193,o),
(591,84,o),
(539,84,cs)
);
}
);
width = 664;
}
);
unicode = 1492;
},
{
glyphname = "vav-hb";
kernLeft = "vav-hb";
kernRight = "vav-hb";
layers = (
{
anchors = (
{
name = bottom;
pos = (184,0);
},
{
name = bottomleft;
pos = (100,0);
},
{
name = center;
pos = (77,270);
},
{
name = top;
pos = (115,610);
},
{
name = topleft;
pos = (106,630);
}
);
layerId = m01;
shapes = (
{
closed = 1;
nodes = (
(176,-17,o),
(171,-7,o),
(171,8,cs),
(171,67,o),
(178,110,o),
(178,203,cs),
(178,459,o),
(22,466,o),
(22,513,cs),
(22,561,o),
(59,656,o),
(106,656,cs),
(194,656,o),
(248,530,o),
(248,460,cs),
(248,286,o),
(227,21,o),
(223,4,cs),
(219,-12,o),
(202,-17,o),
(190,-17,cs)
);
}
);
width = 308;
},
{
anchors = (
{
name = bottom;
pos = (234,0);
},
{
name = bottomleft;
pos = (150,0);
},
{
name = center;
pos = (97,270);
},
{
name = top;
pos = (135,610);
},
{
name = topleft;
pos = (126,660);
}
);
layerId = m002;
shapes = (
{
closed = 1;
nodes = (
(215,-17,o),
(202,-9,o),
(202,10,cs),
(202,89,o),
(218,166,o),
(218,242,cs),
(218,438,o),
(22,465,o),
(22,525,cs),
(22,602,o),
(71,691,o),
(126,691,cs),
(268,691,o),
(332,592,o),
(332,450,cs),
(332,276,o),
(308,31,o),
(300,10,cs),
(293,-8,o),
(278,-17,o),
(225,-17,cs)
);
}
);
width = 392;
}
);
unicode = 1493;
},
{
glyphname = "zayin-hb";
kernLeft = "zayin-hb";
kernRight = "zayin-hb";
layers = (
{
anchors = (
{
name = bottom;
pos = (117,0);
},
{
name = bottomleft;
pos = (7,0);
},
{
name = center;
pos = (0,254);
},
{
name = top;
pos = (194,690);
},
{
name = topleft;
pos = (67,690);
}
);
layerId = m01;
shapes = (
{
closed = 1;
nodes = (
(91,-28,o),
(81,-24,o),
(81,-12,cs),
(81,15,o),
(92,116,o),
(92,165,cs),
(92,411,o),
(45,483,o),
(45,542,cs),
(45,587,o),
(138,652,o),
(198,652,cs),
(217,652,o),
(242,561,o),
(242,530,cs),
(242,457,o),
(148,425,o),
(148,370,cs),
(148,344,o),
(175,300,o),
(175,211,cs),
(175,167,o),
(153,-28,o),
(106,-28,cs)
);
}
);
width = 270;
},
{
anchors = (
{
name = bottom;
pos = (197,0);
},
{
name = bottomleft;
pos = (87,0);
},
{
name = center;
pos = (-10,254);
},
{
name = top;
pos = (274,690);
},
{
name = topleft;
pos = (147,690);
}
);
layerId = m002;
shapes = (
{
closed = 1;
nodes = (
(98,-27,o),
(81,-20,o),
(81,0,cs),
(81,27,o),
(92,116,o),
(92,165,cs),
(92,411,o),
(45,505,o),
(45,560,cs),
(45,608,o),
(150,694,o),
(242,694,cs),
(290,694,o),
(326,590,o),
(326,551,cs),
(326,462,o),
(206,429,o),
(206,387,cs),
(206,361,o),
(249,313,o),
(249,214,cs),
(249,140,o),
(168,-27,o),
(118,-27,cs)
);
}
);
width = 354;
}
);
unicode = 1494;
},
{
glyphname = "het-hb";
kernLeft = "het-hb";
kernRight = "het-hb";
layers = (
{
anchors = (
{
name = bottom;
pos = (257,0);
}
);
layerId = m01;
shapes = (
{
closed = 1;
nodes = (
(80,-29,o),
(60,-13,o),
(60.2,7.7,cs),
(61,51,o),
(71,339,o),
(80.5,380.8,cs),
(86.8,408.8,o),
(113,439,o),
(113,460,cs),
(113,479,o),
(53,482,o),
(53,528,cs),
(53,605,o),
(68,673,o),
(75,682,cs),
(80,689,o),
(88,697,o),
(108,697,cs),
(128,697,o),
(136,637,o),
(186,637,cs),
(232,637,o),
(283,644,o),
(331,644,cs),
(456,644,o),
(508,522,o),
(508,366,cs),
(508,211,o),
(450,22,o),
(314,22,cs),
(294,22,o),
(279,38,o),
(279,62,cs),
(279,95,o),
(325,114,o),
(351,129,cs),
(406,162,o),
(450,243,o),
(450.1,329.7,cs),
(450,432,o),
(400,466,o),
(336,466,cs),
(167,466,o),
(148,433,o),
(147.7,380.1,cs),
(148,354,o),
(200,122,o),
(199.5,83.3,cs),
(200,35,o),
(132,-29,o),
(94,-29,cs)
);
}
);
width = 541;
},
{
anchors = (
{
name = bottom;
pos = (257,0);
}
);
layerId = m002;
shapes = (
{
closed = 1;
nodes = (
(100,-32,o),
(58,-6,o),
(58,15,cs),
(59,58,o),
(71,339,o),
(80.5,380.8,cs),
(86.8,408.8,o),
(102,438,o),
(102,447,cs),
(102,457,o),
(55,468,o),
(55,520,cs),
(55,640,o),
(67,665,o),
(77,680,cs),
(85,692,o),
(110,699,o),
(131,699,cs),
(159,699,o),
(161,660,o),
(196,660,cs),
(268,660,o),
(301,663,o),
(351,663,cs),
(529,663,o),
(592,572,o),
(592,365,cs),
(592,140,o),
(492,0,o),
(356,0,cs),
(330,0,o),
(298,38,o),
(298,62,cs),
(298,95,o),
(321,116,o),
(363,134,cs),
(420,158,o),
(491,213,o),
(491,330,cs),
(491,432,o),
(422,451,o),
(364,451,cs),
(222,451,o),
(198,440,o),
(198,380,cs),
(198,354,o),
(254,122,o),
(254,83,cs),
(254,35,o),
(152,-32,o),
(114,-32,cs)
);
}
);
width = 625;
}
);
unicode = 1495;
},
{
glyphname = "tet-hb";
kernLeft = "tet-hb";
kernRight = "tet-hb";
layers = (
{
anchors = (
{
name = bottom;
pos = (384,0);
},
{
name = center;
pos = (364,327);
}
);
layerId = m01;
shapes = (
{
closed = 1;
nodes = (
(142,-103,o),
(127,-99,o),
(127,-90,cs),
(127,-71,o),
(161,32,o),
(161,189,cs),
(160,496,o),
(27,501,o),
(27,541,cs),
(27,589,o),
(78,673,o),
(123,673,cs),
(151,673,o),
(206,540,o),
(214,364,cs),
(222,180,o),
(227,163,o),
(232,157,cs),
(240,148,o),
(278,141,o),
(334,141,cs),
(469,142,o),
(527,239,o),
(527,324,cs),
(527,437,o),
(439,497,o),
(380,497,cs),
(332,497,o),
(297,466,o),
(280,466,cs),
(269,466,o),
(261,492,o),
(261,505,cs),
(261,519,o),
(382,676,o),
(404,676,cs),
(520,676,o),
(584,480,o),
(584,341,cs),
(584,159,o),
(500,-24,o),
(309,-24,cs),
(246,-24,o),
(218,-7,o),
(206,-7,cs),
(196,-7,o),
(188,-103,o),
(171,-103,cs)
);
}
);
width = 619;
},
{
anchors = (
{
name = bottom;
pos = (384,-60);
},
{
name = center;
pos = (444,337);
}
);
layerId = m002;
shapes = (
{
closed = 1;
nodes = (
(145,-103,o),
(123,-98,o),
(123,-77,cs),
(123,-28,o),
(182,24,o),
(182,189,cs),
(182,443,o),
(27,484,o),
(27,534,cs),
(27,582,o),
(107,708,o),
(162,708,cs),
(213,708,o),
(283,626,o),
(291,450,cs),
(301,224,o),
(306,203,o),
(311,197,cs),
(319,188,o),
(357,181,o),
(413,181,cs),
(548,182,o),
(614,263,o),
(614,348,cs),
(614,461,o),
(533,500,o),
(474,500,cs),
(429,500,o),
(409,485,o),
(379,485,cs),
(363,485,o),
(337,518,o),
(337,541,cs),
(337,575,o),
(453,713,o),
(497,713,cs),
(624,713,o),
(710,540,o),
(710,371,cs),
(710,89,o),
(579,-24,o),
(378,-24,cs),
(322,-24,o),
(303,-10,o),
(274,-10,cs),
(245,-10,o),
(245,-103,o),
(196,-103,cs)
);
}
);
width = 745;
}
);
unicode = 1496;
},
{
glyphname = "yod-hb";
kernLeft = "yod-hb";
kernRight = "yod-hb";
layers = (
{
anchors = (
{
name = bottom;
pos = (95,0);
},
{
name = center;
pos = (45,368);
}
);
layerId = m01;
shapes = (
{
closed = 1;
nodes = (
(118,241,o),
(101,258,o),
(101,269,cs),
(101,287,o),
(174,339,o),
(174,401,cs),
(174,426,o),
(163,434,o),
(135,445,cs),
(66,472,o),
(20,488,o),
(20,557,cs),
(20,603,o),
(44,666,o),
(57,676,cs),
(63,681,o),
(76,685,o),
(85,685,cs),
(91,685,o),
(98,681,o),
(98,671,cs),
(98,641,o),
(120,622,o),
(182,599,cs),
(235,579,o),
(258,545,o),
(258,502,cs),
(258,362,o),
(154,241,o),
(133,241,cs)
);
}
);
width = 270;
},
{
anchors = (
{
name = bottom;
pos = (95,0);
},
{
name = center;
pos = (1,339);
}
);
layerId = m002;
shapes = (
{
closed = 1;
nodes = (
(136,214,o),
(106,237,o),
(106,258,cs),
(106,279,o),
(202,339,o),
(202,391,cs),
(202,416,o),
(183,425,o),
(124,436,cs),
(53,449,o),
(20,478,o),
(20,547,cs),
(20,592,o),
(41,648,o),
(49,660,cs),
(55,669,o),
(75,688,o),
(123,688,cs),
(137,688,o),
(146,680,o),
(146,665,cs),
(146,634,o),
(164,621,o),
(241,601,cs),
(305,584,o),
(342,549,o),
(342,488,cs),
(342,323,o),
(190,214,o),
(152,214,cs)
);
}
);
width = 354;
}
);
unicode = 1497;
},
{
glyphname = "kafFinal-hb";
kernLeft = "kafFinal-hb";
kernRight = "kafFinal-hb";
layers = (
{
anchors = (
{
name = bottom;
pos = (232,-317);
},
{
name = center;
pos = (155,317);
}
);
layerId = m01;
shapes = (
{
closed = 1;
nodes = (
(289,-342,o),
(277,-327,o),
(277,-298,cs),
(277,-247,o),
(272,-57,o),
(272,124,cs),
(272,381,o),
(329,438,o),
(329,457,cs),
(329,465,o),
(326,470,o),
(318,470,cs),
(303,470,o),
(172,454,o),
(113,454,cs),
(54,454,o),
(28,495,o),
(28,558,cs),
(28,594,o),
(38,667,o),
(42,677,cs),
(46,686,o),
(66,694,o),
(78,694,cs),
(87,694,o),
(93,691,o),
(96,680,cs),
(100,665,o),
(117,628,o),
(195,628,cs),
(220,628,o),
(258,634,o),
(289,634,cs),
(377,634,o),
(406,572,o),
(406,509,cs),
(406,440,o),
(370,373,o),
(370,295,cs),
(370,219,o),
(424,-104,o),
(424,-200,cs),
(424,-260,o),
(367,-342,o),
(309,-342,cs)
);
}
);
width = 465;
},
{
anchors = (
{
name = bottom;
pos = (262,-317);
},
{
name = center;
pos = (162,284);
}
);
layerId = m002;
shapes = (
{
closed = 1;
nodes = (
(346,-342,o),
(317,-327,o),
(317,-293,cs),
(317,-97,o),
(297,3,o),
(297,124,cs),
(297,271,o),
(359,402,o),
(359,431,cs),
(359,443,o),
(354,450,o),
(341,450,cs),
(213,450,o),
(149,430,o),
(110,430,cs),
(51,430,o),
(28,495,o),
(28,558,cs),
(28,594,o),
(31,658,o),
(44,674,cs),
(58,691,o),
(91,704,o),
(123,704,cs),
(132,704,o),
(140,697,o),
(143,686,cs),
(147,671,o),
(154,648,o),
(235,648,cs),
(260,648,o),
(338,654,o),
(369,654,cs),
(457,654,o),
(489,582,o),
(489,519,cs),
(489,450,o),
(453,383,o),
(453,305,cs),
(453,229,o),
(508,-84,o),
(508,-180,cs),
(508,-240,o),
(447,-342,o),
(369,-342,cs)
);
}
);
width = 549;
}
);
unicode = 1498;
},
{
glyphname = "kaf-hb";
kernLeft = "kaf-hb";
kernRight = "kaf-hb";
layers = (
{
anchors = (
{
name = bottom;
pos = (206,0);
},
{
name = center;
pos = (192,329);
}
);
layerId = m01;
shapes = (
{
closed = 1;
nodes = (
(30,-17,o),
(23,-4,o),
(23,54,cs),
(23,123,o),
(26,160,o),
(99,160,cs),
(206,160,o),
(358,195,o),
(358,346,cs),
(358,431,o),
(315,477,o),
(230,477,cs),
(202,477,o),
(166,471,o),
(137,471,cs),
(72,471,o),
(18,477,o),
(15,571,cs),
(14,620,o),
(26,681,o),
(33,691,cs),
(39,700,o),
(57,708,o),
(70,708,cs),
(79,708,o),
(85,704,o),
(89,686,cs),
(98,651,o),
(132,642,o),
(165,642,cs),
(194,642,o),
(219,645,o),
(239,645,cs),
(362,645,o),
(415,525,o),
(415,368,cs),
(415,193,o),
(325,-17,o),
(64,-17,cs)
);
}
);
width = 465;
},
{
anchors = (
{
name = bottom;
pos = (256,0);
},
{
name = center;
pos = (242,329);
}
);
layerId = m002;
shapes = (
{
closed = 1;
nodes = (
(42,-17,o),
(23,6,o),
(23,74,cs),
(23,145,o),
(39,191,o),
(105,191,cs),
(190,191,o),
(398,195,o),
(398,346,cs),
(398,431,o),
(345,450,o),
(230,450,cs),
(202,450,o),
(165,444,o),
(126,444,cs),
(61,444,o),
(15,477,o),
(15,571,cs),
(15,620,o),
(32,676,o),
(45,690,cs),
(54,700,o),
(72,708,o),
(108,708,cs),
(116,708,o),
(126,701,o),
(128,688,cs),
(134,650,o),
(167,643,o),
(205,643,cs),
(245,643,o),
(280,648,o),
(309,648,cs),
(432,648,o),
(499,525,o),
(499,368,cs),
(499,163,o),
(387,-17,o),
(80,-17,cs)
);
}
);
width = 549;
}
);
unicode = 1499;
},
{
glyphname = "lamed-hb";
kernLeft = "lamed-hb";
kernRight = "lamed-hb";
layers = (
{
anchors = (
{
name = bottom;
pos = (125,0);
},
{
name = center;
pos = (138,306);
}
);
layerId = m01;
shapes = (
{
closed = 1;
nodes = (
(29,-40,o),
(22,-23,o),
(22,17,cs),
(22,108,o),
(35,145,o),
(75,145,cs),
(153,145,o),
(278,211,o),
(278,315,cs),
(277,392,o),
(219,425,o),
(147,458,cs),
(116,471,o),
(70,482,o),
(70,531,cs),
(70,544,o),
(82,720,o),
(82,774,cs),
(82,849,o),
(0,853,o),
(0,905,cs),
(0,934,o),
(12,1000,o),
(43,1000,cs),
(74,1000,o),
(176,952,o),
(176,900,cs),
(176,831,o),
(145,748,o),
(145,663,cs),
(145,656,o),
(149,653,o),
(162,648,cs),
(300,594,o),
(337,480,o),
(337,349,cs),
(336,145,o),
(200,-39,o),
(56,-40,cs)
);
}
);
width = 387;
},
{
anchors = (
{
name = bottom;
pos = (195,0);
},
{
name = center;
pos = (166,318);
}
);
layerId = m002;
shapes = (
{
closed = 1;
nodes = (
(33,-40,o),
(22,-13,o),
(22,27,cs),
(22,103,o),
(35,185,o),
(83,185,cs),
(159,185,o),
(318,221,o),
(318,315,cs),
(318,392,o),
(219,415,o),
(147,448,cs),
(116,461,o),
(71,474,o),
(71,521,cs),
(71,594,o),
(83,700,o),
(83,754,cs),
(83,830,o),
(1,830,o),
(1,895,cs),
(1,951,o),
(16,1000,o),
(58,1000,cs),
(89,1000,o),
(243,952,o),
(243,892,cs),
(243,809,o),
(208,692,o),
(208,669,cs),
(208,652,o),
(216,647,o),
(229,643,cs),
(361,601,o),
(421,500,o),
(421,349,cs),
(421,145,o),
(294,-40,o),
(60,-40,cs)
);
}
);
width = 471;
}
);
unicode = 1500;
},
{
glyphname = "memFinal-hb";
kernLeft = "memFinal-hb";
kernRight = "memFinal-hb";
layers = (
{
anchors = (
{
name = bottom;
pos = (306,0);
}
);
layerId = m01;
shapes = (
{
closed = 1;
nodes = (
(125,416,o),
(125,318,cs),
(125,223,o),
(164,142,o),
(321,142,cs),
(405,142,o),
(499,212,o),
(499.1,294,cs),
(499,412,o),
(446,460,o),
(333,460,cs),
(163,460,o)
);
},
{
closed = 1;
nodes = (
(130,-31,o),
(42,102,o),
(42,260.4,cs),
(42,404,o),
(109,442,o),
(109,461,cs),
(109,479,o),
(48,480,o),
(48,559,cs),
(48,616,o),
(59,667,o),
(70,684,cs),
(75,692,o),
(89,700,o),
(107,700,cs),
(112,700,o),
(121,698,o),
(125,681,cs),
(134,640,o),
(152,635,o),
(235,635,cs),
(278,635,o),
(308,639,o),
(366,639,cs),
(474,639,o),
(550,510,o),
(550,341,cs),
(550,189,o),
(497,-31,o),
(279,-31,cs)
);
}
);
width = 580;
},
{
anchors = (
{
name = bottom;
pos = (306,0);
}
);
layerId = m002;
shapes = (
{
closed = 1;
nodes = (
(175,436,o),
(175,328,cs),
(175,228,o),
(244,162,o),
(351,162,cs),
(455,162,o),
(539,242,o),
(539,324,cs),
(539,439,o),
(466,460,o),
(353,460,cs),
(223,460,o)
);
},
{
closed = 1;
nodes = (
(140,-31,o),
(41,102,o),
(41,260,cs),
(41,394,o),
(104,431,o),
(104,450,cs),
(104,468,o),
(50,480,o),
(50,539,cs),
(50,606,o),
(58,665,o),
(73,680,cs),
(80,687,o),
(112,705,o),
(137,705,cs),
(148,705,o),
(153,699,o),
(163,683,cs),
(178,660,o),
(212,656,o),
(275,656,cs),
(338,656,o),
(368,664,o),
(426,664,cs),
(534,664,o),
(634,540,o),
(634,371,cs),
(634,119,o),
(537,-31,o),
(319,-31,cs)
);
}
);
width = 664;
}
);
unicode = 1501;
},
{
glyphname = "mem-hb";
kernLeft = "mem-hb";
kernRight = "mem-hb";
layers = (
{
anchors = (
{
name = bottom;
pos = (309,0);
},
{
name = center;
pos = (368,295);
}
);
layerId = m01;
shapes = (
{
closed = 1;
nodes = (
(43,-32,o),
(24,-11,o),
(24,20,cs),
(24,42,o),
(32,57,o),
(50,72,cs),
(153,159,o),
(164,218,o),
(164,297,cs),
(164,471,o),
(45,487,o),
(45,533,cs),
(45,563,o),
(89,660,o),
(129,660,cs),
(200,660,o),
(218,514,o),
(244,514,cs),
(294,514,o),
(346,650,o),
(419,650,cs),
(499,650,o),
(571,562,o),
(571,359,cs),
(571,121,o),
(458,-19,o),
(343,-19,cs),
(315,-19,o),
(295,0,o),
(295,38,cs),
(295,65,o),
(316,89,o),
(344,97,cs),
(458,129,o),
(509,184,o),
(509,295,cs),
(509,395,o),
(440,472,o),
(348,472,cs),
(274,472,o),
(241,459,o),
(241,425,cs),
(241,299,o),
(227,-32,o),
(90,-32,cs)
);
}
);
width = 619;
},
{
anchors = (
{
name = bottom;
pos = (309,0);
},
{
name = center;
pos = (449,305);
}
);
layerId = m002;
shapes = (
{
closed = 1;
nodes = (
(65,-31,o),
(24,-15,o),
(24,38,cs),
(24,66,o),
(35,96,o),
(75,122,cs),
(169,182,o),
(198,228,o),
(198,297,cs),
(198,450,o),
(45,460,o),
(45,533,cs),
(45,573,o),
(86,670,o),
(170,670,cs),
(267,670,o),
(288,529,o),
(315,529,cs),
(370,529,o),
(399,675,o),
(473,675,cs),
(649,675,o),
(697,502,o),
(697,359,cs),
(697,146,o),
(598,-19,o),
(434,-19,cs),
(359,-19,o),
(338,17,o),
(338,52,cs),
(338,92,o),
(357,118,o),
(395,128,cs),
(468,147,o),
(595,182,o),
(595,295,cs),
(595,395,o),
(526,450,o),
(434,450,cs),
(340,450,o),
(316,433,o),
(316,400,cs),
(316,215,o),
(250,-31,o),
(105,-31,cs)
);
}
);
width = 745;
}
);
unicode = 1502;
},
{
glyphname = "nunFinal-hb";
kernLeft = "nunFinal-hb";
kernRight = "nunFinal-hb";
layers = (
{
anchors = (
{
name = bottom;
pos = (166,-310);
}
);
layerId = m01;
shapes = (
{
closed = 1;
nodes = (
(120,-332,o),
(108,-309,o),
(108,-286,cs),
(108,-128,o),
(113,31,o),
(113,189,cs),
(113,343,o),
(183,402,o),
(183,427,cs),
(183,440,o),
(175,444,o),
(112,471,cs),
(53,496,o),
(40,526,o),
(40,572,cs),
(40,625,o),
(48,674,o),
(61,694,cs),
(67,703,o),
(87,712,o),
(103,712,cs),
(110,712,o),
(116,706,o),
(120,697,cs),
(130,679,o),
(142,647,o),
(195,625,cs),
(242,605,o),
(249,568,o),
(248.5,532.7,cs),
(249,450,o),
(203,320,o),
(203.7,233.8,cs),
(204,180,o),
(255,-69,o),
(254.8,-192.5,cs),
(255,-246,o),
(198,-332,o),
(142,-332,cs)
);
}
);
width = 308;
},
{
anchors = (
{
name = bottom;
pos = (166,-310);
}
);
layerId = m002;
shapes = (
{
closed = 1;
nodes = (
(131,-332,o),
(107,-326,o),
(107,-286,cs),
(107,-128,o),
(114,31,o),
(114,189,cs),
(114,343,o),
(170,391,o),
(170,416,cs),
(170,429,o),
(164,437,o),
(113,457,cs),
(54,480,o),
(40,526,o),
(40,572,cs),
(40,625,o),
(51,670,o),
(71,692,cs),
(80,702,o),
(103,712,o),
(127,712,cs),
(149,712,o),
(157,698,o),
(163,684,cs),
(171,666,o),
(192,649,o),
(231,629,cs),
(277,605,o),
(290,588,o),
(290,533,cs),
(290,450,o),
(245,320,o),
(245,234,cs),
(245,180,o),
(297,-69,o),
(297,-193,cs),
(297,-266,o),
(219,-332,o),
(163,-332,cs)
);
}
);
width = 350;
}
);
unicode = 1503;
},
{
glyphname = "nun-hb";
kernLeft = "nun-hb";
kernRight = "nun-hb";
layers = (
{
anchors = (
{
name = bottom;
pos = (170,0);
},
{
name = center;
pos = (104,317);
}
);
layerId = m01;
shapes = (
{
closed = 1;
nodes = (
(25,-38,o),
(17,-23,o),
(17,0,cs),
(17,99,o),
(41,143,o),
(74,152,cs),
(169,178,o),
(244,213,o),
(244,330,cs),
(244,419,o),
(186,446,o),
(88,481,cs),
(63,490,o),
(52,501,o),
(52,520,cs),
(52,581,o),
(96,652,o),
(145,652,cs),
(261,652,o),
(298,489,o),
(298,363,cs),
(298,174,o),
(202,-38,o),
(51,-38,cs)
);
}
);
width = 347;
},
{
anchors = (
{
name = bottom;
pos = (212,0);
},
{
name = center;
pos = (156,330);
}
);
layerId = m002;
shapes = (
{
closed = 1;
nodes = (
(25,-38,o),
(17,-24,o),
(17,0,cs),
(17,109,o),
(35,178,o),
(74,187,cs),
(243,226,o),
(284,253,o),
(284,330,cs),
(284,414,o),
(197,432,o),
(100,461,cs),
(67,471,o),
(52,483,o),
(52,520,cs),
(52,581,o),
(100,652,o),
(157,652,cs),
(295,652,o),
(382,543,o),
(382,363,cs),
(382,163,o),
(280,-38,o),
(44,-38,cs)
);
}
);
width = 431;
}
);
unicode = 1504;
},
{
glyphname = "samekh-hb";
kernLeft = "samekh-hb";
kernRight = "samekh-hb";
layers = (
{
anchors = (
{
name = bottom;
pos = (326,0);
},
{
name = center;
pos = (303,303);
}
);
layerId = m01;
shapes = (
{
closed = 1;
nodes = (
(433,141,o),
(481,248,o),
(480.9,342.3,cs),
(481,446,o),
(429,462,o),
(200,462,cs),
(160,462,o),
(122,389,o),
(122,338,cs),
(122,247,o),
(162,140,o),
(327.6,140.7,cs)
);
},
{
closed = 1;
nodes = (
(43,-132,o),
(31,-106,o),
(31,-77,cs),
(31,-35,o),
(61,-7,o),
(61,297,cs),
(61,421,o),
(121,458,o),
(121,469,cs),
(121,482,o),
(60,488,o),
(60,530,cs),
(60,586,o),
(73,667,o),
(77,678,cs),
(82,692,o),
(102,699,o),
(116,699,cs),
(134,699,o),
(123,638,o),
(181,638,cs),
(236,638,o),
(290,645,o),
(340,645,cs),
(517,645,o),
(539,444,o),
(539,320.6,cs),
(539,151,o),
(455,-30,o),
(297,-32,cs),
(230,-32,o),
(163,10,o),
(140,64,cs),
(133,80,o),
(120,99,o),
(113,99,cs),
(104,99,o),
(102,87,o),
(102,77,cs),
(102,40,o),
(136,-39,o),
(136,-74,cs),
(136,-105,o),
(118,-132,o),
(76,-132,cs)
);
}
);
width = 580;
},
{
anchors = (
{
name = bottom;
pos = (369,0);
},
{
name = center;
pos = (346,303);
}
);
layerId = m002;
shapes = (
{
closed = 1;
nodes = (
(476,162,o),
(522,238,o),
(522,342,cs),
(522,426,o),
(492,444,o),
(253,444,cs),
(223,444,o),
(170,369,o),
(170,318,cs),
(170,227,o),
(245,162,o),
(361,162,cs)
);
},
{
closed = 1;
nodes = (
(50,-129,o),
(31,-96,o),
(31,-55,cs),
(31,-13,o),
(66,33,o),
(66,337,cs),
(66,401,o),
(112,441,o),
(112,452,cs),
(112,465,o),
(60,468,o),
(60,530,cs),
(60,586,o),
(78,668,o),
(88,682,cs),
(97,694,o),
(121,709,o),
(142,709,cs),
(163,709,o),
(163,660,o),
(210,660,cs),
(286,660,o),
(375,670,o),
(404,670,cs),
(592,670,o),
(623,474,o),
(623,321,cs),
(623,81,o),
(498,-32,o),
(340,-32,cs),
(273,-32,o),
(200,-3,o),
(164,47,cs),
(161,51,o),
(159,54,o),
(157,54,cs),
(155,54,o),
(154,52,o),
(154,50,cs),
(154,24,o),
(178,-20,o),
(178,-55,cs),
(178,-96,o),
(148,-129,o),
(96,-129,cs)
);
}
);
width = 664;
}
);
unicode = 1505;
},
{
glyphname = "ayin-hb";
kernLeft = "ayin-hb";
kernRight = "ayin-hb";
layers = (
{
anchors = (
{
name = bottom;
pos = (276,0);
}
);
layerId = m01;
shapes = (
{
closed = 1;
nodes = (
(36,-33,o),
(18,-27,o),
(18,24,cs),
(18,48,o),
(36,141,o),
(56,141,cs),
(74,141,o),
(91,132,o),
(160,132,cs),
(172,132,o),
(178,139,o),
(178,151,cs),
(178,250,o),
(166,389,o),
(147,436,cs),
(137,461,o),
(76,483,o),
(76,528,cs),
(76,555,o),
(103,659,o),
(131,659,cs),
(172,659,o),
(242,604,o),
(242,566,cs),
(242,531,o),
(212,388,o),
(231,167,cs),
(233,146,o),
(239,140,o),
(261,140,cs),
(382,140,o),
(482,216,o),
(482,338,cs),
(482,417,o),
(427,452,o),
(379,461,cs),
(323,471,o),
(299,485,o),
(299,510,cs),
(299,548,o),
(347,658,o),
(386,658,cs),
(457,658,o),
(537,525,o),
(537,382,cs),
(537,121,o),
(384,-33,o),
(81,-33,cs)
);
}
);
width = 580;
},
{
anchors = (
{
name = bottom;
pos = (339,0);
}
);
layerId = m002;
shapes = (
{
closed = 1;
nodes = (
(39,-33,o),
(18,-7,o),
(18,24,cs),
(18,138,o),
(27,183,o),
(63,183,cs),
(91,183,o),
(123,172,o),
(202,172,cs),
(214,172,o),
(220,179,o),
(220,191,cs),
(220,290,o),
(190,407,o),
(177,440,cs),
(169,460,o),
(76,487,o),
(76,539,cs),
(76,616,o),
(119,695,o),
(178,695,cs),
(259,695,o),
(322,626,o),
(322,588,cs),
(322,553,o),
(295,438,o),
(314,217,cs),
(316,196,o),
(323,190,o),
(343,190,cs),
(424,190,o),
(565,233,o),
(565,355,cs),
(565,440,o),
(484,457,o),
(436,464,cs),
(371,473,o),
(351,492,o),
(351,517,cs),
(351,555,o),
(405,694,o),
(473,694,cs),
(544,694,o),
(663,597,o),
(663,404,cs),
(663,53,o),
(407,-33,o),
(74,-33,cs)
);
}
);
width = 706;
}
);
unicode = 1506;
},
{
glyphname = "peFinal-hb";
kernLeft = "peFinal-hb";
kernRight = "peFinal-hb";
layers = (
{
anchors = (
{
name = bottom;
pos = (146,0);
},
{
name = center;
pos = (285,338);
}
);
layerId = m01;
shapes = (
{
closed = 1;
nodes = (
(348,-345,o),
(332,-328,o),
(332,-308,cs),
(333,-280,o),
(340,71,o),
(340,88,cs),
(340,281,o),
(401,344,o),
(401,372,cs),
(401,421,o),
(260,493,o),
(176,493,cs),
(135,493,o),
(104,436,o),
(104,396,cs),
(104,321,o),
(158,287,o),
(226,240,cs),
(243,228,o),
(254,196,o),
(254,147,cs),
(254,124,o),
(224,112,o),
(179,112,cs),
(75,112,o),
(38,212,o),
(38,319,cs),
(38,465,o),
(129,640,o),
(244,640,cs),
(334,640,o),
(492,566,o),
(492,501,cs),
(492,439,o),
(432,310,o),
(432,196,cs),
(432,81,o),
(476,-125,o),
(476,-223,cs),
(476,-278,o),
(393,-344,o),
(370,-345,cs)
);
}
);
width = 541;
},
{
anchors = (
{
name = bottom;
pos = (189,0);
},
{
name = center;
pos = (308,369);
}
);
layerId = m002;
shapes = (
{
closed = 1;
nodes = (
(401,-345,o),
(373,-319,o),
(373,-279,cs),
(373,-231,o),
(383,-69,o),
(383,88,cs),
(383,311,o),
(444,345,o),
(444,383,cs),
(444,432,o),
(303,486,o),
(219,486,cs),
(178,486,o),
(150,457,o),
(150,417,cs),
(150,362,o),
(200,315,o),
(280,276,cs),
(309,262,o),
(324,227,o),
(324,169,cs),
(324,123,o),
(257,112,o),
(222,112,cs),
(70,112,o),
(38,224,o),
(38,331,cs),
(38,547,o),
(172,676,o),
(287,676,cs),
(437,676,o),
(576,586,o),
(576,521,cs),
(576,459,o),
(517,310,o),
(517,196,cs),
(517,121,o),
(561,-95,o),
(561,-213,cs),
(561,-268,o),
(469,-345,o),
(436,-345,cs)
);
}
);
width = 625;
}
);
unicode = 1507;
},
{
glyphname = "pe-hb";
kernLeft = "pe-hb";
kernRight = "pe-hb";
layers = (
{
anchors = (
{
name = bottom;
pos = (286,0);
},
{
name = center;
pos = (338,316);
}
);
layerId = m01;
shapes = (
{
closed = 1;
nodes = (
(85,-37,o),
(59,-29,o),
(59,0,cs),
(59,106,o),
(79,130,o),
(111,130,cs),
(305,130,o),
(475,149,o),
(475,351,cs),
(475,450,o),
(389,461,o),
(258,461,cs),
(210,461,o),
(167,440,o),
(167,391,cs),
(167,365,o),
(216,345,o),
(216,313,cs),
(216,289,o),
(175,221,o),
(130,221,cs),
(102,221,o),
(59,269,o),
(59,322,cs),
(59,381,o),
(131,428,o),
(131,447,cs),
(131,470,o),
(64,470,o),
(64,559,cs),
(64,586,o),
(79,670,o),
(84,676,cs),
(94,688,o),
(114,694,o),
(123,694,cs),
(131,694,o),
(134,690,o),
(136,678,cs),
(141,642,o),
(180,631,o),
(215,631,cs),
(273,631,o),
(356,634,o),
(413,615,cs),
(513,584,o),
(531,428,o),
(531,358,cs),
(531,126,o),
(390,-37,o),
(116,-37,cs)
);
}
);
width = 580;
},
{
anchors = (
{
name = bottom;
pos = (328,0);
},
{
name = center;
pos = (384,313);
}
);
layerId = m002;
shapes = (
{
closed = 1;
nodes = (
(96,-37,o),
(67,-19,o),
(67,10,cs),
(67,148,o),
(87,165,o),
(136,165,cs),
(372,165,o),
(517,185,o),
(517,351,cs),
(517,411,o),
(449,450,o),
(297,450,cs),
(262,450,o),
(219,427,o),
(219,391,cs),
(219,374,o),
(273,354,o),
(273,313,cs),
(273,279,o),
(214,201,o),
(149,201,cs),
(111,201,o),
(59,264,o),
(59,322,cs),
(59,408,o),
(117,408,o),
(117,438,cs),
(117,460,o),
(64,460,o),
(64,544,cs),
(64,600,o),
(80,661,o),
(92,678,cs),
(101,691,o),
(147,704,o),
(156,704,cs),
(164,704,o),
(173,697,o),
(178,678,cs),
(188,642,o),
(203,638,o),
(238,638,cs),
(466,638,o),
(498,623,o),
(535,592,cs),
(604,533,o),
(615,478,o),
(615,358,cs),
(615,126,o),
(481,-37,o),
(147,-37,cs)
);
}
);
width = 664;
}
);
unicode = 1508;
},
{
glyphname = "tsadiFinal-hb";
kernLeft = "tsadiFinal-hb";
kernRight = "tsadiFinal-hb";
layers = (
{
anchors = (
{
name = bottom;
pos = (196,-300);
}
);
layerId = m01;
shapes = (
{
closed = 1;
nodes = (
(142,-341,o),
(125,-259,o),
(125,-168,cs),
(125,-58,o),
(198,391,o),
(198,444,cs),
(198,455,o),
(190,466,o),
(177,466,cs),
(110,466,o),
(20,489,o),
(20,596,cs),
(20,631,o),
(37,692,o),
(56,692,cs),
(72,692,o),
(96,630,o),
(216,630,cs),
(334,630,o),
(356,694,o),
(374,694,cs),
(386,694,o),
(391,682,o),
(391,627,cs),
(391,489,o),
(286,479,o),
(274,474,cs),
(264,470,o),
(260,465,o),
(259,458,cs),
(253,416,o),
(244,321,o),
(244,253,cs),
(244,52,o),
(279,25,o),
(279,-118,cs),
(279,-188,o),
(214,-341,o),
(179,-341,cs)
);
}
);
width = 426;
},
{
anchors = (
{
name = bottom;
pos = (237,-300);
}
);
layerId = m002;
shapes = (
{
closed = 1;
nodes = (
(153,-341,o),
(126,-263,o),
(126,-168,cs),
(126,-58,o),
(211,286,o),
(211,419,cs),
(211,434,o),
(202,446,o),
(188,446,cs),
(61,446,o),
(20,489,o),
(20,596,cs),
(20,661,o),
(50,692,o),
(69,692,cs),
(109,692,o),
(117,630,o),
(257,630,cs),
(375,630,o),
(425,707,o),
(448,707,cs),
(467,707,o),
(475,687,o),
(475,627,cs),
(475,489,o),
(406,465,o),
(347,457,cs),
(337,456,o),
(332,448,o),
(331,441,cs),
(325,399,o),
(315,321,o),
(315,253,cs),
(315,52,o),
(355,15,o),
(355,-128,cs),
(355,-197,o),
(262,-341,o),
(220,-341,cs)
);
}
);
width = 510;
}
);
unicode = 1509;
},
{
glyphname = "tsadi-hb";
kernLeft = "tsadi-hb";
kernRight = "tsadi-hb";
layers = (
{
anchors = (
{
name = bottom;
pos = (196,0);
},
{
name = center;
pos = (136,320);
}
);
layerId = m01;
shapes = (
{
closed = 1;
nodes = (
(34,-36,o),
(29,-23,o),
(29,24,cs),
(29,106,o),
(40,140,o),
(75,148,cs),
(179,172,o),
(282,198,o),
(282,323,cs),
(282,419,o),
(226,454,o),
(117,471,cs),
(78,477,o),
(62,506,o),
(62,562,cs),
(62,631,o),
(106,633,o),
(117,660,cs),
(141,718,o),
(209,830,o),
(266,830,cs),
(298,830,o),
(341,817,o),
(341,780,cs),
(341,725,o),
(222,684,o),
(180,660,cs),
(159,648,o),
(154,639,o),
(154,632,cs),
(154,625,o),
(161,623,o),
(176,622,cs),
(303,614,o),
(337,487,o),
(337,344,cs),
(337,155,o),
(247,-36,o),
(53,-36,cs)
);
}
);
width = 387;
},
{
anchors = (
{
name = bottom;
pos = (196,0);
},
{
name = center;
pos = (196,320);
}
);
layerId = m002;
shapes = (
{
closed = 1;
nodes = (
(35,-36,o),
(29,-13,o),
(29,24,cs),
(29,116,o),
(48,180,o),
(95,186,cs),
(197,199,o),
(322,218,o),
(322,323,cs),
(322,405,o),
(274,430,o),
(115,455,cs),
(76,461,o),
(62,486,o),
(62,562,cs),
(62,625,o),
(116,630,o),
(131,660,cs),
(181,759,o),
(245,830,o),
(356,830,cs),
(391,830,o),
(425,811,o),
(425,772,cs),
(425,705,o),
(369,687,o),
(280,670,cs),
(247,664,o),
(229,650,o),
(229,638,cs),
(229,628,o),
(247,622,o),
(273,616,cs),
(383,591,o),
(422,468,o),
(422,344,cs),
(422,155,o),
(337,-36,o),
(63,-36,cs)
);
}
);
width = 471;
}
);
unicode = 1510;
},
{
glyphname = "qof-hb";
kernLeft = "qof-hb";
kernRight = "qof-hb";
layers = (
{
anchors = (
{
name = bottom;
pos = (386,0);
},
{
name = center;
pos = (311,290);
}
);
layerId = m01;
shapes = (
{
closed = 1;
nodes = (
(146,-346,o),
(199,-290,o),
(199,-218,cs),
(199,-73,o),
(153,88,o),
(153,198,cs),
(153,305,o),
(166,336,o),
(166,358,cs),
(166,375,o),
(156,381,o),
(138,381,cs),
(118,381,o),
(102,351,o),
(77,259,cs),
(66,219,o),
(61,155,o),
(61,-276,cs),
(61,-327,o),
(66,-346,o),
(94,-346,cs)
);
},
{
closed = 1;
nodes = (
(474,16,o),
(529,209,o),
(529,343,cs),
(529,443,o),
(516,632,o),
(336,632,cs),
(301,632,o),
(254,627,o),
(221,627,cs),
(190,627,o),
(140,630,o),
(130,659,cs),
(124,677,o),
(121,686,o),
(112,686,cs),
(101,686,o),
(85,680,o),
(78,670,cs),
(72,662,o),
(60,600,o),
(60,540,cs),
(60,470,o),
(98,455,o),
(166,455,cs),
(222,455,o),
(269,463,o),
(319,463,cs),
(428,463,o),
(473,409,o),
(473,313,cs),
(473,221,o),
(405,141,o),
(366,118,cs),
(318,90,o),
(303,78,o),
(303,51,cs),
(303,36,o),
(317,16,o),
(342,16,cs)
);
}
);
width = 580;
},
{
anchors = (
{
name = bottom;
pos = (429,0);
},
{
name = center;
pos = (354,300);
}
);
layerId = m002;
shapes = (
{
closed = 1;
nodes = (
(169,-346,o),
(251,-280,o),
(251,-208,cs),
(251,-23,o),
(196,138,o),
(196,198,cs),
(196,295,o),
(208,328,o),
(208,361,cs),
(208,382,o),
(188,394,o),
(154,394,cs),
(128,394,o),
(113,372,o),
(89,283,cs),
(78,243,o),
(64,155,o),
(64,-276,cs),
(64,-327,o),
(89,-346,o),
(117,-346,cs)
);
},
{
closed = 1;
nodes = (
(554,12,o),
(613,211,o),
(613,343,cs),
(613,503,o),
(579,654,o),
(379,654,cs),
(324,654,o),
(267,642,o),
(234,642,cs),
(203,642,o),
(184,650,o),
(168,682,cs),
(159,700,o),
(144,707,o),
(134,707,cs),
(103,707,o),
(94,697,o),
(84,682,cs),
(71,662,o),
(60,610,o),
(60,540,cs),
(60,460,o),
(101,433,o),
(209,433,cs),
(265,433,o),
(322,443,o),
(372,443,cs),
(461,443,o),
(516,409,o),
(516,313,cs),
(516,241,o),
(481,187,o),
(413,158,cs),
(339,127,o),
(312,104,o),
(312,67,cs),
(312,32,o),
(338,12,o),
(393,12,cs)
);
}
);
width = 664;
}
);
unicode = 1511;
},
{
glyphname = "resh-hb";
kernLeft = "resh-hb";
kernRight = "resh-hb";
layers = (
{
anchors = (
{
name = bottom;
pos = (256,0);
},
{
name = center;
pos = (270,329);
}
);
layerId = m01;
shapes = (
{
closed = 1;
nodes = (
(243,-25,o),
(231,-2,o),
(231,19,cs),
(231,51,o),
(283,94,o),
(305,118,cs),
(349,169,o),
(397,243,o),
(397,333,cs),
(397,439,o),
(336,471,o),
(230,471,cs),
(197,471,o),
(160,466,o),
(128,466,cs),
(27,466,o),
(21,515,o),
(21,576,cs),
(21,605,o),
(29,676,o),
(35,686,cs),
(39,693,o),
(57,697,o),
(69,697,cs),
(77,697,o),
(81,688,o),
(87,667,cs),
(92,650,o),
(103,634,o),
(175,634,cs),
(202,634,o),
(229,637,o),
(255,637,cs),
(430,637,o),
(454,457,o),
(454,340,cs),
(454,218,o),
(396,-25,o),
(279,-25,cs)
);
}
);
width = 501;
},
{
anchors = (
{
name = bottom;
pos = (256,0);
},
{
name = center;
pos = (293,318);
}
);
layerId = m002;
shapes = (
{
closed = 1;
nodes = (
(269,-25,o),
(249,18,o),
(249,39,cs),
(249,71,o),
(276,94,o),
(331,138,cs),
(380,177,o),
(438,266,o),
(438,333,cs),
(438,439,o),
(368,450,o),
(262,450,cs),
(229,450,o),
(192,446,o),
(160,446,cs),
(49,446,o),
(21,476,o),
(21,576,cs),
(21,635,o),
(28,675,o),
(40,686,cs),
(58,702,o),
(77,704,o),
(94,704,cs),
(109,704,o),
(115,696,o),
(122,680,cs),
(129,663,o),
(138,654,o),
(217,654,cs),
(244,654,o),
(291,660,o),
(317,660,cs),
(492,660,o),
(538,497,o),
(538,340,cs),
(538,138,o),
(448,-25,o),
(321,-25,cs)
);
}
);
width = 585;
}
);
unicode = 1512;
},
{
glyphname = "shin-hb";
kernLeft = "shin-hb";
kernRight = "shin-hb";
layers = (
{
anchors = (
{
name = bottom;
pos = (333,0);
},
{
name = bottomleft;
pos = (44,0);
},
{
name = center;
pos = (310,327);
},
{
name = top;
pos = (319,685);
},
{
name = topleft;
pos = (140,615);
},
{
name = topright;
pos = (501,629);
}
);
layerId = m01;
shapes = (
{
closed = 1;
nodes = (
(86,-89,o),
(79,-82,o),
(79,-66,cs),
(79,-13,o),
(103,241,o),
(103,454,cs),
(103,466,o),
(97,474,o),
(89,476,cs),
(71,480,o),
(47,489,o),
(47,505,cs),
(47,539,o),
(107,674,o),
(121,690,cs),
(128,698,o),
(141,702,o),
(159,702,cs),
(173,702,o),
(177,678,o),
(186,662,cs),
(197,641,o),
(218,635,o),
(328,635,cs),
(386,635,o),
(450,640,o),
(464,674,cs),
(473,695,o),
(488,702,o),
(509,702,cs),
(518,702,o),
(524,695,o),
(524,679,cs),
(524,593,o),
(486,464,o),
(352,464,cs),
(316,464,o),
(250,474,o),
(214,474,cs),
(179,474,o),
(169,470,o),
(169,455,cs),
(169,381,o),
(162,210,o),
(162,191,cs),
(162,169,o),
(183,160,o),
(300,160,cs),
(399,160,o),
(447,202,o),
(468,327,cs),
(471,345,o),
(494,355,o),
(509,355,cs),
(517,355,o),
(524,348,o),
(524,337,cs),
(524,178,o),
(492,-7,o),
(313,-7,cs),
(290,-7,o),
(223,3,o),
(198,3,cs),
(148,3,o),
(163,-46,o),
(136,-77,cs),
(127,-88,o),
(116,-89,o),
(102,-89,cs)
);
}
);
width = 580;
},
{
anchors = (
{
name = bottom;
pos = (375,0);
},
{
name = bottomleft;
pos = (86,0);
},
{
name = center;
pos = (342,327);
},
{
name = top;
pos = (361,685);
},
{
name = topleft;
pos = (162,625);
},
{
name = topright;
pos = (573,649);
}
);
layerId = m002;
shapes = (
{
closed = 1;
nodes = (
(85,-89,o),
(75,-82,o),
(75,-60,cs),
(75,-1,o),
(105,245,o),
(105,428,cs),
(105,440,o),
(98,448,o),
(91,450,cs),
(62,460,o),
(47,473,o),
(47,499,cs),
(47,533,o),
(105,659,o),
(125,687,cs),
(137,704,o),
(170,706,o),
(186,706,cs),
(199,706,o),
(206,697,o),
(216,666,cs),
(223,643,o),
(242,638,o),
(370,638,cs),
(488,638,o),
(496,662,o),
(515,683,cs),
(529,699,o),
(568,702,o),
(585,702,cs),
(601,702,o),
(608,695,o),
(608,679,cs),
(608,543,o),
(539,447,o),
(375,447,cs),
(329,447,o),
(292,454,o),
(256,454,cs),
(221,454,o),
(211,450,o),
(211,435,cs),
(211,361,o),
(204,251,o),
(204,231,cs),
(204,210,o),
(217,201,o),
(332,201,cs),
(431,201,o),
(483,232,o),
(509,361,cs),
(515,391,o),
(566,397,o),
(581,397,cs),
(599,397,o),
(606,387,o),
(606,374,cs),
(606,185,o),
(558,-7,o),
(387,-7,cs),
(312,-7,o),
(265,3,o),
(240,3,cs),
(190,3,o),
(205,-46,o),
(178,-77,cs),
(169,-88,o),
(125,-89,o),
(111,-89,cs)
);
}
);
width = 664;
}
);
unicode = 1513;
},
{
glyphname = "tav-hb";
kernLeft = "tav-hb";
kernRight = "tav-hb";
layers = (
{
anchors = (
{
name = bottom;
pos = (285,0);
},
{
name = center;
pos = (316,330);
}
);
layerId = m01;
shapes = (
{
closed = 1;
nodes = (
(37,-27,o),
(34,1,o),
(34,88,cs),
(34,106,o),
(38,125,o),
(74,143,cs),
(90,151,o),
(97,157,o),
(97,168,cs),
(94,256,o),
(83,287,o),
(83,325,cs),
(83,398,o),
(136,447,o),
(136,464,cs),
(136,478,o),
(78,483,o),
(78,554,cs),
(78,619,o),
(87,659,o),
(95,675,cs),
(99,684,o),
(121,693,o),
(131,693,cs),
(144,693,o),
(147,686,o),
(147,669,cs),
(147,633,o),
(189,627,o),
(235,627,cs),
(255,627,o),
(301,630,o),
(341,630,cs),
(496,630,o),
(533,472,o),
(533,347,cs),
(533,223,o),
(471,23,o),
(359,23,cs),
(327,23,o),
(311,36,o),
(311,71,cs),
(311,88,o),
(320,103,o),
(342,114,cs),
(464,175,o),
(473,255,o),
(473,330,cs),
(473,450,o),
(385,457,o),
(238,457,cs),
(199,457,o),
(158,392,o),
(158,343,cs),
(158,280,o),
(222,139,o),
(221,82,cs),
(221,-19,o),
(162,-27,o),
(76,-27,cs)
);
}
);
width = 580;
},
{
anchors = (
{
name = bottom;
pos = (327,0);
},
{
name = center;
pos = (368,300);
}
);
layerId = m002;
shapes = (
{
closed = 1;
nodes = (
(50,-27,o),
(34,1,o),
(34,88,cs),
(34,138,o),
(45,156,o),
(73,170,cs),
(89,178,o),
(96,188,o),
(96,199,cs),
(96,249,o),
(82,297,o),
(82,335,cs),
(82,411,o),
(127,436,o),
(127,448,cs),
(127,466,o),
(78,473,o),
(78,542,cs),
(78,617,o),
(86,660,o),
(102,690,cs),
(110,705,o),
(137,707,o),
(163,707,cs),
(174,707,o),
(184,702,o),
(187,686,cs),
(192,657,o),
(231,646,o),
(277,646,cs),
(297,646,o),
(343,649,o),
(383,649,cs),
(538,649,o),
(617,562,o),
(617,347,cs),
(617,223,o),
(554,0,o),
(420,0,cs),
(354,0,o),
(335,36,o),
(335,80,cs),
(335,98,o),
(339,115,o),
(364,124,cs),
(501,173,o),
(515,255,o),
(515,330,cs),
(515,424,o),
(466,441,o),
(291,441,cs),
(251,441,o),
(210,392,o),
(210,353,cs),
(210,280,o),
(279,165,o),
(279,98,cs),
(279,-14,o),
(191,-27,o),
(97,-27,cs)
);
}
);
width = 664;
}
);
unicode = 1514;
},
{
color = 4;
glyphname = "yodhiriq-hb";
kernLeft = "yod-hb";
kernRight = "yod-hb";
layers = (
{
layerId = m01;
shapes = (
{
ref = "yod-hb";
},
{
alignment = -1;
pos = (132,-159);
ref = "dagesh-hb";
}
);
width = 270;
},
{
associatedMasterId = m01;
layerId = "143AD760-3ED5-4471-B105-A28000F49672";
name = "May 13, 21, 11:45";
shapes = (
{
closed = 1;
nodes = (
(97.3,688.1,l),
(98,687.4,l)
);
},
{
closed = 1;
nodes = (
(97.3,687.4,l),
(96.6,682.5,o),
(95.2,677.6,o),
(95.9,672.7,cs),
(97.3,664.3,o),
(100.1,651.7,o),
(105,644.7,cs),
(126.7,611.8,o),
(175,604.1,o),
(207.2,586.6,cs),
(231,573.3,o),
(251.3,551.6,o),
(256.2,524.3,cs),
(258.3,511,o),
(257.6,497.7,o),
(256.9,484.4,cs),
(252,412.3,o),
(224,343,o),
(179.2,287,cs),
(169.4,274.4,o),
(158.9,262.5,o),
(147.7,252,cs),
(140.7,245,o),
(133.7,238.7,o),
(123.2,242.9,cs),
(118.3,245,o),
(112.7,252.7,o),
(109.2,256.9,cs),
(105,260.4,o),
(98.7,265.3,o),
(97.3,270.2,cs),
(95.9,275.1,o),
(102.2,279.3,o),
(105,282.1,cs),
(113.4,290.5,o),
(121.8,300.3,o),
(130.2,310.1,cs),
(153.3,338.8,o),
(185.5,383.6,o),
(169.4,424.2,cs),
(165.2,434,o),
(144.2,441,o),
(135.1,445.2,cs),
(105.7,457.8,o),
(72.8,467.6,o),
(47.6,488.6,cs),
(2.1,526.4,o),
(21.7,598.5,o),
(39.9,645.4,cs),
(44.1,657.3,o),
(51.1,669.2,o),
(54.6,681.8,c)
);
},
{
closed = 1;
nodes = (
(98.7,215.6,o),
(123.9,163.1,o),
(89.6,139.3,cs),
(84.7,135.8,o),
(78.4,133.7,o),
(72.8,133,cs),
(25.9,124.6,o),
(11.9,200.2,o),
(59.5,208.6,cs)
);
}
);
width = 270;
},
{
layerId = m002;
shapes = (
{
ref = "yod-hb";
},
{
alignment = -1;
pos = (51,-149);
ref = "dagesh-hb";
}
);
width = 354;
}
);
unicode = 64285;
},
{
color = 9;
glyphname = zero;
layers = (
{
layerId = m01;
shapes = (
{
closed = 1;
nodes = (
(217,73,o),
(173,150,o),
(173,342,cs),
(173,504,o),
(215,576,o),
(309,576,cs),
(403,576,o),
(448,500,o),
(448,308,cs),
(448,146,o),
(406,73,o),
(312,73,cs)
);
},
{
closed = 1;
nodes = (
(135,660,o),
(45,533,o),
(45,312,cs),
(45,107,o),
(140,-10,o),
(306,-10,cs),
(485,-10,o),
(576,117,o),
(576,337,cs),
(576,543,o),
(481,660,o),
(315,660,cs)
);
}
);
width = 620;
},
{
layerId = m002;
shapes = (
{
closed = 1;
nodes = (
(267,100,o),
(234,150,o),
(234,347,cs),
(234,492,o),
(263,550,o),
(334,550,cs),
(404,550,o),
(438,500,o),
(438,303,cs),
(438,158,o),
(409,100,o),
(337,100,cs)
);
},
{
closed = 1;
nodes = (
(142,662,o),
(41,539,o),
(41,312,cs),
(41,101,o),
(143,-12,o),
(330,-12,cs),
(530,-12,o),
(631,111,o),
(631,337,cs),
(631,549,o),
(528,662,o),
(342,662,cs)
);
}
);
width = 672;
}
);
unicode = 48;
},
{
color = 9;
glyphname = one;
layers = (
{
layerId = m01;
shapes = (
{
closed = 1;
nodes = (
(129,52,l),
(129,0,l),
(563,0,l),
(563,52,l),
(412,79,l),
(412,657,l),
(319,657,l),
(74,540,l),
(99,469,l),
(321,548,l),
(287,603,l),
(287,79,l)
);
}
);
width = 620;
},
{
layerId = m002;
shapes = (
{
closed = 1;
nodes = (
(130,59,l),
(130,0,l),
(615,0,l),
(615,59,l),
(471,87,l),
(471,653,l),
(324,653,l),
(72,528,l),
(101,443,l),
(325,517,l),
(281,599,l),
(281,87,l)
);
}
);
width = 672;
}
);
unicode = 49;
},
{
glyphname = zero.lf;
layers = (
{
layerId = m01;
shapes = (
{
closed = 1;
nodes = (
(231,73,o),
(184,150,o),
(184,342,cs),
(184,504,o),
(229,576,o),
(329,576,cs),
(431,576,o),
(479,500,o),
(479,308,cs),
(479,146,o),
(433,73,o),
(333,73,cs)
);
},
{
closed = 1;
nodes = (
(149,660,o),
(56,533,o),
(56,312,cs),
(56,107,o),
(154,-10,o),
(326,-10,cs),
(513,-10,o),
(607,117,o),
(607,337,cs),
(607,543,o),
(508,660,o),
(336,660,cs)
);
}
);
width = 662;
},
{
layerId = m002;
shapes = (
{
closed = 1;
nodes = (
(279,100,o),
(242,150,o),
(242,347,cs),
(242,492,o),
(274,550,o),
(354,550,cs),
(432,550,o),
(470,500,o),
(470,303,cs),
(470,158,o),
(438,100,o),
(357,100,cs)
);
},
{
closed = 1;
nodes = (
(154,662,o),
(49,539,o),
(49,312,cs),
(49,101,o),
(155,-12,o),
(349,-12,cs),
(558,-12,o),
(663,111,o),
(663,337,cs),
(663,549,o),
(556,662,o),
(362,662,cs)
);
}
);
width = 712;
}
);
},
{
glyphname = one.lf;
layers = (
{
layerId = m01;
shapes = (
{
closed = 1;
nodes = (
(81,49,l),
(81,0,l),
(432,0,l),
(432,49,l),
(322,74,l),
(322,657,l),
(229,657,l),
(23,562,l),
(46,490,l),
(230,547,l),
(198,603,l),
(198,74,l)
);
}
);
width = 459;
},
{
layerId = m002;
shapes = (
{
closed = 1;
nodes = (
(85,56,l),
(85,0,l),
(496,0,l),
(496,56,l),
(389,81,l),
(389,653,l),
(242,653,l),
(17,544,l),
(45,458,l),
(242,516,l),
(199,599,l),
(199,81,l)
);
}
);
width = 517;
}
);
},
{
glyphname = two.lf;
layers = (
{
layerId = m01;
shapes = (
{
closed = 1;
nodes = (
(502,110,l),
(138,110,l),
(110,50,l),
(333,234,ls),
(474,342,o),
(504,396,o),
(504,480,cs),
(504,594,o),
(423,660,o),
(305,660,cs),
(159,660,o),
(73,588,o),
(37,426,c),
(110,411,l),
(142,518,o),
(184,553,o),
(263,553,cs),
(337,553,o),
(373,516,o),
(373,447,cs),
(373,395,o),
(350,344,o),
(254,253,cs),
(62,70,l),
(62,0,l),
(438,0,l),
(461,-34,l),
(522,-34,l),
(562,211,l),
(497,211,l),
(424,78,l)
);
}
);
width = 604;
},
{
layerId = m002;
shapes = (
{
closed = 1;
nodes = (
(563,164,l),
(182,164,l),
(122,93,l),
(319,220,ls),
(507,325,o),
(550,383,o),
(550,477,cs),
(550,594,o),
(460,662,o),
(330,662,cs),
(166,662,o),
(65,586,o),
(29,408,c),
(123,389,l),
(150,481,o),
(186,514,o),
(253,514,cs),
(323,514,o),
(352,479,o),
(352,417,cs),
(352,365,o),
(332,318,o),
(239,236,cs),
(66,83,l),
(66,0,l),
(462,0,l),
(491,-35,l),
(558,-35,l),
(609,240,l),
(537,240,l),
(420,93,l)
);
}
);
width = 644;
}
);
},
{
glyphname = three.lf;
layers = (
{
layerId = m01;
shapes = (
{
closed = 1;
nodes = (
(269,295,ls),
(371,302,o),
(409,264,o),
(409,195,cs),
(409,113,o),
(353,60,o),
(239,60,cs),
(190,60,o),
(117,142,o),
(98,142,cs),
(73,142,o),
(44,113,o),
(44,75,cs),
(44,27,o),
(87,-10,o),
(223,-10,cs),
(418,-10,o),
(524,80,o),
(524,209,cs),
(524,308,o),
(461,371,o),
(336,371,c),
(313,365,l),
(434,372,o),
(493,435,o),
(493,517,cs),
(493,597,o),
(435,660,o),
(303,660,cs),
(170,660,o),
(83,595,o),
(51,472,c),
(120,452,l),
(148,532,o),
(197,566,o),
(272,566,cs),
(352,566,o),
(380,529,o),
(380,476,cs),
(380,414,o),
(347,378,o),
(224,365,c),
(231,292,l)
);
}
);
width = 575;
},
{
layerId = m002;
shapes = (
{
closed = 1;
nodes = (
(270,277,ls),
(369,284,o),
(402,251,o),
(402,189,cs),
(402,121,o),
(354,77,o),
(258,77,cs),
(185,77,o),
(127,161,o),
(104,161,cs),
(70,161,o),
(36,130,o),
(36,85,cs),
(36,26,o),
(82,-12,o),
(238,-12,cs),
(445,-12,o),
(567,80,o),
(567,213,cs),
(567,312,o),
(503,377,o),
(378,377,c),
(357,368,l),
(482,375,o),
(536,435,o),
(536,515,cs),
(536,593,o),
(485,662,o),
(326,662,cs),
(169,662,o),
(86,592,o),
(49,463,c),
(137,434,l),
(163,507,o),
(207,537,o),
(279,537,cs),
(354,537,o),
(381,505,o),
(381,460,cs),
(381,402,o),
(357,374,o),
(230,365,c),
(236,274,l)
);
}
);
width = 612;
}
);
},
{
glyphname = four.lf;
layers = (
{
layerId = m01;
shapes = (
{
closed = 1;
nodes = (
(298,650,l),
(27,286,l),
(28,193,l),
(580,193,l),
(609,296,l),
(508,282,l),
(67,282,l),
(87,247,l),
(365,609,l),
(327,608,l),
(327,74,l),
(210,49,l),
(210,0,l),
(562,0,l),
(562,49,l),
(452,74,l),
(452,650,l)
);
}
);
width = 632;
},
{
layerId = m002;
shapes = (
{
closed = 1;
nodes = (
(290,650,l),
(26,306,l),
(27,183,l),
(620,183,l),
(648,306,l),
(547,292,l),
(66,292,l),
(92,247,l),
(368,595,l),
(310,601,l),
(310,81,l),
(196,56,l),
(196,0,l),
(607,0,l),
(607,56,l),
(500,81,l),
(500,650,l)
);
}
);
width = 669;
}
);
},
{
glyphname = five.lf;
layers = (
{
layerId = m01;
shapes = (
{
closed = 1;
nodes = (
(385,-10,o),
(487,80,o),
(487,215,cs),
(487,337,o),
(422,404,o),
(140,429,c),
(176,386,l),
(243,592,l),
(194,545,l),
(482,545,l),
(523,668,l),
(386,650,l),
(175,650,l),
(88,323,l),
(335,304,o),
(383,261,o),
(383,187,cs),
(383,106,o),
(327,60,o),
(219,60,cs),
(170,60,o),
(97,142,o),
(78,142,cs),
(53,142,o),
(24,113,o),
(24,75,cs),
(24,27,o),
(67,-10,o),
(196,-10,cs)
);
}
);
width = 553;
},
{
layerId = m002;
shapes = (
{
closed = 1;
nodes = (
(419,-12,o),
(526,75,o),
(526,211,cs),
(526,333,o),
(474,397,o),
(161,432,c),
(208,383,l),
(264,583,l),
(202,505,l),
(508,505,l),
(565,668,l),
(420,650,l),
(170,650,l),
(82,288,l),
(343,263,o),
(377,231,o),
(377,169,cs),
(377,113,o),
(337,77,o),
(240,77,cs),
(168,77,o),
(110,161,o),
(87,161,cs),
(54,161,o),
(20,130,o),
(20,84,cs),
(20,26,o),
(66,-12,o),
(218,-12,cs)
);
}
);
width = 590;
}
);
},
{
glyphname = six.lf;
layers = (
{
layerId = m01;
shapes = (
{
closed = 1;
nodes = (
(136,583,o),
(52,451,o),
(52,258,cs),
(52,97,o),
(131,-10,o),
(300,-10,cs),
(450,-10,o),
(548,76,o),
(548,219,cs),
(548,345,o),
(473,404,o),
(365,404,cs),
(271,404,o),
(186,347,o),
(162,232,c),
(176,226,l),
(195,288,o),
(247,321,o),
(312,321,cs),
(382,321,o),
(427,285,o),
(427,194,cs),
(427,118,o),
(385,69,o),
(306,69,cs),
(222,69,o),
(178,125,o),
(178,255,cs),
(178,441,o),
(228,531,o),
(487,611,c),
(463,673,l)
);
}
);
width = 588;
},
{
layerId = m002;
shapes = (
{
closed = 1;
nodes = (
(114,580,o),
(45,435,o),
(45,261,cs),
(45,96,o),
(127,-12,o),
(322,-12,cs),
(486,-12,o),
(604,67,o),
(604,225,cs),
(604,353,o),
(529,413,o),
(417,413,cs),
(328,413,o),
(247,363,o),
(217,235,c),
(237,223,l),
(246,276,o),
(279,304,o),
(332,304,cs),
(388,304,o),
(420,275,o),
(420,193,cs),
(420,130,o),
(393,91,o),
(334,91,cs),
(273,91,o),
(240,121,o),
(240,253,cs),
(240,430,o),
(272,511,o),
(545,595,c),
(513,673,l)
);
}
);
width = 640;
}
);
},
{
glyphname = seven.lf;
layers = (
{
layerId = m01;
shapes = (
{
closed = 1;
nodes = (
(472,542,l),
(457,591,l),
(160,0,l),
(295,0,l),
(542,639,l),
(542,650,l),
(134,650,l),
(96,684,l),
(50,684,l),
(38,417,l),
(104,417,l),
(169,585,l),
(84,542,l)
);
}
);
width = 550;
},
{
layerId = m002;
shapes = (
{
closed = 1;
nodes = (
(494,495,l),
(488,590,l),
(158,0,l),
(348,0,l),
(585,634,l),
(585,650,l),
(166,650,l),
(119,690,l),
(66,690,l),
(28,376,l),
(108,376,l),
(224,570,l),
(66,495,l)
);
}
);
width = 589;
}
);
},
{
glyphname = eight.lf;
layers = (
{
layerId = m01;
shapes = (
{
closed = 1;
nodes = (
(154,660,o),
(78,579,o),
(78,476,cs),
(78,216,o),
(442,334,o),
(442,174,cs),
(442,109,o),
(406,68,o),
(306,68,cs),
(211,68,o),
(160,109,o),
(160,181,cs),
(160,249,o),
(190,288,o),
(300,306,c),
(273,316,l),
(125,317,o),
(52,254,o),
(52,159,cs),
(52,54,o),
(126,-10,o),
(302,-10,cs),
(473,-10,o),
(556,65,o),
(556,190,cs),
(556,454,o),
(189,327,o),
(189,492,cs),
(189,546,o),
(229,582,o),
(314,582,cs),
(406,582,o),
(434,546,o),
(434,494,cs),
(434,432,o),
(401,395,o),
(306,373,c),
(336,363,l),
(479,363,o),
(539,422,o),
(539,508,cs),
(539,596,o),
(485,660,o),
(321,660,cs)
);
}
);
width = 612;
},
{
layerId = m002;
shapes = (
{
closed = 1;
nodes = (
(148,662,o),
(71,580,o),
(71,464,cs),
(71,186,o),
(456,322,o),
(456,178,cs),
(456,128,o),
(429,96,o),
(330,96,cs),
(231,96,o),
(193,126,o),
(193,185,cs),
(193,241,o),
(214,275,o),
(326,289,c),
(282,302,l),
(115,302,o),
(46,246,o),
(46,150,cs),
(46,45,o),
(122,-12,o),
(324,-12,cs),
(532,-12,o),
(614,69,o),
(614,203,cs),
(614,484,o),
(222,356,o),
(222,491,cs),
(222,534,o),
(251,560,o),
(334,560,cs),
(428,560,o),
(451,534,o),
(451,491,cs),
(451,446,o),
(429,419,o),
(346,400,c),
(397,384,l),
(535,384,o),
(592,439,o),
(592,518,cs),
(592,601,o),
(540,662,o),
(348,662,cs)
);
}
);
width = 663;
}
);
},
{
glyphname = nine.lf;
layers = (
{
layerId = m01;
shapes = (
{
closed = 1;
nodes = (
(451,65,o),
(534,198,o),
(534,392,cs),
(534,553,o),
(456,660,o),
(287,660,cs),
(137,660,o),
(38,579,o),
(38,444,cs),
(38,315,o),
(110,253,o),
(220,253,cs),
(316,253,o),
(399,306,o),
(425,419,c),
(413,425,l),
(390,366,o),
(338,335,o),
(275,335,cs),
(203,335,o),
(159,372,o),
(159,461,cs),
(159,537,o),
(201,581,o),
(280,581,cs),
(363,581,o),
(408,527,o),
(408,394,cs),
(408,204,o),
(355,116,o),
(109,39,c),
(132,-23,l)
);
}
);
width = 586;
},
{
layerId = m002;
shapes = (
{
closed = 1;
nodes = (
(525,64,o),
(590,214,o),
(590,389,cs),
(590,553,o),
(508,662,o),
(314,662,cs),
(149,662,o),
(31,585,o),
(31,431,cs),
(31,302,o),
(105,240,o),
(216,240,cs),
(306,240,o),
(391,291,o),
(422,408,c),
(409,419,l),
(387,371,o),
(354,349,o),
(305,349,cs),
(247,349,o),
(215,378,o),
(215,460,cs),
(215,522,o),
(244,559,o),
(303,559,cs),
(364,559,o),
(395,529,o),
(395,397,cs),
(395,217,o),
(365,131,o),
(120,55,c),
(153,-23,l)
);
}
);
width = 635;
}
);
},
{
glyphname = fraction;
layers = (
{
layerId = m01;
shapes = (
{
closed = 1;
nodes = (
(-146,0,l),
(304,650,l),
(221,650,l),
(-228,0,l)
);
}
);
width = 74;
},
{
layerId = m002;
shapes = (
{
closed = 1;
nodes = (
(-134,0,l),
(314,650,l),
(209,650,l),
(-239,0,l)
);
}
);
width = 74;
}
);
unicode = 8260;
},
{
glyphname = zerosuperior;
layers = (
{
layerId = m01;
shapes = (
{
closed = 1;
nodes = (
(154,363,o),
(129,404,o),
(129,485,cs),
(129,556,o),
(156,593,o),
(207,593,cs),
(262,593,o),
(288,552,o),
(288,471,cs),
(288,400,o),
(261,363,o),
(209,363,cs)
);
},
{
closed = 1;
nodes = (
(314,299,o),
(376,360,o),
(376,479,cs),
(376,594,o),
(313,657,o),
(210,657,cs),
(102,657,o),
(40,595,o),
(40,477,cs),
(40,362,o),
(103,299,o),
(206,299,cs)
);
}
);
width = 416;
},
{
layerId = m002;
shapes = (
{
closed = 1;
nodes = (
(173,379,o),
(152,412,o),
(152,485,cs),
(152,548,o),
(175,577,o),
(216,577,cs),
(263,577,o),
(283,544,o),
(283,471,cs),
(283,407,o),
(261,379,o),
(219,379,cs)
);
},
{
closed = 1;
nodes = (
(332,297,o),
(401,357,o),
(401,478,cs),
(401,598,o),
(332,659,o),
(218,659,cs),
(103,659,o),
(34,598,o),
(34,477,cs),
(34,358,o),
(103,297,o),
(217,297,cs)
);
}
);
width = 435;
}
);
unicode = 8304;
},
{
glyphname = uni00B9;
layers = (
{
layerId = m01;
shapes = (
{
closed = 1;
nodes = (
(61,343,l),
(61,304,l),
(290,304,l),
(290,343,l),
(227,356,l),
(227,650,l),
(155,650,l),
(23,580,l),
(41,537,l),
(154,581,l),
(131,620,l),
(131,356,l)
);
}
);
width = 321;
},
{
layerId = m002;
shapes = (
{
closed = 1;
nodes = (
(58,347,l),
(58,304,l),
(296,304,l),
(296,347,l),
(245,359,l),
(245,650,l),
(151,650,l),
(17,579,l),
(35,531,l),
(146,568,l),
(116,621,l),
(116,359,l)
);
}
);
width = 326;
}
);
unicode = 185;
},
{
glyphname = uni00B2;
layers = (
{
layerId = m01;
shapes = (
{
closed = 1;
nodes = (
(324,381,l),
(110,381,l),
(112,355,l),
(193,413,ls),
(294,482,o),
(318,508,o),
(318,560,cs),
(318,623,o),
(269,657,o),
(188,657,cs),
(101,657,o),
(55,620,o),
(30,536,c),
(74,519,l),
(92,566,o),
(114,587,o),
(158,587,cs),
(200,587,o),
(220,568,o),
(220,539,cs),
(220,506,o),
(202,485,o),
(138,431,cs),
(51,357,l),
(51,304,l),
(275,304,l),
(289,287,l),
(321,287,l),
(347,425,l),
(305,425,l),
(253,336,l)
);
}
);
width = 380;
},
{
layerId = m002;
shapes = (
{
closed = 1;
nodes = (
(342,402,l),
(123,402,l),
(123,377,l),
(194,417,ls),
(312,477,o),
(335,506,o),
(335,559,cs),
(335,626,o),
(285,659,o),
(196,659,cs),
(104,659,o),
(53,623,o),
(24,536,c),
(75,513,l),
(95,553,o),
(114,571,o),
(153,571,cs),
(191,571,o),
(209,556,o),
(209,529,cs),
(209,498,o),
(193,480,o),
(125,429,cs),
(44,367,l),
(44,304,l),
(284,304,l),
(303,288,l),
(335,288,l),
(364,439,l),
(321,439,l),
(253,343,l)
);
}
);
width = 392;
}
);
unicode = 178;
},
{
glyphname = uni00B3;
layers = (
{
layerId = m01;
shapes = (
{
closed = 1;
nodes = (
(270,299,o),
(324,345,o),
(324,420,cs),
(324,481,o),
(276,510,o),
(196,504,c),
(200,501,l),
(270,509,o),
(301,540,o),
(301,582,cs),
(301,630,o),
(265,657,o),
(187,657,cs),
(104,657,o),
(62,624,o),
(37,556,c),
(78,537,l),
(94,574,o),
(118,594,o),
(157,594,cs),
(192,594,o),
(208,577,o),
(208,552,cs),
(208,520,o),
(193,504,o),
(123,495,c),
(127,452,l),
(147,453,ls),
(214,459,o),
(231,442,o),
(231,408,cs),
(231,364,o),
(202,349,o),
(152,349,cs),
(102,349,o),
(81,387,o),
(75,387,cs),
(52,387,o),
(37,371,o),
(37,349,cs),
(37,321,o),
(63,299,o),
(143,299,cs)
);
}
);
width = 362;
},
{
layerId = m002;
shapes = (
{
closed = 1;
nodes = (
(289,297,o),
(344,343,o),
(344,421,cs),
(344,484,o),
(289,513,o),
(205,506,c),
(213,503,l),
(292,512,o),
(322,543,o),
(322,583,cs),
(322,633,o),
(283,659,o),
(197,659,cs),
(104,659,o),
(59,624,o),
(32,552,c),
(78,529,l),
(94,563,o),
(118,582,o),
(154,582,cs),
(187,582,o),
(202,568,o),
(202,545,cs),
(202,516,o),
(187,503,o),
(119,493,c),
(124,445,l),
(143,446,ls),
(207,452,o),
(224,438,o),
(224,406,cs),
(224,365,o),
(198,353,o),
(155,353,cs),
(104,353,o),
(79,391,o),
(72,391,cs),
(45,391,o),
(30,374,o),
(30,350,cs),
(30,322,o),
(58,297,o),
(146,297,cs)
);
}
);
width = 376;
}
);
unicode = 179;
},
{
glyphname = uni2074;
layers = (
{
layerId = m01;
shapes = (
{
closed = 1;
nodes = (
(188,356,l),
(118,343,l),
(118,304,l),
(347,304,l),
(347,343,l),
(284,356,l),
(284,650,l),
(180,650,l),
(25,463,l),
(25,410,l),
(361,410,l),
(381,474,l),
(330,467,l),
(51,467,l),
(56,438,l),
(212,621,l),
(188,620,l)
);
}
);
width = 405;
},
{
layerId = m002;
shapes = (
{
closed = 1;
nodes = (
(176,359,l),
(117,347,l),
(117,304,l),
(355,304,l),
(355,347,l),
(304,359,l),
(304,650,l),
(171,650,l),
(22,472,l),
(22,405,l),
(380,405,l),
(397,475,l),
(341,468,l),
(46,468,l),
(54,439,l),
(209,617,l),
(176,620,l)
);
}
);
width = 415;
}
);
unicode = 8308;
},
{
color = 9;
glyphname = .notdef;
kernLeft = kern_notdef3;
kernRight = kern_notdef3;
layers = (
{
layerId = m01;
shapes = (
{
closed = 1;
nodes = (
(445,0,l),
(445,750,l),
(55,750,l),
(55,0,l)
);
},
{
closed = 1;
nodes = (
(100,718,l),
(400,718,l),
(250,406,l)
);
},
{
closed = 1;
nodes = (
(85,688,l),
(235,375,l),
(85,62,l)
);
},
{
closed = 1;
nodes = (
(265,375,l),
(415,688,l),
(415,62,l)
);
},
{
closed = 1;
nodes = (
(250,344,l),
(400,32,l),
(100,32,l)
);
}
);
width = 500;
},
{
layerId = m002;
shapes = (
{
closed = 1;
nodes = (
(445,0,l),
(445,750,l),
(55,750,l),
(55,0,l)
);
},
{
closed = 1;
nodes = (
(100,718,l),
(400,718,l),
(250,406,l)
);
},
{
closed = 1;
nodes = (
(85,688,l),
(235,375,l),
(85,62,l)
);
},
{
closed = 1;
nodes = (
(265,375,l),
(415,688,l),
(415,62,l)
);
},
{
closed = 1;
nodes = (
(250,344,l),
(400,32,l),
(100,32,l)
);
}
);
width = 500;
}
);
},
{
color = 9;
glyphname = period;
kernLeft = period;
kernRight = period;
layers = (
{
layerId = m01;
shapes = (
{
closed = 1;
nodes = (
(85,150,o),
(53,122,o),
(53,71,cs),
(53,21,o),
(85,-8,o),
(133,-8,cs),
(182,-8,o),
(214,21,o),
(214,71,cs),
(214,122,o),
(182,150,o),
(133,150,cs)
);
}
);
width = 267;
},
{
layerId = m002;
shapes = (
{
closed = 1;
nodes = (
(85,185,o),
(46,147,o),
(46,87,cs),
(46,26,o),
(85,-11,o),
(145,-11,cs),
(206,-11,o),
(244,26,o),
(244,87,cs),
(244,147,o),
(206,185,o),
(145,185,cs)
);
}
);
width = 290;
}
);
unicode = 46;
},
{
color = 9;
glyphname = comma;
kernLeft = period;
kernRight = period;
layers = (
{
layerId = m01;
shapes = (
{
closed = 1;
nodes = (
(55,-167,l),
(177,-81,o),
(211,-17,o),
(211,63,cs),
(211,121,o),
(184,148,o),
(130,148,cs),
(80,148,o),
(51,119,o),
(51,73,cs),
(51,52,o),
(113,33,o),
(113,-13,cs),
(113,-50,o),
(92,-81,o),
(26,-129,c)
);
}
);
width = 267;
},
{
layerId = m002;
shapes = (
{
closed = 1;
nodes = (
(63,-178,l),
(208,-84,o),
(241,-19,o),
(241,75,cs),
(241,142,o),
(208,178,o),
(141,178,cs),
(81,178,o),
(43,142,o),
(43,85,cs),
(43,61,o),
(117,42,o),
(117,-12,cs),
(117,-51,o),
(92,-80,o),
(26,-127,c)
);
}
);
width = 291;
}
);
unicode = 44;
},
{
color = 9;
glyphname = colon;
kernLeft = colon;
kernRight = colon;
layers = (
{
layerId = m01;
shapes = (
{
closed = 1;
nodes = (
(97,148,o),
(65,120,o),
(65,70,cs),
(65,20,o),
(97,-8,o),
(146,-8,cs),
(194,-8,o),
(226,20,o),
(226,70,cs),
(226,120,o),
(194,148,o),
(146,148,cs)
);
},
{
closed = 1;
nodes = (
(97,480,o),
(65,452,o),
(65,402,cs),
(65,352,o),
(97,324,o),
(146,324,cs),
(194,324,o),
(226,352,o),
(226,402,cs),
(226,452,o),
(194,480,o),
(146,480,cs)
);
}
);
width = 291;
},
{
layerId = m002;
shapes = (
{
closed = 1;
nodes = (
(95,178,o),
(56,142,o),
(56,83,cs),
(56,24,o),
(95,-11,o),
(156,-11,cs),
(216,-11,o),
(255,24,o),
(255,83,cs),
(255,142,o),
(216,178,o),
(156,178,cs)
);
},
{
closed = 1;
nodes = (
(95,488,o),
(56,452,o),
(56,393,cs),
(56,334,o),
(95,299,o),
(156,299,cs),
(216,299,o),
(255,334,o),
(255,393,cs),
(255,452,o),
(216,488,o),
(156,488,cs)
);
}
);
width = 311;
}
);
unicode = 58;
},
{
color = 9;
glyphname = semicolon;
kernLeft = colon;
kernRight = colon;
layers = (
{
layerId = m01;
shapes = (
{
closed = 1;
nodes = (
(72,-167,l),
(194,-81,o),
(228,-17,o),
(228,63,cs),
(228,121,o),
(200,148,o),
(147,148,cs),
(97,148,o),
(68,119,o),
(68,73,cs),
(68,52,o),
(130,33,o),
(130,-13,cs),
(130,-50,o),
(109,-81,o),
(43,-129,c)
);
},
{
closed = 1;
nodes = (
(99,480,o),
(67,452,o),
(67,402,cs),
(67,352,o),
(99,324,o),
(148,324,cs),
(197,324,o),
(228,352,o),
(228,402,cs),
(228,452,o),
(197,480,o),
(148,480,cs)
);
}
);
width = 296;
},
{
layerId = m002;
shapes = (
{
closed = 1;
nodes = (
(76,-178,l),
(221,-84,o),
(255,-19,o),
(255,75,cs),
(255,142,o),
(221,178,o),
(155,178,cs),
(94,178,o),
(56,142,o),
(56,85,cs),
(56,61,o),
(131,42,o),
(131,-12,cs),
(131,-51,o),
(106,-80,o),
(40,-127,c)
);
},
{
closed = 1;
nodes = (
(95,488,o),
(56,452,o),
(56,393,cs),
(56,334,o),
(95,299,o),
(155,299,cs),
(216,299,o),
(255,334,o),
(255,393,cs),
(255,452,o),
(216,488,o),
(155,488,cs)
);
}
);
width = 313;
}
);
unicode = 59;
},
{
color = 9;
glyphname = exclam;
layers = (
{
layerId = m01;
shapes = (
{
closed = 1;
nodes = (
(226,648,o),
(214,658,o),
(155,658,cs),
(95,658,o),
(83,648,o),
(84,630,cs),
(84,595,ls),
(85,569,o),
(111,279,o),
(119,211,c),
(191,211,l),
(197,279,o),
(224,569,o),
(225,595,cs),
(226,630,ls)
);
},
{
closed = 1;
nodes = (
(104,146,o),
(73,119,o),
(73,69,cs),
(73,19,o),
(104,-8,o),
(155,-8,cs),
(205,-8,o),
(236,19,o),
(236,69,cs),
(236,119,o),
(205,146,o),
(155,146,cs)
);
}
);
width = 309;
},
{
layerId = m002;
shapes = (
{
closed = 1;
nodes = (
(273,643,o),
(260,658,o),
(166,658,cs),
(73,658,o),
(60,643,o),
(61,615,cs),
(62,578,ls),
(65,534,o),
(102,351,o),
(113,236,c),
(219,236,l),
(231,351,o),
(268,534,o),
(270,578,cs),
(272,615,ls)
);
},
{
closed = 1;
nodes = (
(102,169,o),
(64,137,o),
(64,80,cs),
(64,21,o),
(102,-11,o),
(166,-11,cs),
(231,-11,o),
(268,21,o),
(268,80,cs),
(268,137,o),
(231,169,o),
(166,169,cs)
);
}
);
width = 333;
}
);
unicode = 33;
},
{
color = 9;
glyphname = exclamdown;
layers = (
{
layerId = m01;
shapes = (
{
closed = 1;
nodes = (
(77,-177,o),
(89,-187,o),
(148,-187,cs),
(208,-187,o),
(220,-177,o),
(219,-158,cs),
(219,-123,ls),
(218,-97,o),
(191,193,o),
(184,261,c),
(112,261,l),
(106,193,o),
(78,-97,o),
(78,-123,cs),
(77,-158,ls)
);
},
{
closed = 1;
nodes = (
(198,326,o),
(230,353,o),
(230,402,cs),
(230,452,o),
(198,479,o),
(148,479,cs),
(98,479,o),
(67,452,o),
(67,402,cs),
(67,353,o),
(98,326,o),
(148,326,cs)
);
}
);
width = 297;
},
{
layerId = m002;
shapes = (
{
closed = 1;
nodes = (
(55,-169,o),
(68,-185,o),
(162,-185,cs),
(254,-185,o),
(268,-169,o),
(267,-142,cs),
(265,-104,ls),
(263,-60,o),
(226,123,o),
(214,238,c),
(109,238,l),
(97,123,o),
(60,-60,o),
(58,-104,cs),
(56,-142,ls)
);
},
{
closed = 1;
nodes = (
(226,304,o),
(263,336,o),
(263,393,cs),
(263,452,o),
(226,485,o),
(162,485,cs),
(97,485,o),
(60,452,o),
(60,393,cs),
(60,336,o),
(97,304,o),
(162,304,cs)
);
}
);
width = 323;
}
);
unicode = 161;
},
{
color = 9;
glyphname = question;
layers = (
{
layerId = m01;
shapes = (
{
closed = 1;
nodes = (
(79,660,o),
(28,612,o),
(28,564,cs),
(28,528,o),
(54,506,o),
(94,506,cs),
(125,506,o),
(157,582,o),
(262,582,cs),
(363,582,o),
(404,533,o),
(404,474,cs),
(404,402,o),
(362,373,o),
(212,374,c),
(230,208,l),
(307,208,l),
(321,334,l),
(289,294,l),
(473,299,o),
(535,365,o),
(535,476,cs),
(535,580,o),
(444,660,o),
(262,660,cs)
);
},
{
closed = 1;
nodes = (
(217,146,o),
(186,119,o),
(186,69,cs),
(186,19,o),
(217,-8,o),
(267,-8,cs),
(318,-8,o),
(349,19,o),
(349,69,cs),
(349,119,o),
(318,146,o),
(267,146,cs)
);
}
);
width = 577;
},
{
layerId = m002;
shapes = (
{
closed = 1;
nodes = (
(90,662,o),
(27,611,o),
(27,545,cs),
(27,502,o),
(60,474,o),
(109,474,cs),
(142,474,o),
(183,558,o),
(283,558,cs),
(377,558,o),
(412,518,o),
(412,471,cs),
(412,403,o),
(374,381,o),
(228,385,c),
(251,226,l),
(369,226,l),
(390,332,l),
(349,290,l),
(544,297,o),
(610,359,o),
(610,475,cs),
(610,578,o),
(526,662,o),
(302,662,cs)
);
},
{
closed = 1;
nodes = (
(242,169,o),
(205,137,o),
(205,80,cs),
(205,21,o),
(242,-11,o),
(307,-11,cs),
(371,-11,o),
(408,21,o),
(408,80,cs),
(408,137,o),
(371,169,o),
(307,169,cs)
);
}
);
width = 649;
}
);
unicode = 63;
},
{
color = 9;
glyphname = questiondown;
layers = (
{
layerId = m01;
shapes = (
{
closed = 1;
nodes = (
(494,-188,o),
(545,-141,o),
(545,-92,cs),
(545,-56,o),
(519,-34,o),
(479,-34,cs),
(448,-34,o),
(415,-111,o),
(311,-111,cs),
(210,-111,o),
(168,-62,o),
(168,-3,cs),
(168,69,o),
(210,99,o),
(360,98,c),
(343,263,l),
(265,263,l),
(251,137,l),
(283,177,l),
(100,173,o),
(37,107,o),
(37,-5,cs),
(37,-109,o),
(129,-188,o),
(310,-188,cs)
);
},
{
closed = 1;
nodes = (
(355,326,o),
(386,353,o),
(386,402,cs),
(386,452,o),
(355,479,o),
(305,479,cs),
(255,479,o),
(224,452,o),
(224,402,cs),
(224,353,o),
(255,326,o),
(305,326,cs)
);
}
);
width = 570;
},
{
layerId = m002;
shapes = (
{
closed = 1;
nodes = (
(556,-188,o),
(619,-138,o),
(619,-72,cs),
(619,-29,o),
(586,0,o),
(536,0,cs),
(503,0,o),
(462,-84,o),
(363,-84,cs),
(269,-84,o),
(234,-44,o),
(234,3,cs),
(234,70,o),
(272,93,o),
(418,88,c),
(394,247,l),
(276,247,l),
(255,142,l),
(297,184,l),
(101,177,o),
(36,114,o),
(36,-1,cs),
(36,-104,o),
(120,-188,o),
(344,-188,cs)
);
},
{
closed = 1;
nodes = (
(404,304,o),
(441,336,o),
(441,393,cs),
(441,452,o),
(404,485,o),
(339,485,cs),
(275,485,o),
(237,452,o),
(237,393,cs),
(237,336,o),
(275,304,o),
(339,304,cs)
);
}
);
width = 644;
}
);
unicode = 191;
},
{
color = 9;
glyphname = bullet;
layers = (
{
layerId = m01;
shapes = (
{
closed = 1;
nodes = (
(133,366,o),
(83,321,o),
(83,240,cs),
(83,159,o),
(133,114,o),
(210,114,cs),
(287,114,o),
(338,159,o),
(338,240,cs),
(338,321,o),
(287,366,o),
(210,366,cs)
);
}
);
width = 420;
},
{
layerId = m002;
shapes = (
{
closed = 1;
nodes = (
(136,392,o),
(76,334,o),
(76,240,cs),
(76,145,o),
(136,88,o),
(230,88,cs),
(324,88,o),
(384,145,o),
(384,240,cs),
(384,334,o),
(324,392,o),
(230,392,cs)
);
}
);
width = 460;
}
);
unicode = 8226;
},
{
color = 9;
glyphname = asterisk;
layers = (
{
layerId = m01;
shapes = (
{
closed = 1;
nodes = (
(268,462,l),
(380,475,l),
(377,532,l),
(262,532,l),
(284,644,l),
(228,658,l),
(194,549,l),
(94,604,l),
(63,556,l),
(156,489,l),
(73,411,l),
(109,367,l),
(202,435,l),
(250,331,l),
(303,353,l)
);
}
);
width = 431;
},
{
layerId = m002;
shapes = (
{
closed = 1;
nodes = (
(287,448,l),
(395,464,l),
(389,536,l),
(279,537,l),
(298,645,l),
(227,662,l),
(193,558,l),
(95,608,l),
(57,547,l),
(145,482,l),
(67,405,l),
(114,350,l),
(204,413,l),
(252,315,l),
(320,343,l)
);
}
);
width = 443;
}
);
unicode = 42;
},
{
color = 9;
glyphname = numbersign;
layers = (
{
layerId = m01;
shapes = (
{
closed = 1;
nodes = (
(519,654,l),
(463,654,l),
(317,0,l),
(373,0,l)
);
},
{
closed = 1;
nodes = (
(323,654,l),
(267,654,l),
(122,0,l),
(178,0,l)
);
},
{
closed = 1;
nodes = (
(38,252,l),
(38,199,l),
(564,199,l),
(564,252,l)
);
},
{
closed = 1;
nodes = (
(76,456,l),
(76,404,l),
(599,404,l),
(599,456,l)
);
}
);
width = 638;
},
{
layerId = m002;
shapes = (
{
closed = 1;
nodes = (
(538,652,l),
(461,652,l),
(316,0,l),
(393,0,l)
);
},
{
closed = 1;
nodes = (
(333,652,l),
(256,652,l),
(111,0,l),
(188,0,l)
);
},
{
closed = 1;
nodes = (
(40,260,l),
(40,188,l),
(575,188,l),
(575,260,l)
);
},
{
closed = 1;
nodes = (
(74,465,l),
(74,392,l),
(607,392,l),
(607,465,l)
);
}
);
width = 647;
}
);
unicode = 35;
},
{
color = 9;
glyphname = slash;
layers = (
{
layerId = m01;
shapes = (
{
closed = 1;
nodes = (
(124,0,l),
(396,650,l),
(298,650,l),
(27,0,l)
);
}
);
width = 422;
},
{
layerId = m002;
shapes = (
{
closed = 1;
nodes = (
(154,0,l),
(426,650,l),
(295,650,l),
(24,0,l)
);
}
);
width = 449;
}
);
unicode = 47;
},
{
color = 9;
glyphname = backslash;
layers = (
{
layerId = m01;
shapes = (
{
closed = 1;
nodes = (
(123,650,l),
(26,650,l),
(297,0,l),
(394,0,l)
);
}
);
width = 422;
},
{
layerId = m002;
shapes = (
{
closed = 1;
nodes = (
(153,650,l),
(23,650,l),
(295,0,l),
(425,0,l)
);
}
);
width = 449;
}
);
unicode = 92;
},
{
color = 9;
glyphname = hyphen;
kernLeft = hyphen;
kernRight = hyphen;
layers = (
{
layerId = m01;
shapes = (
{
closed = 1;
nodes = (
(67,195,l),
(319,195,l),
(319,285,l),
(67,285,l)
);
}
);
width = 386;
},
{
layerId = m002;
shapes = (
{
closed = 1;
nodes = (
(61,181,l),
(348,181,l),
(348,299,l),
(61,299,l)
);
}
);
width = 409;
}
);
unicode = 45;
},
{
color = 9;
glyphname = endash;
kernLeft = hyphen;
kernRight = hyphen;
layers = (
{
layerId = m01;
shapes = (
{
closed = 1;
nodes = (
(64,204,l),
(442,204,l),
(442,275,l),
(64,275,l)
);
}
);
width = 506;
},
{
layerId = m002;
shapes = (
{
closed = 1;
nodes = (
(59,194,l),
(441,194,l),
(441,286,l),
(59,286,l)
);
}
);
width = 500;
}
);
unicode = 8211;
},
{
color = 9;
glyphname = emdash;
kernLeft = hyphen;
kernRight = hyphen;
layers = (
{
layerId = m01;
shapes = (
{
closed = 1;
nodes = (
(64,204,l),
(594,204,l),
(594,275,l),
(64,275,l)
);
}
);
width = 657;
},
{
layerId = m002;
shapes = (
{
closed = 1;
nodes = (
(59,194,l),
(593,194,l),
(593,286,l),
(59,286,l)
);
}
);
width = 652;
}
);
unicode = 8212;
},
{
color = 9;
glyphname = parenleft;
layers = (
{
layerId = m01;
shapes = (
{
closed = 1;
nodes = (
(157,429,o),
(197,531,o),
(307,636,c),
(263,683,l),
(97,544,o),
(45,429,o),
(45,286,cs),
(45,143,o),
(97,27,o),
(263,-112,c),
(307,-65,l),
(197,40,o),
(157,143,o),
(157,286,cs)
);
}
);
width = 334;
},
{
layerId = m002;
shapes = (
{
closed = 1;
nodes = (
(186,430,o),
(221,528,o),
(325,626,c),
(271,685,l),
(95,547,o),
(39,429,o),
(39,286,cs),
(39,143,o),
(95,25,o),
(271,-113,c),
(325,-54,l),
(221,44,o),
(186,142,o),
(186,286,cs)
);
}
);
width = 348;
}
);
unicode = 40;
},
{
color = 9;
glyphname = parenright;
layers = (
{
layerId = m01;
shapes = (
{
closed = 1;
nodes = (
(177,143,o),
(137,40,o),
(27,-64,c),
(71,-111,l),
(237,28,o),
(288,143,o),
(288,286,cs),
(288,429,o),
(237,544,o),
(71,683,c),
(27,636,l),
(137,532,o),
(177,429,o),
(177,286,cs)
);
}
);
width = 334;
},
{
layerId = m002;
shapes = (
{
closed = 1;
nodes = (
(162,142,o),
(127,44,o),
(23,-54,c),
(78,-113,l),
(253,25,o),
(309,143,o),
(309,286,cs),
(309,429,o),
(253,547,o),
(78,685,c),
(23,626,l),
(127,528,o),
(162,430,o),
(162,286,cs)
);
}
);
width = 349;
}
);
unicode = 41;
},
{
color = 9;
glyphname = braceleft;
layers = (
{
layerId = m01;
shapes = (
{
closed = 1;
nodes = (
(67,255,ls),
(115,254,o),
(134,234,o),
(134,195,cs),
(134,134,o),
(109,84,o),
(109,23,cs),
(109,-39,o),
(151,-99,o),
(254,-107,cs),
(324,-112,l),
(330,-52,l),
(292,-47,ls),
(239,-40,o),
(225,-10,o),
(225,34,cs),
(225,80,o),
(235,130,o),
(235,178,cs),
(235,243,o),
(200,282,o),
(110,297,c),
(110,273,l),
(200,288,o),
(235,327,o),
(235,393,cs),
(235,441,o),
(225,491,o),
(225,537,cs),
(225,582,o),
(239,611,o),
(292,618,cs),
(330,622,l),
(324,683,l),
(254,678,ls),
(151,670,o),
(109,609,o),
(109,548,cs),
(109,487,o),
(134,437,o),
(134,376,cs),
(134,336,o),
(115,317,o),
(67,316,cs),
(33,315,l),
(33,255,l)
);
}
);
width = 365;
},
{
layerId = m002;
shapes = (
{
closed = 1;
nodes = (
(64,247,ls),
(110,245,o),
(127,229,o),
(127,191,cs),
(127,138,o),
(101,86,o),
(101,22,cs),
(101,-41,o),
(150,-99,o),
(257,-107,cs),
(345,-113,l),
(353,-33,l),
(311,-27,ls),
(267,-22,o),
(255,1,o),
(255,42,cs),
(255,87,o),
(262,132,o),
(262,171,cs),
(262,240,o),
(222,281,o),
(122,301,c),
(122,270,l),
(222,291,o),
(262,332,o),
(262,401,cs),
(262,439,o),
(255,485,o),
(255,530,cs),
(255,571,o),
(267,593,o),
(311,599,cs),
(353,605,l),
(345,685,l),
(257,679,ls),
(150,671,o),
(101,612,o),
(101,549,cs),
(101,486,o),
(127,434,o),
(127,381,cs),
(127,343,o),
(110,327,o),
(64,325,cs),
(29,324,l),
(29,248,l)
);
}
);
width = 385;
}
);
unicode = 123;
},
{
color = 9;
glyphname = braceright;
layers = (
{
layerId = m01;
shapes = (
{
closed = 1;
nodes = (
(298,316,ls),
(251,318,o),
(231,337,o),
(231,376,cs),
(231,437,o),
(256,487,o),
(256,548,cs),
(256,610,o),
(214,670,o),
(111,678,cs),
(41,683,l),
(35,623,l),
(74,618,ls),
(126,611,o),
(140,582,o),
(140,537,cs),
(140,491,o),
(130,441,o),
(130,393,cs),
(130,328,o),
(166,289,o),
(255,274,c),
(255,298,l),
(166,283,o),
(130,244,o),
(130,178,cs),
(130,130,o),
(140,80,o),
(140,34,cs),
(140,-10,o),
(126,-40,o),
(74,-47,cs),
(35,-51,l),
(41,-112,l),
(111,-107,ls),
(214,-99,o),
(256,-38,o),
(256,23,cs),
(256,84,o),
(231,134,o),
(231,195,cs),
(231,235,o),
(251,254,o),
(298,255,cs),
(332,256,l),
(332,316,l)
);
}
);
width = 365;
},
{
layerId = m002;
shapes = (
{
closed = 1;
nodes = (
(322,325,ls),
(276,327,o),
(258,343,o),
(258,381,cs),
(258,434,o),
(284,486,o),
(284,550,cs),
(284,613,o),
(235,671,o),
(128,679,cs),
(40,685,l),
(32,605,l),
(74,599,ls),
(118,594,o),
(130,571,o),
(130,530,cs),
(130,485,o),
(124,439,o),
(124,401,cs),
(124,332,o),
(163,291,o),
(263,270,c),
(263,302,l),
(163,281,o),
(124,240,o),
(124,171,cs),
(124,133,o),
(130,87,o),
(130,42,cs),
(130,1,o),
(118,-21,o),
(74,-27,cs),
(32,-33,l),
(40,-113,l),
(128,-107,ls),
(235,-99,o),
(284,-40,o),
(284,22,cs),
(284,86,o),
(258,138,o),
(258,191,cs),
(258,229,o),
(276,245,o),
(322,247,cs),
(356,248,l),
(356,324,l)
);
}
);
width = 385;
}
);
unicode = 125;
},
{
color = 9;
glyphname = bracketleft;
layers = (
{
layerId = m01;
shapes = (
{
closed = 1;
nodes = (
(339,-102,l),
(339,-35,l),
(206,-35,l),
(206,606,l),
(339,606,l),
(339,673,l),
(98,673,l),
(98,-102,l)
);
}
);
width = 369;
},
{
layerId = m002;
shapes = (
{
closed = 1;
nodes = (
(371,-101,l),
(371,-15,l),
(231,-15,l),
(231,588,l),
(371,588,l),
(371,673,l),
(91,673,l),
(91,-101,l)
);
}
);
width = 400;
}
);
unicode = 91;
},
{
color = 9;
glyphname = bracketright;
layers = (
{
layerId = m01;
shapes = (
{
closed = 1;
nodes = (
(30,673,l),
(30,606,l),
(163,606,l),
(163,-35,l),
(30,-35,l),
(30,-101,l),
(270,-101,l),
(270,673,l)
);
}
);
width = 369;
},
{
layerId = m002;
shapes = (
{
closed = 1;
nodes = (
(28,673,l),
(28,588,l),
(169,588,l),
(169,-15,l),
(28,-15,l),
(28,-100,l),
(309,-100,l),
(309,673,l)
);
}
);
width = 400;
}
);
unicode = 93;
},
{
color = 9;
glyphname = quotesinglbase;
kernLeft = period;
kernRight = period;
layers = (
{
layerId = m01;
shapes = (
{
closed = 1;
nodes = (
(55,-120,l),
(176,-70,o),
(212,-17,o),
(212,64,cs),
(212,116,o),
(182,148,o),
(128,148,cs),
(78,148,o),
(51,118,o),
(51,75,cs),
(51,56,o),
(111,38,o),
(111,0,cs),
(111,-29,o),
(97,-46,o),
(33,-76,c)
);
}
);
width = 267;
},
{
layerId = m002;
shapes = (
{
closed = 1;
nodes = (
(57,-128,l),
(196,-73,o),
(238,-12,o),
(238,82,cs),
(238,142,o),
(201,178,o),
(138,178,cs),
(78,178,o),
(43,139,o),
(43,89,cs),
(43,67,o),
(109,46,o),
(109,8,cs),
(109,-21,o),
(93,-40,o),
(27,-70,c)
);
}
);
width = 286;
}
);
unicode = 8218;
},
{
color = 9;
glyphname = quoteleft;
kernLeft = quoteleft;
kernRight = quoteleft;
layers = (
{
layerId = m01;
shapes = (
{
closed = 1;
nodes = (
(204,658,l),
(84,608,o),
(47,555,o),
(47,474,cs),
(47,422,o),
(78,390,o),
(132,390,cs),
(181,390,o),
(209,420,o),
(209,463,cs),
(209,482,o),
(149,500,o),
(149,538,cs),
(149,567,o),
(162,584,o),
(227,614,c)
);
}
);
width = 270;
},
{
layerId = m002;
shapes = (
{
closed = 1;
nodes = (
(221,661,l),
(82,606,o),
(41,546,o),
(41,452,cs),
(41,391,o),
(78,356,o),
(140,356,cs),
(200,356,o),
(236,394,o),
(236,444,cs),
(236,467,o),
(169,488,o),
(169,525,cs),
(169,555,o),
(185,573,o),
(251,603,c)
);
}
);
width = 289;
}
);
unicode = 8216;
},
{
color = 9;
glyphname = quoteright;
kernLeft = quoteright;
kernRight = quoteright;
layers = (
{
layerId = m01;
shapes = (
{
closed = 1;
nodes = (
(71,389,l),
(192,439,o),
(228,492,o),
(228,574,cs),
(228,626,o),
(197,658,o),
(144,658,cs),
(94,658,o),
(66,627,o),
(66,584,cs),
(66,565,o),
(127,547,o),
(127,509,cs),
(127,480,o),
(113,463,o),
(49,434,c)
);
}
);
width = 269;
},
{
layerId = m002;
shapes = (
{
closed = 1;
nodes = (
(72,356,l),
(211,410,o),
(253,471,o),
(253,565,cs),
(253,625,o),
(216,661,o),
(153,661,cs),
(93,661,o),
(58,622,o),
(58,572,cs),
(58,550,o),
(124,529,o),
(124,491,cs),
(124,462,o),
(108,443,o),
(43,413,c)
);
}
);
width = 288;
}
);
unicode = 8217;
},
{
color = 9;
glyphname = guillemotleft;
kernLeft = guilsinglleft;
kernRight = guilsinglleft;
layers = (
{
layerId = m01;
shapes = (
{
closed = 1;
nodes = (
(158,222,l),
(297,413,l),
(246,460,l),
(45,277,l),
(45,203,l),
(246,20,l),
(297,67,l),
(158,258,l)
);
},
{
closed = 1;
nodes = (
(408,222,l),
(547,413,l),
(496,460,l),
(295,277,l),
(295,203,l),
(496,20,l),
(547,67,l),
(408,258,l)
);
}
);
width = 594;
},
{
layerId = m002;
shapes = (
{
closed = 1;
nodes = (
(195,217,l),
(327,415,l),
(257,479,l),
(40,292,l),
(40,187,l),
(257,1,l),
(327,65,l),
(195,263,l)
);
},
{
closed = 1;
nodes = (
(480,217,l),
(612,415,l),
(542,479,l),
(325,292,l),
(325,187,l),
(542,1,l),
(612,65,l),
(480,263,l)
);
}
);
width = 653;
}
);
unicode = 171;
},
{
color = 9;
glyphname = guillemotright;
kernLeft = guilsinglright;
kernRight = guilsinglright;
layers = (
{
layerId = m01;
shapes = (
{
closed = 1;
nodes = (
(189,258,l),
(51,67,l),
(101,20,l),
(303,203,l),
(303,277,l),
(101,460,l),
(51,413,l),
(189,222,l)
);
},
{
closed = 1;
nodes = (
(439,258,l),
(301,67,l),
(351,20,l),
(553,203,l),
(553,277,l),
(351,460,l),
(301,413,l),
(439,222,l)
);
}
);
width = 605;
},
{
layerId = m002;
shapes = (
{
closed = 1;
nodes = (
(177,263,l),
(45,65,l),
(115,1,l),
(331,187,l),
(331,292,l),
(115,479,l),
(45,415,l),
(177,217,l)
);
},
{
closed = 1;
nodes = (
(461,263,l),
(330,65,l),
(400,1,l),
(616,187,l),
(616,292,l),
(400,479,l),
(330,415,l),
(461,217,l)
);
}
);
width = 665;
}
);
unicode = 187;
},
{
color = 9;
glyphname = guilsinglleft;
kernLeft = guilsinglleft;
kernRight = guilsinglleft;
layers = (
{
layerId = m01;
shapes = (
{
closed = 1;
nodes = (
(158,222,l),
(297,413,l),
(246,460,l),
(45,277,l),
(45,203,l),
(246,20,l),
(297,67,l),
(158,258,l)
);
}
);
width = 344;
},
{
layerId = m002;
shapes = (
{
closed = 1;
nodes = (
(195,217,l),
(327,415,l),
(257,479,l),
(40,292,l),
(40,187,l),
(257,1,l),
(327,65,l),
(195,263,l)
);
}
);
width = 368;
}
);
unicode = 8249;
},
{
color = 9;
glyphname = guilsinglright;
kernLeft = guilsinglright;
kernRight = guilsinglright;
layers = (
{
layerId = m01;
shapes = (
{
closed = 1;
nodes = (
(189,258,l),
(51,67,l),
(101,20,l),
(303,203,l),
(303,277,l),
(101,460,l),
(51,413,l),
(189,222,l)
);
}
);
width = 355;
},
{
layerId = m002;
shapes = (
{
closed = 1;
nodes = (
(177,263,l),
(45,65,l),
(115,1,l),
(331,187,l),
(331,292,l),
(115,479,l),
(45,415,l),
(177,217,l)
);
}
);
width = 380;
}
);
unicode = 8250;
},
{
color = 9;
glyphname = quotesingle;
kernLeft = quotesingle;
kernRight = quotesingle;
layers = (
{
layerId = m01;
shapes = (
{
closed = 1;
nodes = (
(155,403,l),
(175,628,l),
(175,650,l),
(57,650,l),
(57,628,l),
(77,403,l)
);
}
);
width = 232;
},
{
layerId = m002;
shapes = (
{
closed = 1;
nodes = (
(178,383,l),
(203,620,l),
(203,650,l),
(50,650,l),
(50,620,l),
(76,383,l)
);
}
);
width = 253;
}
);
unicode = 39;
},
{
color = 9;
glyphname = at;
layers = (
{
layerId = m01;
shapes = (
{
closed = 1;
nodes = (
(757,85,o),
(848,187,o),
(848,362,cs),
(848,560,o),
(715,660,o),
(501,660,cs),
(219,660,o),
(47,488,o),
(47,230,cs),
(47,-12,o),
(188,-114,o),
(438,-114,cs),
(560,-114,o),
(657,-85,o),
(748,-29,c),
(722,18,l),
(636,-32,o),
(544,-58,o),
(453,-58,cs),
(227,-58,o),
(114,32,o),
(114,235,cs),
(114,459,o),
(258,607,o),
(496,607,cs),
(680,607,o),
(785,528,o),
(785,347,cs),
(785,224,o),
(722,143,o),
(650,143,cs),
(617,143,o),
(601,155,o),
(601,186,cs),
(601,199,o),
(603,215,o),
(609,236,cs),
(679,463,l),
(590,463,l),
(551,394,l),
(532,339,ls),
(497,242,o),
(437,165,o),
(389,165,cs),
(360,165,o),
(347,179,o),
(346,208,cs),
(346,286,o),
(423,410,o),
(495,410,cs),
(526,410,o),
(544,396,o),
(560,362,c),
(568,378,l),
(547,439,o),
(514,472,o),
(461,472,cs),
(337,472,o),
(227,318,o),
(229,195,cs),
(230,132,o),
(267,89,o),
(337,89,cs),
(403,89,o),
(448,127,o),
(520,250,c),
(529,250,l),
(520,227,ls),
(513,207,o),
(510,189,o),
(510,173,cs),
(511,117,o),
(553,85,o),
(629,85,cs)
);
}
);
width = 881;
},
{
layerId = m002;
shapes = (
{
closed = 1;
nodes = (
(773,74,o),
(857,179,o),
(857,355,cs),
(857,552,o),
(723,662,o),
(503,662,cs),
(217,662,o),
(41,495,o),
(41,228,cs),
(41,-12,o),
(181,-120,o),
(442,-120,cs),
(563,-120,o),
(662,-92,o),
(757,-37,c),
(733,10,l),
(643,-39,o),
(547,-64,o),
(461,-64,cs),
(226,-64,o),
(109,28,o),
(109,235,cs),
(109,465,o),
(258,610,o),
(499,610,cs),
(691,610,o),
(793,522,o),
(793,341,cs),
(793,226,o),
(737,141,o),
(667,141,cs),
(633,141,o),
(618,152,o),
(617,182,cs),
(617,196,o),
(619,213,o),
(626,237,cs),
(694,467,l),
(581,467,l),
(533,392,l),
(513,338,ls),
(479,244,o),
(430,177,o),
(392,177,cs),
(371,177,o),
(360,187,o),
(360,209,cs),
(357,281,o),
(432,398,o),
(491,398,cs),
(517,398,o),
(529,386,o),
(543,354,c),
(552,372,l),
(531,442,o),
(496,477,o),
(443,477,cs),
(320,478,o),
(201,322,o),
(206,188,cs),
(209,123,o),
(253,80,o),
(321,80,cs),
(391,80,o),
(432,117,o),
(504,247,c),
(515,247,l),
(507,224,ls),
(501,204,o),
(497,186,o),
(498,169,cs),
(501,109,o),
(550,74,o),
(635,74,cs)
);
}
);
width = 885;
}
);
unicode = 64;
},
